<mxfile host="app.diagrams.net" modified="2024-02-19T11:25:07.801Z" agent="Mozilla/5.0 (Windows NT 10.0; Win64; x64) AppleWebKit/537.36 (KHTML, like Gecko) Chrome/121.0.0.0 Safari/537.36" etag="JX0ao_q_HF5chMdtXZk8" version="23.1.1" type="github">
  <diagram name="Page-1" id="8tiUXh9OOOgQ4oSdxPuH">
    <mxGraphModel dx="1877" dy="1726" grid="1" gridSize="10" guides="1" tooltips="1" connect="1" arrows="1" fold="1" page="1" pageScale="1" pageWidth="827" pageHeight="1169" math="0" shadow="0">
      <root>
        <mxCell id="0" />
        <mxCell id="1" parent="0" />
        <mxCell id="uxV9D01Ll2PjdH4FGNLQ-33" value="" style="rounded=0;whiteSpace=wrap;html=1;dashed=1;fillColor=#dae8fc;strokeColor=#6c8ebf;" vertex="1" parent="1">
          <mxGeometry x="-820" y="-920" width="720" height="900" as="geometry" />
        </mxCell>
        <mxCell id="uxV9D01Ll2PjdH4FGNLQ-34" value="" style="rounded=0;whiteSpace=wrap;html=1;fillColor=none;dashed=1;dashPattern=8 8;" vertex="1" parent="1">
          <mxGeometry x="-550" y="-860" width="390" height="810" as="geometry" />
        </mxCell>
        <mxCell id="uxV9D01Ll2PjdH4FGNLQ-35" style="edgeStyle=orthogonalEdgeStyle;rounded=0;orthogonalLoop=1;jettySize=auto;html=1;entryX=0;entryY=0.5;entryDx=0;entryDy=0;startArrow=classic;startFill=1;strokeColor=#007FFF;flowAnimation=1;" edge="1" parent="1" source="uxV9D01Ll2PjdH4FGNLQ-37" target="uxV9D01Ll2PjdH4FGNLQ-39">
          <mxGeometry relative="1" as="geometry">
            <Array as="points">
              <mxPoint x="-520" y="-590" />
              <mxPoint x="-520" y="-735" />
            </Array>
          </mxGeometry>
        </mxCell>
        <mxCell id="uxV9D01Ll2PjdH4FGNLQ-36" style="edgeStyle=orthogonalEdgeStyle;rounded=0;orthogonalLoop=1;jettySize=auto;html=1;entryX=0.011;entryY=0.421;entryDx=0;entryDy=0;entryPerimeter=0;strokeColor=#007FFF;flowAnimation=1;" edge="1" parent="1" source="uxV9D01Ll2PjdH4FGNLQ-37" target="uxV9D01Ll2PjdH4FGNLQ-41">
          <mxGeometry relative="1" as="geometry">
            <Array as="points">
              <mxPoint x="-520" y="-590" />
              <mxPoint x="-520" y="-523" />
            </Array>
            <mxPoint x="-430" y="-520" as="targetPoint" />
          </mxGeometry>
        </mxCell>
        <mxCell id="uxV9D01Ll2PjdH4FGNLQ-37" value="Google App Engine" style="rounded=1;whiteSpace=wrap;html=1;verticalAlign=top;spacingTop=50;strokeColor=#007FFF;" vertex="1" parent="1">
          <mxGeometry x="-770" y="-720" width="160" height="240" as="geometry" />
        </mxCell>
        <mxCell id="uxV9D01Ll2PjdH4FGNLQ-38" value="Code Flutter&lt;br&gt;(Compilé pour le web)" style="rounded=1;whiteSpace=wrap;html=1;" vertex="1" parent="1">
          <mxGeometry x="-755" y="-620" width="130" height="120" as="geometry" />
        </mxCell>
        <mxCell id="uxV9D01Ll2PjdH4FGNLQ-39" value="&lt;b&gt;Firebase&lt;br&gt;&lt;/b&gt;Auth | Firestore | Firestorage" style="rounded=1;whiteSpace=wrap;html=1;fillColor=#fff2cc;strokeColor=#d6b656;" vertex="1" parent="1">
          <mxGeometry x="-410" y="-800" width="190" height="130" as="geometry" />
        </mxCell>
        <mxCell id="uxV9D01Ll2PjdH4FGNLQ-40" style="edgeStyle=orthogonalEdgeStyle;rounded=0;orthogonalLoop=1;jettySize=auto;html=1;exitX=0.5;exitY=1;exitDx=0;exitDy=0;entryX=0.5;entryY=0;entryDx=0;entryDy=0;strokeColor=#007FFF;flowAnimation=1;" edge="1" parent="1" source="uxV9D01Ll2PjdH4FGNLQ-41" target="uxV9D01Ll2PjdH4FGNLQ-48">
          <mxGeometry relative="1" as="geometry" />
        </mxCell>
        <mxCell id="uxV9D01Ll2PjdH4FGNLQ-41" value="Google Cloud Run&lt;br&gt;Google Compute Engine&lt;br&gt;&lt;br&gt;&lt;b&gt;Middleware&lt;/b&gt;" style="rounded=1;whiteSpace=wrap;html=1;verticalAlign=top;spacingTop=50;strokeColor=#007FFF;" vertex="1" parent="1">
          <mxGeometry x="-410" y="-620" width="190" height="230" as="geometry" />
        </mxCell>
        <mxCell id="uxV9D01Ll2PjdH4FGNLQ-42" value="Code Python&lt;br&gt;(&lt;b&gt;LangChain | LlamaIndex&lt;/b&gt;)" style="rounded=1;whiteSpace=wrap;html=1;align=center;" vertex="1" parent="1">
          <mxGeometry x="-392.5" y="-480" width="155" height="80" as="geometry" />
        </mxCell>
        <mxCell id="uxV9D01Ll2PjdH4FGNLQ-43" style="edgeStyle=orthogonalEdgeStyle;rounded=0;orthogonalLoop=1;jettySize=auto;html=1;strokeColor=#007FFF;flowAnimation=1;" edge="1" parent="1" source="uxV9D01Ll2PjdH4FGNLQ-44">
          <mxGeometry relative="1" as="geometry">
            <mxPoint x="-410" y="-450" as="targetPoint" />
            <Array as="points">
              <mxPoint x="-520" y="-360" />
              <mxPoint x="-520" y="-450" />
            </Array>
          </mxGeometry>
        </mxCell>
        <mxCell id="uxV9D01Ll2PjdH4FGNLQ-44" value="Point d&#39;inférence LLM&lt;br&gt;(&lt;b&gt;OpenAI | HuggingFace&lt;/b&gt;)" style="rounded=1;whiteSpace=wrap;html=1;fillColor=#d5e8d4;strokeColor=#82b366;" vertex="1" parent="1">
          <mxGeometry x="-770" y="-420" width="160" height="90" as="geometry" />
        </mxCell>
        <mxCell id="uxV9D01Ll2PjdH4FGNLQ-45" value="Authentification&lt;br&gt;+&lt;br&gt;Base documentaire&lt;br&gt;+&lt;br&gt;Base de données" style="text;html=1;strokeColor=none;fillColor=none;align=center;verticalAlign=middle;whiteSpace=wrap;rounded=0;" vertex="1" parent="1">
          <mxGeometry x="-508" y="-840" width="80" height="90" as="geometry" />
        </mxCell>
        <mxCell id="uxV9D01Ll2PjdH4FGNLQ-46" value="API REST&lt;br&gt;(Protégé par &lt;b&gt;JWT&lt;/b&gt;)" style="text;html=1;strokeColor=none;fillColor=none;align=center;verticalAlign=middle;whiteSpace=wrap;rounded=0;" vertex="1" parent="1">
          <mxGeometry x="-530" y="-520" width="107" height="40" as="geometry" />
        </mxCell>
        <mxCell id="uxV9D01Ll2PjdH4FGNLQ-47" value="" style="group" vertex="1" connectable="0" parent="1">
          <mxGeometry x="-410" y="-300" width="190" height="240" as="geometry" />
        </mxCell>
        <mxCell id="uxV9D01Ll2PjdH4FGNLQ-48" value="Google Compute Engine&lt;br&gt;&lt;br&gt;&lt;b&gt;Hébergement de la base de données vectorielles&lt;/b&gt;" style="rounded=1;whiteSpace=wrap;html=1;verticalAlign=top;spacingTop=50;strokeColor=#007FFF;" vertex="1" parent="uxV9D01Ll2PjdH4FGNLQ-47">
          <mxGeometry width="190" height="240" as="geometry" />
        </mxCell>
        <mxCell id="uxV9D01Ll2PjdH4FGNLQ-49" value="Serveur de base de données vectorielles&lt;br&gt;(&lt;b&gt;ChromaDB&lt;/b&gt;)" style="rounded=1;whiteSpace=wrap;html=1;align=center;" vertex="1" parent="uxV9D01Ll2PjdH4FGNLQ-47">
          <mxGeometry x="30" y="130" width="140" height="92" as="geometry" />
        </mxCell>
        <mxCell id="uxV9D01Ll2PjdH4FGNLQ-55" value="" style="shape=image;verticalLabelPosition=bottom;labelBackgroundColor=default;verticalAlign=top;aspect=fixed;imageAspect=0;image=data:image/png,iVBORw0KGgoAAAANSUhEUgAAC7gAAAfQCAMAAABlzOIIAAACPVBMVEVHcExDg/JEgfFCg/BEhvRBlP9EgvFDh/1GgutVsv9EhfZDhvlEhfVDg/FDgvBDhPJEhPNDg/FDhfVEhfVBedtDhfVEhfRDhvlEhfVDhfVDhPJDhvtDhfdDhfZEhPNDhvlDhvlEhPJDg/JEhfRDhvpDhvlEhPBEhPBDhvlFg+9EhPBFhO9Fg+9EhPBDhfhAet1DhfZAet1Aet1DhvpCfeRAet1Aet1Fg+5Aet1Fg+5DhfZAet1Fg+1AfeFBe99AetxAe91DhfZBe95Fg+1EhPFEhPBBetxChvpDh/xBetxBe93///9EhvhEhvlEhvdDh/xEhfRDh/tEhfVFhfNAe99DhvpAe+BFhfJGg+tAe95AfOJEhvZFhO5Gg+xFhO9FhPBAfOM/fOVGhO1Dh/1Ehvo/fOREhfZBetxGg+pFhPFBe91AfOFAe+FBettFhfFFhO1Ae90/fOZDhvs/fedBetpGhOxBe9w/feazyvPy9v5AfulZjeZNhOLa5vrM3PlDgeiZuvK2zvZ9puxxnupDhPTm7/2/0/afvvJBfeVDgevQ3/lEhPBDhPLB1fZAfueAqOxEgOXE2fxxnux5pO7B1/16pey2zfRflvW5z/ZBfOOnxvvd6f2Vtu9EgOaUtvCcu+9xnuuHsfijv/DN3/38/f9FhPN/qO73+v5zn+pwovjs8v3U4vuOsu9klemArPmGre7H2feOtvtSieeuyPVWkfhsm+qow/JNi/ZViuR4o+tDfuFIgeJckepNhuhCf+bsZ4mUAAAAS3RSTlMAFBAZBwMMqqoBUupdLikjOh52fq5m9MBBbTPeiJC5ydTdSOTzmtWZo8yF7PKisvn56Nz5TsTywqGxqnf5WpLSaP2E5Pz6QP37tbpsCK16AABgoklEQVR42uzd7W+c9Z3vcWyPJ5oZ31v2+N7jO3DTxbKUI1X1M0utEsm5K6jao+VJUNJI++RImzygaUUFPU27Qi3dpeyBhbPV4dSQDeFmKVAOq3b/tgNtgZDE8cxc1zXz+/2u1+sfMIj4+3kzunLNI48AAAAAAAAAAAAAAAAAAAAAAAAAAAAAAAAAAAAAAAAAAAAAAAAAAAAAAAAAAAAAAAAAAAAAAAAAAAAAAAAAAAAAAAAAAAAAAAAAAAAAAAAAAAAAAAAAAAAAAAAAAAAAAAAAAAAAAAAAAAAAAAAAAAAAAAAAAAAAAAAAAAAAAAAAAAAAAAAAAAAAAAAAAAAAAAAAAAAAAAAAAAAAAAAAAAAAAAAAAAAAAAAAAAAAAAAAAAAAAAAAAAAAAAAAAAAAAAAAAAAAAAAAAAAAAAAAAAAAAAAAAAAAAAAAAAAAAAAAAAAAAAAAAAAAAAAAAAAAAAAAAAAAAAAAAAAAAAAAAAAAAAAAAAAAAAAAAAAAAAAAAAAAAAAAAAAAAAAAAAAAAAAAAAAAAAAAAAAAAAAAAAAAAAAAAAAAAAAAAAAAAAAAAAAAAAAAAAAAAAAAAAAAAAAAAAAAAAAAAAAAAAAAAAAAAAAAAAAAAAAAAAAAAAAAAAAAAAAAAAAAAAAAAAAAAAAAAAAAAAAAAAAAAAAAAAAAAAAAAAAAAAAAAAAAAAAAAAAAAAAAAAAAAAAAAAAAAAAAAAAAAAAAAAAAAAAAAAAAAAAAAAAAAAAAAAAAAAAAAAAAAAAAAAAAAAAAAAAAAAAAAAAAAAAAAAAAAAAAAAAAAAAAAAAAAAAAAAAAAAAAAAAAAAAAAAAAAAAAAAAAAAAAAAAAAAAAAAAAAAAAAAAAAAAAAAAAAAAAAAAAAAAAAAAAAAAAAAAAAAAAAAAAAAAAAAAAAAAAAAAAAAAAAAAAAAAAAAAAAAAAAAAAAAAAAAAAAAAAAAAAAAAAAAAAAAAAAAAAAAAAAAAAAAAAAAAAAAAAAAAAAAAAAAAAAAAAAAAAAAAAAAAAAAAAAAAAAAAAAAAAAAAAAAAAAAAAAAAAAAAAAAAAAAAAAAAAAAAAAAAAAAAAAAAAAAAAAAAAAAAAAAAAAAAAAAAAAAAAAAAAAAAAAAAAAAAAAAAAAAAAAAAAAAAAAAAAAAAAAAAAAAAAAAAAAAAAAAAAAAAAAAAAAAAAAAAAAAAAAAAAAAAAAAAAAAAAAAAAAAAAAAAAAAAAAAAAAAAAAAAAAAAAAAAAAAAAAAAAAAAAAAAAAAAAAAAAAAAAAAAAAAAAAAAAAAAAAAAAAAAAAAAAAAAAAAAAAAAAAAAAAAAAAAAAAAAAAAAAAAAAAAAAAAAAAAAAAAAAAAAAAAAAAAAAAAAAAAAAAAAAAAAAAAAAAAAAAAAAAAAAAAAAAAAAAAAAAAAAAAAAAAAAAAAAAABQTtWxuZGZqamlpa2t7RPQA9tbW0tLU1MzI3NjVb+BAADHGJibXz7RXNy8/IUzl6FHvvrDtrnY3F6enxvwGwkA8KBk32puikdC0mhuyXcAgK+Mj2y1RCLB5vuJ+YWaX1MAoOSGF+ZPNKQhodtsTk1U/L4CAGU1UN/2cAzxPAO/MzPktxYAKJ/xmR1/85TY2n11aszvLgBQJqNLHmonUq0l7Q4AlMTgzKr6I+bP3VvzXjUDACSvNrF1SvkRfbufqHvRDACQssklr5AhEYtL/qoqAJCq0a0z/j4qCX3svj3qtxoASNDcjtIjNU1PzAAAianU/YVUktQa8cVMAEBC2T7j0XbSfdh9ZtjvOACQhFp9UdyR9qfufs0BgARMeEiG5K3O+U0HACI3ekLUUYq/prrgtx0AiNjQ9jVFRzmc2fZ1qgBArGojm3KO8tic97dUAYAojXq4nbI96u4bmQCA+FSnfUsq5XteZrnqdx8AiItXQFJOi+t++wGAiFS3BBxlte1DdwAgGhM+bqfMH7pPuAEAQBSGpzzdTrmfdJ/2ehkAIAKTTeFG2TUnXQIAIHR1726Hy5sjbgEAELThJckGn9vyuAwAELABj8nAF4/LDLoIAECoRr1NBr60OOYmAABhWvd4O9z9oHvdVQAAAlSbEmrwddM1lwEACE3lhEqDe21X3AYAICxVfy0VHvRXVKuuAwAQksHVMxeA+60OuA8AQDiGWvoMHuhya8iFAABCMb4oz+Aoi+NuBAAQhjHdDg/RGHUlAIAQLGxelmag3AGAwI02dBk89DH3yw1fogoA9N14w+ftcFy6NzznDgD02aTn2+H4cD+z6N0yAEBfDXgPJLSl5X3uAEAfDa7qMWjvOfdV36EKAPRNddXz7dCuZsXNAAD6o3ZCi0H7H7pvOxoAQH9MSzHoxJSrAQD0Q/2aEINOnKm7GwBA7/nCVOjUpq9QBQB6bsAL3KFji14KCQD0WKXp83bonFfLAAA9tqXAoBtbrgcA0EszPm+H7oy4HwBA74xuyi/oypnNSRcEAOiVassH7tD1Y+7DbggA0CMecIfuXZ52QwCA3qhLL8jytMyEKwIA9MJAQ3lBFouD7ggA0AMndBdkc8IdAQCKN6K6IKu6SwIAFM2DMpBdw8MyAEDR9jQXZHbZF6gCAAVb9wZ3yMG1OdcEAChSZVFxQR4WK+4JAFCgaR+4Qz6m3BMAoDjjp+QW5POU++a4iwIAFGbHB+6QFy9zBwAKs661ID/rbgoAUIzhltSC/LSGXRUAoBBTSgvyfMx93lUBAIow0PCEO+SpMeCuAAAF2NJZkOsn7peX3RUAIH+jZ4QW5OvMqMsCAOSuqbIgb02XBQDIW11jQf7qbgsAkK/KosSC/J+VWay4LgBArqYlFhRhynUBAPI0tCmwoAibQ+4LAJCjbX0FxdhyXwCA/CyclldQjO8tuDAAQF5qq74zFYqyWnNjAICcjGgrKMxlr4QEAHJSXfSBOxRnserKAAC5WFJWUOAn7penXRkAIA+TXgUJhTo16c4AADk4oaug2M/ct90ZACC7iWu6Cop1bc6lAQCyGl5VVVD0R+5eCQkAZDZz2StloPByn3FrAIBsBhuaCooP98agawMAZLLs83bohSXXBgDIYuyUoIJeODPu3gAAGex4wh16Y8e9AQC6t67boVfWXRwAoFuVlnCHXmlV3BwAoEtTsh165vK8mwMAdGdgU0tB72wOuDoAQFe2lBT08iP3ZVcHAOjGwmklBb10etTdAQC60NRR0NuP3JvuDgDQubq/mQq9Vnd5AIBOVRZFFPTaoldCAgCdmvaBO/TelNsDAHRm0qsgoQ82h1wfAKAj298D+mDL9QEAOjHxfQEFfbHg/gAA7autyifoj9WaCwQAtG1EPUG/jLhAAEC7qg3xBP2yWHWDAIA2LWkn6JcLl6fdIACgPeOnxBP0z+akKwQAtGVHOUE/P3Pfc4UAgHbMCSforzl3CAA43nBLNkFfnWkNu0QAwLHmL+gm6LMZlwgAOM6gV0FC3zUG3SIA4BjLl0UT9N2SWwQAPNyYV0FCAE6NuUYAwEOt+MAdQrDjGgEAD1PXSxCEC+vuEQBwtMriGcEEQWhVXCQA4EhTagkCcXneRQIAjjKwqZYgFI0BNwkAOMKWVoJwbLlJAMCDLZyWShCOM6OuEgDwQE2lBCFpukoAwIOMXBBKEJS6uwQA3K+yKJMgLIteCQkA3G/ad6ZCaKZdJgDgXpNeBQnB2RxymwCAe+x5wh3Cs+02AQBfN/F9iQThOT3hOgEAd6utKiQI0WrNfQIA7jKjjyBMI+4TAPCVakMeQZg2qi4UAPClJXUEgbq85EIBAF8YP6WOIFSnxt0oAOCvdrQRBOv0CTcKAPiLOa9wh5DNuVIAwOeGW8IIQtYadqcAgM/M6yII24w7BQA88sigV0FC4BqDLhUA8MiWKoLQLbtUAMCYV0FC8E6NuVUAUHorl0URBG/FrQKAsqt7FSSE78LlddcKAMqtsnhaE0EEFivuFQCU2pQegiicmXKvAKDMhjb1EMRhc8jFAoAS21ZDEIstFwsAymvBA+4QjdMLbhYAlFWtqYUgGpebNVcLAEpqxKsgISIX6q4WAJRTZVEJQUwfuS9W3S0AKKUlIQRxfeQ+7W4BQBlNehUkRBbum5MuFwCU0J4n3CE22y4XAJTPxPdFEMTm+xNuFwCUTW3VB+4Qn1WvhASAsplRQBDhU+6XR1wvACiXakMCQYwag+4XAJTKsv6BOC25XwBQJuOn5A/E6dS4CwYAJbKjfiDWx9xPuGAAUB7r4gfite6GAUBZDLekD8T7kXtr2BUDgJKYv3wNiNe8KwYA5TDQED4QsQuNAXcMAEphS/hA3OW+7I4BQBmMntE9ELczoy4ZAJTAiifcIXZNlwwA0le/IHog+o/c624ZAKSusqh5IH6LFdcMABI3rXggBVOuGQCkbWhT8EAKNofcMwBI2vb3gSRsuWcAkLKF03IH0nB6wUUDgHTVmmoHUgn31ZqbBgDJGrmgdiAZI24aAKSq2pA6kIwLG1VXDQASteQJd0jItWlXDQDSNH5K6UBK4b456a4BQJJOnFM6kJRtdw0AUjSnciAx5+ZcNgBIz3DLE+6QmpZXQgJAemY0DiTnzIzbBgCpGfQqSEhQY9B1A4DELCscSNGS6wYAaRnzKkhI0qkx9w0AkrKjbyBNO+4bAKRk/bK8gUStu3AAkI5KS9xAqloVNw4AkjGlbSBd824cAKRiYFPaQLKuNQZcOQBIxJa0gZTLfdmVA4A0LJxWNpCy06PuHAAkoalrIG1Ndw4AUlBXNZD6R+51lw4A4ldZvCZrIHGLXgkJAPGb1jSQvim3DgBiN+RVkFACm0OuHQBEblvRQAlc23LtACBuE+cUDZTB6Qn3DgBiVlvVM1COcF+tuXgAELEZ370EZTHi4gFAvKoNMQMlcWGj6uYBQLSWfOAOpXFt2s0DgFiNn9IyUJ5w3xx39QAgUjs+cIcy2XP1ACBOczoGymXO3QOAGA23ZAyUS2vY5QOACM2rGCiZ0zMuHwDEZ9CrIKF0GoNuHwBEZ1nDQOlcW3L7ACA2Y6euiRgonVNjrh8ARGZFwUAZ7bh+ABCX+vcEDJTSuvsHADGpLMoXKOdT7q2KCwgAEZnynalQVvMuIADEY2BTvEBJXWgMuIEAEI0t8QLlfVhmyw0EgFgsnL4ClNW506OuIABEoildoMyariAAxGFEt0C51d1BAIhBZVG2QLkteiUkAMRgWrVA2U27hAAQvslN0QJltznkFgJA8PY0C7DtFgJA6CbOSRbg3IRrCABhq60qFuDK6dWaewgAQZsRLMDnRtxDAAhZtSFXgM9c2Ki6iAAQsCW5AvzZtZMuIgCEa/yUWgH+4tS4mwgAwdrRKsAXTriJABCqOaUCfGXdVQSAMA23hArwldawuwgAQZrXKcBdrs24iwAQooHGNaEC3KUx4DICQIC2VArwdcsuIwCEZ8yrIIF7nBp1GwEgOCsaBbjH6abbCAChqUsU4H5eCQkAgaksChTgfosV9xEAgjJ9RqAA9zs35T4CQEiGNs8B3O/s5pALCQAB2T6vT4AHlvuWCwkA4VjQ7cARzi+4kQAQilpTmwBHadZcSQAIxIgyAY70vborCQBhqC4qE+Boi1V3EgCCcFKXAA8z7U4CQAgmvQoSeKjNSZcSAAKwp0qAh9t2KQGg/yY0CXCMsxNuJQD0W21VkwDHuLLqlZAA0G8zVzQJcGy5j7iWANBfgw1FAhyvMeheAkBfLZ8WJEAbltxLAOin8V05ArTj1LiLCQB9tOMJd6A9Oy4mAPTPnBYB2rXuZgJAvwy3pAjQrtawqwkAfTKlRID2zbuaANAfA14FCXSgMeBuAkBfbOkQoANXlt1NAOiH0VM6BOjEqVGXEwD6YEWFAB0523Q5AaD36t9TIUCH6m4nAPRaZVGCAJ1+5L5YcT0BoMemz50VIUCn5T7legJAbw1tKhCg83DfHHI/AaCntgUI0I0t9xMAemnCczJAd5+5L7igANA7tVX1AXSnWXNDAaBnRrQH0K0RNxQAeqW6cUF7AF3aqLqiANAjS1ekB9Cta9OuKAD0xrhXQQIZbE66owDQEyd0B5DBlW13FAB6YU52ANnMuaQAULzhlugAsn3kvuqVkABQvPnTvnwJyFjuM24pABRtsKE5gKwag64pABRsWXEA2S25pgBQrLFTggPI7tSYewoAhVrRG0AedtxTACjSutoA8rHuogJAcSqt76kNIBetipsKAIWZuiI2gJzMu6kAUJSB2dNaA8hJY8BVBYCCbCkNIDcXll1VACjGwr7SAPJzetRdBYBCNHUGkKOzTXcVAIow4gF3IF91lxUA8ldZFBlAvh+5L3olJADkb1pkAHmbclsBIG9DmxIDyNvmkOsKADnbVhhA/rZcVwDI18RZgQHk7/yE+woAeaqt6gugCKs1FxYAcjSjLoAinD094sICQH6qDe9wB4qxUXVjASA3S55wBwpyYdqNBYC8jO9qC6Aom5OuLADkZEdZAIW5sufKAkA+5oQFUKQ5dxYA8jDckhVAkR+5rw67tACQg3lZARRb7jMuLQBkN9hQFUCxGoNuLQBktnxFVAAFW3ZrASCrsVOSAijY2VNjri0AZLTiA3egeDuuLQBkU9cTQA9cWXdvASCLSssH7kAvtCouLgBkMHXuLEAPXJl3cQGgewOzwh3ojcaAmwsAXdvSEkCvbLm5ANCthX0pAfTK/qirCwDdqTWVBNA7TWcXALozoiOAXqq7uwDQjcqijAB6adErIQGgG9PeKAP01rTLCwCdm5wVEUBPnd8ccnsBoGN7IgLotW23FwA6NXFVQgC9dnXC9QWAztRWFQTQe6s19xcAOjKjH4B+GHF/AaAT1cZ5/QD0QWPQBQaADizpdqAvzp10gQGgfeO76gHoj91xNxgA2rajHYB+feS+5wYDQLvmpAPQP+uuMAC0Z7glHID+aQ27wwDQlnndAPTTjDsMAO0YaMgGoI/ONQZcYgBow5ZXQQL9tewSA8DxxrwKEuiz/VG3GACOtXJFNAB9tuIWA8Bx6ooB6LvveSUkAByjsnZOMgB9t1ZxjwHgoab0AhCA01PuMQA8zNCsXgBCMDvkIgPAQ2yrBSAMWy4yABxtYV8sAGHYX3CTAeAotaZWAAJxpVlzlQHgCCNSAQjGubqrDAAPVl1UCkA44b5RdZcB4IFOCgUgJNPuMgA8yOSmTABCsjvpMgPAA+ypBCAs2y4zANxv4qpIAMJydcJtBoB71VY1AhCaVa+EBIB7zSgEIDhXRlxnAPi6wcZ5iQAEpzHoPgPA1yzrdiBA55fcZwC42/iuPgBCtDvuQgPAXXbUARCkK3suNAB8ZV0cAIE6t+5GA8AXhlvaAAhVa9iVBoC/mlIGQLjmXWkA+IuBhjAAwtUYcKcB4M+2dAEQsmV3GgA+N7ovC4CQ7Y+61ADwmaYqAMLWdKkB4JFH6poACNz5ulsNAJVFTQCEbrHiWgNQetOKAAj/I/cp1xqAshvaPC8JgODNDrnXAJTcth4AYrDlXgNQbhNX5QAQg/0FFxuAMqutqgEgDqs1NxuAEhvRAkAsRtxsAMqruiEFgEic26i62gCU1pIUAOIx7WoDUFbju0Ig0U8mP3njtedffpBXX/vglWJ+5kcfHPEjn3/tg4+K+bd85YPXXj3iR77xiT8FKdqddLcBKKm9c0IgSbd/d3BweHCk1z/I/0e+9+zh0T/y8ODOe/n/yA9eP/Lf8PCzf5jf3fbHO0Hb7jYA5TQnbJL00e8OjnH4+u2cP/p+9rgfeXAn5w/6b9885t/x4PDlj/xhSM+cyw1AGQ23fGdqkh+33zw43q038vy/tvdutPEjb+T6PwsfHLbxI2++4v9Nk+OVkACU0rxuT9C5V24dtOWNHLv9sK2feJhjuX/Q3r/krVf8iUjOjNsNQPkMNiRAis/JvH3QZtPmltHt/q/CwY3cMvp2mz/x4HV/RzU5jUHXG4DSWVYAKXq53aQ9vPlkTj/yTts/8oWf5fMTP2n3/04ODj686s9EapZcbwDKZmzX478Jun3YdtIevPPLfB6Uaf8nHryUT7n/ov2fePhH5Z6a3TH3G4CSWbH/pf7A/fO/uvliLuX+bAc/8ic/yqPcz93o4Ed++CPlnpod9xuAcqmfNv8p6iRpD97No9w/6uQnHv4pj3K/3cmPfPtF5Z6cdRccgDKptM6ToI6S9uC56y/+MvOP/KCjH/nW9Rd/lvlHvtbRj3z3+otP+JORllbFDQegRKZsf5I6q+gfXs+h3F/r8P8Vcij3lzv8fwXlnpx5NxyA8hiYNf0putpZRf/H9ezlfvbVjn7kh9dzKPc7Hf3Id64r99ScbQy44gCUxpbpT1Nn4f7C9RzK/Z87+pHPX8+h3F/v9EN+5Z6cZVccgLJY2Df8wv2v4Z613LsI96zl3kW4K/fE7I+64wCURNPuC/cvwz1juXcT7hnLvZtwV+6JabrjAJRD3eoL97vCPVu5dxXu2cq9q3BX7ol95F53yQEog8qG1Rfud4d7pnLvLtwzlXt34a7c07LmlZAAlMG0zRfuXw/3LOXeZbhnKfcuw125J+XclFsOQPomvQpSuN8b7hnKvdtwz1Du3Ya7ck/K7JBrDkDyti2+cL8v3Lsv967Dvfty7zrclXtKzm655gCkbuKqxRfu94d71+Xefbh3Xe7dh7tyT8nVBfccgLTVVu29cH9QuHdb7hnCvdtyzxDuyj0hT63WXHQAkjbzlL0X7g8M9y7LPUu4d1nuWcJduadU7iMuOgApq3oVpHA/Kty7K/dM4d5duWcKd+WekI2qmw5AwpbOGXvhflS4d1Xu2cK9q3LPFu7KPSEn3XQA0jW+a+qF+9Hh3k25Zwz3bso9Y7gr93TsTrrqACRrxxPuwv1h4d5FuWcN9y7KPWu4K/d07LnqAKRqzs4L94eHe+flnjncOy/3zOGu3NMx564DkKbhlg/chfsx4d5xuWcP947LPXu4K/dkrA677AAkaV63C/djw73Tcs8h3Dst9xzCXbkn4uzZGZcdgBQNNsy8cD8+3Dss9zzCvcNyzyPclXsqGoNuOwAJWrbxwr2dcO+s3HMJ987KPZdwV+6JeGrZbQcgPWP7Nl64txXuHZV7PuHeUbnnE+7KPRG7Y647AMlZsfDCvc1w76Tccwr3Tso9p3BX7onYcd0BSE3dvgv3tsO9g3J/Oadw76Dc8wp35Z6IdfcdgLRU1sy7cG8/3Nsv99zCvf1yzy3clXsaWhUXHoCkTFl34d5JuLdd7vmFe9vlnl+4K/c0zLvwAKRkaNa4C/eOwr3dcs8x3Nst9xzDXbmn4GxjwI0HICFbxl24dxjubZZ7nuHeZrnnGe7KPYlyf8yNByAdC14FKdw7Dvf2yj3XcG+v3HMNd+Wegv1RVx6AVNSall24dx7ubZV7vuHeVrnnG+7KPQXNmjsPQCJG7Lpw7ybc2yn3nMO9nXLPOdyVewrq7jwAaagsPmXXhXs34d5Guecd7m2Ue97hrtwTsFF16QFIwrRVF+5dhvvx5Z57uB9f7rmHu3JPwLRLD0AKJmfPWXXh3mW4H1vu+Yf7seWef7gr9/jNTrr1ACRgz6YL9+7D/bhyLyDcjyv3AsJducdv260HIH4TV026cM8Q7seUexHhfky5FxHuyj16VydcewBiV1u16MI9U7g/vNwLCfeHl3sh4a7cY3d21SshAYjdjEEX7hnD/aHlXky4P7Tciwl35R69EfcegLhVG+ZcuGcN94eVe0Hh/rByLyjclXvknmoMuvgARG15354L98zh/pByLyrcH1LuRYW7co+93JdcfABiNr5rzYV7DuF+dLkXFu5Hl3th4a7cI7c77uYDELEdWy7ccwn3I8u9uHA/styLC3flHrk9Nx+AeM1ZcuGeU7gfVe4FhvtR5V5guCv3yK27+gDEarhlyIV7XuF+RLkXGe5HlHuR4a7c49YadvcBiNS8HRfu+YX7g8u90HB/cLkXGu7KPWpnZ9x9AOI02DhryIV7fuH+wHIvNtwfWO7Fhrtyj1pjwOUHIEqPWXHhnmu4P6jcCw73B5V7weGu3KO27PIDEKNRr4IU7jmH+wPKvehwf0C5Fx3uyj1mu6NuPwARWrHhwj3vcL+/3AsP9/vLvfBwV+4RO7fi9gMQn7oH3IV7/uF+X7kXH+73lXvx4a7cY+aVkABEp7JmwIV7AeF+b7n3INzvLfcehLtyj/gj97WK+w9AZKYNuHAvJNzvKfdehPs95d6LcFfuEZty/wGIy9Cs+RbuxYT718u9J+H+9XLvSbgr93jNDlkAAKKyvW++hXtB4f61cu9NuH+t3HsT7so9XlsWAICYLOh24V5cuN9d7j0K97vLvUfhrtyjtb9gAwCIR63plTLCvcBwv6vcexXud5V7r8JduUerWbMCAERjxHIL90LD/aty71m4f1XuPQt35R6rc3UrAEAsqhuWW7gXG+5flnvvwv3Lcu9duCv3WG1U7QAAkThpt4V70eH+Rbn3MNy/KPcehrtyj9W0HQAgDpOz5+y2cC863P9a7r0M97+Wey/DXblHanbSEgAQhT2rLdx7EO5/Kfeehvtfyr2n4a7c43R22xIAEIOJq1ZbuPci3P9c7r0N9z+Xe2/DXbnH6eqELQAgfLVVmy3cexPun5d7j8P983Lvcbgr9zg/cl/1SkgAwjfjFe7CvVfh/lm59zrcPyv3Xoe7co/TiDUAIHSDDYMt3HsW7tdf7Hm4X3+x5+Gu3KPUGLQHAARu2V4L9x6G+/Vf9Tzcrz/b83BX7lFasgcAhG1s11zH66MPXnv5d1nc7Chpb/wkB2939CPfzuNH3uroR97M9LNe/cP7f1LukdodtwgABG3HE+7ReuPOZ5l5eEBgDl/4jXKP045FACBk608RqdvPSuRgvfDuM8+8eNEf0uis2wQAwlVpnbfVcfrAR+1Bf+r+vnKPUatiFQAI1pSljtRr2jhwzyn3CD0xbxUACNVAw1JH+nm7MA7eW8o9Qo0BuwBAoLbsdKTPt3tOJny3/qjc43N+2S4AEKbRfTsdpzuyOAL/8Yxyj8/+qGUAIEhNKx2n90RxFF5S7hGGe9MyABCiupGO1O80cRR+/oxyj88TddsAQHgqGzY6Tp94wj2Sp9z/TblH+JT7mldCAhCeaRMdqTckcUTPyij36ExZBwBCMzRroON01TvcY/HOM8o9QrND9gGAwGzb51g971GZSPzfZ5R7jLbsAwBhmXjCPMfqZUUcif/1jHKP0cUFCwFASGqrwj1a/6yII/H8M8o9Ss2ajQAgICO2WbjTu3BX7nEZsREAhKO6cdY2C3d6F+7KPSobVSsBQDCWLLNwp6fhrtyjMm0lAAjF+K5hFu70NtyVe0xmJ+0EAIHYs8vCnV6Hu3KPyPltOwFAGObO22XhTs/DXbnHZM5SABCC4ZZRFu70IdyVe0RWh20FAAGY3zfKwp1+hLtyj8iMrQCg/wYbJlm4059wV+7ReKIxaC0A6Ltlkyzc6Ve4K/d4yn3JWgDQb2NeBSnc6V+4K/do7I7ZCwD6bMUeC3f6GO7KPRo79gKA/qpbY+FOX8NduUdj3WIA0E+VNa+UEe70N9yVeyxaFZsBQB9N2WLhTr/DXbnHYt5mANA/A7M+cBfu9D3clXskGgNWA4C+2bLEwp0Awl25R+IxqwFAvyz4vF24E0S4K/c47I/aDQD6pGmHhTthhLtyj8LFpt0AoD9GfOAu3Akl3JV7HOqWA4B+qGwYYeFOMOGu3KOw5pWQAPTDtA0W7gQU7so9ClO2A4Dem5w1wcKdkMJduUfg/OyQ9QCg57ZNsHAnrHBX7jF43HoA0GsTTxhg4U5g4a7cI3B1wX4A0Fu1Vfsr3Aku3JV7BFZrFgSAnpqxvsKdAMNduUdgxIIA0EvVjfPWV7gTYLgr9/BtVG0IAD20pNuFO2GGu3IP3vmTNgSA3hnftb3CnUDDXbkHb3fSigDQMztXSYdwjybc/6FN13/mj3XY9qwIAL0yZ3fLHO63bpCPW0WFu3IP3pwdAaA3hltmt8zh/tI/kI/fFBbuyj1w+48OWxIAemLe7Ap3wg535R648zOWBIBeGGxYXeFO4OGu3MP2RGPQlgDQA8vnra5wJ/RwV+6BW7YlABRvbNfkCnfCD3flHvZH7rtj1gSAwq34wF24E0O4K/ewrVgTAIpWt7fCnTjCXbkH7fy6PQGgWJW1fYMr3Ikj3JV70NYqFgWAQk1ZW+GuuKMJd+Ue9Efu8xYFgCINzVpb4a644wl35R6y2SGbAkCBHre1wl24xxTuyj3kj9wfsykAFGfBA+7CXbjHFe7KPWD7C1YFgKLUmpZWuAv3yMJduQesWbMrABRkxM4Kd+EeXbgr94DV7QoAxahsmFnhLtzjC3flHq6NqmUBoBAnPeEu3IV7jOGu3MM1bVkAKMKkV0EKd+EeZ7gr92DNTtoWAAqwZ2OFu3CPNNyVe7Aety0A5G/iCRMr3IV7rOGu3IM1YV0AyFtt1cAKd+Eeb7gr91CteiUkAHmbsa/CXbjHHO7KPVDnR+wLAPmqbpw1sMJduMcc7so9UI1BCwNArpbOm1fhLtzjDnflHqiTFgaAPI3vGlfhLtxjD3flHqbdcRsDQI52niBZHYf70+Sj43DP/iOv/9If+PBc3bMxAORn7qptFe7CPYFwV+5hWrcyAORluGVYhbtwTyLclXuILraG7QwAOZk3rIF65bWXf3czq1vCPZJwv5X5v/ULP3/uXeUeohk7A0A+BhtmNUjv3Tw4POg94d6vcM/H62+96XcnOI0BSwNALh6zqiH66M5Bfwj3uMP94OCFj/z6BGfZ0gCQh7Fdoxqg2zcOhLtw787bt/0ChWZ31NYAkIOVp4xqgE+3963bhXv84X5w4xW/QqFZsTUAZFe3qAH65OaBcBfuGR50/8QvUWDOeyUkAJlV1ixqgD48EO7CPYs/eLdMaNYq9gaAjKbtaYgPyhwKd+Geya0fK/fQTNkbALIZmt23p+F57UC4C/dsfuF97qGZHbI4AGTyuDUN0U3hLtwzetZ3qAZny+IAkMWCz9tD9NGBcBfuWf1JuYdmf8HmANC9WtOWhui2cBfumb37tHIPTbNmdQDo2oglDdJ7wl24Z/bp08o9OHWrA0C3qhuGNEhvCHfhntlbTyv34GxU7Q4AXTp51ZAKd+Gecrgr98BM2x0AujM+a0aFu3BPO9yVe1hmJy0PAF3Ze8qMCnfhnni4K/ewbFseALoxZ0OFu3BPP9yVe1B+NmF7AOjc8KPe4S7chXsJwl25B2XVKyEB6NyMbhfuwr0U4a7cQ/LUiPUBoFODjYsmVLgL91KEu3IPycag/QGgQ8u6XbgL97KEu3IPyZL9AaAzY7vmU7gL99KEu3IPyO6YBQKgIyvWU7gL9xKFu3IPyLctEACdWLedwl24lyrclXtA1m0QAO2rtEyncBfu5Qp35R6Mi62KFQKgbVP+ZqpwF+5lC3flHo55KwRAuwZmDadwF+6lC3flHozGgB0CoE1bF335knAX7uULd+UejGU7BEB7Rt80m8JduJcx3JV7KN4ctUQAtKXpCXfhLtzLGe7KPRRNSwRAO+o2U7gL97KGu3IPw8Un67YIgONVNoymcBfupQ135R6INa+EBOB40xZTuAv3EoT7T59W7kGbskYAHGfIqyDDd1u4C/fMPn5auQdtdsgeAXCMbXsZvKdeEe7CPbMfP63cw7ZljwB4uAmvgozAJ4fCXbhndOvfnlbuYdtfsEgAPExt1VrG4J+Fu3DP6OcP/UdT7iGE+zdqNgmAhxgxlv52qnAvRbi/9bRyD77cR2wSAEerehVkJE+53xTuwj2T1//xaeUevI2qVQLgSEuWMhLvCXfhnsmnx/7TKfcATFslAI4y7lWQ0XheuAv3DP7Qxj+ecu+7q7OTdgmAI3z7vKWM5mGZF4S7cO/af/zj08o9inLfs0sAPNicmYzIJ88Ld+HepR/+V3v/gMq97y7OWSYAHmT40atmMh4/e+L9t4W7cO/Czbfa/idU7n23OmybAHiAeRsZ2dMy//23dw6Fu3DvyOFP3vm3Dv4RlXvfzdgmAO432LhoIyPzo6d//9L7v30uo9eFeyTh/mzW/9S/fevjP3X4z6jc+60xaJ0AuM+yhYyx3HPwK+EeSbg/349/SOXeb0vWCYB7je0ayJKWu3AX7so9YLtj9gmAe6zYx7KWu3AX7so9YBd37BMAX1fft49lLXfhLtyVe9DWLRQAd6usGcfSlrtwF+7KPWitio0C4C5TPnAvb7kLd+Gu3MM2b6MA+MrArGksb7kLd+Gu3MPWGLBSAHxpyzKWuNyFu3BX7oF7zEoB8IUFD8qUudyFu3BX7mHbf3PUTgHwV80nLWOJy124C3flHrqmnQLgL0asYqnLPaxw//07H/7qzrMhuPOrD9//k3BX7iG4eLFuqQD4XGXDkzKlLveQwv03dw4PQnL4wkvCXbmHYM0rIQH43PRFo1jqcg8n3N994SA8P/mjcFfu/Xd+ylYB8Mgjk14FWfJyDybcP71xEKIbvxHuyr3/ZoesFQCP7FnEkpd7KOH+zuFBmA7fF+7Kvf8et1YATLxpEEte7oGE+0uhdvtn5f6xcFfufffmhL0CKLvaqj0se7mHEe4/vnEQrrf/JNyVe789uVqzWAAlN+Nvppa+3MMI91cPQvYH4a7c++7iiMUCKLfqhjUsfbkHEe7vHgYd7oc/Fu7Kve82qjYLoNSWnjKGpS/3IML9w4Ow/UK4K/f+O2mzAMps/LsXSc2PftChTsP9//ygADcDD/dni/iX/pdOw/0HgXjml37P+mJ23GoBlNiOJVTuQYT7uweh+71wV+79t2e1AMprzg4q9zDC/afBh/vHwl25B2DdbgGU1fCjT9hB5R5EuL8TfLj/Wrgr9wA86pWQAGU1YwWVeyDh/ovgw/23wl25h8ArIQFKqrJhBJW7cBfuyj0maxXbBVBKUzZQuQt34a7co/LUvO0CKKPBxpNGULkLd+Gu3KPS8C1MAGW0ZAGVu3AX7so9Mk9OWy+A8hmatYDKXbgLd+Uem9kh+wVQOo/ZP+Uu3IW7co/Psv0CKJvxvzV/yl24C3flHp/vTlowgJJ53Popd+Eu3JW7j9wBCN7krlfKKHfhLtyVe5RPuQ/aMIBSWbZ9yl24C3flHqcpGwZQJgNeKaPchbtwV+6R2vD1qQBl4ktTlbtwF+7KPVojVgygPIY3DJ9yF+7CXbnH6tGaHQMojbrdU+7CXbgr92jtr9sxgNJoeqWMchfuwl25x2vFjgGUxfibZk+5C3fhrtzj9ea4JQMoiZNWT7kLd+Gu3GM2bckAyqHmr6Yqd+Eu3JV71Nb89VSAcli3ecpduAt35R63CVsGUArbJk+5C3fhrtyj9sRjtgygDKq+NVW5C3fhrtwjN1u1ZgAlMGPxlPvX/Fy4C3flHp0nfXsqQBk0LZ5yF+7CXbnHzqvcAUpg0kvclbtwF+7KPXrfGbBnAMnzpIxyF+7CXbknwLMyAOlbMXfKXbgLd+Uevz17BpA675RR7sJduCv3FMxWLBpA4urWTrkLd+Gu3FOwbtEAErdl7JS7cBfuyj0FyxYNIG21DWPHj4S7cFfu8Xtyw6QBpG3C2HFvuQt34a7c4zRq0wCSNm3quLfchbtwV+5xmrJpAEn71r6t455yF+7CXbnHyZenAiRt2Msgua/chbtwV+5xPuQ+W7NqAAlbMHXcV+7CXbgr90iNWTWAhM0bOu4rd+Eu3JV7pGasGkDC9gwd95W7cBfuyj1Sj1s1gIR5izv3l7twF+7KPVJrVg0gXeN2jvvLXbgLd+UeqyG7BpCsETPH/eUu3IW7co9V3a4BJGvpCTvHfeUu3IW7co/VSbsGkKwVM8f95S7chbtyj9WeXQNI1saTdo77yl24C3flHit/OxUgWdU3zVxaPnnv1TtvH/Y6YYV7v8I9s8Obd3746T8p93Tsf6di2QAS5XtT0/Lkczf6krDCPdpw/7Mbz/2Tck/HqGUDSJSXyqTkZ7dv9ilhhXvc4X5wcPNd5Z4Mr5UBSNWSkUvIe7cOhLtw7/JD90+VeyqmLRtAonaMXDpuHx4Id+HerVsfK/dEeK0MQKrWjFwyPrpxINyFe/fe/r1yT8Ojlg0gUbNGLhkvHwh34Z7FD71bJgn7f2PZANI0aOSS8cqBcBfu2d4M+UflngbvgwRI05iJS8aHwl24Z/QH38SUhknbBpCkOROXjLeFu3DP+k5I36GahgnbBpAkr3H3pIxwF+5f+r1yT4IXuQOkaepJG5eI28JduGf27g+UewpmbBtAknz/UjLeE+7CPbN/+YFyT8FJ2waQpG0Tl4o3hLtwz+ytHyj3FGzZNoAkrZg44S7chXu/w1255+vbtg0gSU0TJ9yFu3Dve7gr91yt2DaAJH3DxAl34S7c+x/uyj1PTdsGkKRH922ccBfuwr3/4a7cc/QN2waQpDUTJ9yFu3APIdyVe272H7VtAEnasHHCXbgL9yDCXbnnZs22ASSpYeKEu3AX7mGEu3LPy4ZtA0jSrIkT7sJduAcS7so9J9+0bQBJ+s6TJKK/4f4/L+Uv/HD/3wX8W/c33H99qc/+8e/9Kudg1rYBCHeEu3AX7spduAPQH7MmTrgL95DC/aclD3flngOPygAk6ps2TrgLd+EeULgr9xz4y6kAadowccJduAv3kMJduWfndZAAaVozccJduAv3oMJduWfmC5gA0vSoiRPuwl24hxXuyj2rb9g2gCR9w8QJd+Eu3AMLd+We0bdsG0CSvmXihLtwF+6hhbtyz2bFtgEkacXECXfhLtyDC3flnsm3bRtAkh43ccJduAv38MJduWfxmG0DSNKSiRPuwt03p37hp5eUewpO2jaAFNXmTVwi/va2cPeJe2YfX1LuKZgxbgBJGjFxqXhFuAv3zH58SbmnoG7bAJI0Z+KScUu4e1Qmoxv/eUm5p2DCtgEkaczEJeNl4e4T94xevXRJuadg0rYBJKlq4pJ5yP094e4T94w+vaTcU/D3FdsGkKZZI5eMZ4W7T9wzufOvl5R7Cr5p2QAStWbkknFbuPvEPYvDjy9dUu4peNSyASTq20YunYdlXjsU7j5xD+tfR7n3w55lA0iUb2BKyJuvCnefuHfth5cuKfc0TFs2gER5kXtSn7k/dyjcfeLe3XMyz126pNwT4TXuAKlaMHJJlftLd4S7T9y78MK7ly4p91SMWTaARFUtYlrl/l//8uoN4S7cO/L2D//90r/+q3JPxXe8DRIgWV4rk1i5v3jpP//fxz/9dUZ3hHsk4f7C8f8xP/33h3r390E3u3LvmJfKAKRrxcwlV+45+Llwj+QZ91cvlYNyb5+XygCky2tllLtwF+7KPSEn7RpAsrxWRrkLd+Gu3BPipTIA6Zo0c8pduAt35Z6OIbsGkK4NO6fchbtwV+6pWLNqAAnbM3TKXbgLd+WeisetGkDC5g2dchfuwl25p2LGqgEkzHenKnfhLtyVezJ8bypAyoZnLZ1yF+7CXbmn4W9qVg0gZb6CSbkLd+Gu3BOxY9MAkjZt6pS7cBfuyj0NUzYNIGU1D7krd+Eu3JV7IkaNGkDa5e5N7spduAt35Z4Eb3EHSN1jxk65C3fhrtxTsGzRABL334ydchfuwl25p2DOS2UA0lareCGkchfuwl25J/D7PlsxaQCp27F3yl24C3flHr89ewaQvBlzp9yFu3BX7vEbsWcAyRsygcpduAt35R697wzYM4Dk1b5l8JS7cBfuyj12K+YMoAQ8K6PchbtwV+6elAEgAlXvlVHuwl24K/fIzVatGUAZPG7ylLtwF+7KPW6P2TKAMqjNmTzlLtyFu3KP24QxAyhHua/ZPOUu3IW7co/Zmm9NBSiJk0ZPuQt34a7cYzZtyQBKYtz6KXfhLtyVe8T+x6QlAygLr3JX7sJduCv3iHmJO0B51M2echfuwl25x2vdjgGUxrC/nqrchbtwV+7+aioAEZgyfMpduAt35R6reSsGUCKDvj1VuQt34a7cI/U3vjUVoFSWVK1yF+7CXbnH6aQNAyiVIR+5K3fhLtyVe5RmB2wYQLk8JmqVu3AX7so9RssWDKBkxr8rapW7cBfuyj0+3/XlSwA+cqes5S7chbty94E7ACHzlLtyF+7CXbl7wh2AGJyUtMpduAt35R6baesFUEKD35S0yl24C3flHpdveoc7QCn5+lTlLtyFu3KPjC9NBSinypqiVe7CXbgr95isVWwXQDmNCFrlLtyFu3KPyYjlAiip4UcFrXIPI9x/G3y4vy/clXsAHq1ZLoCymtOzyj2McP918OH+78JduQdgzm4BlNe3/5bS+Pv/+rsH6zjc/+7/t3dvv3FcB57HxWY3oSJ4p2RQhESAMkCCtyFI8BpeQUkEJL8MsIZhEbYD7EscX2I9eAYy5DjZ2bWzycCIsUAyDuKsMVlhNXGcsZBsDMXOH7dybMcX3brZ1VWnzvl85nEw07ES/c43herTuXvpz8GH+1/z/6c+ajncj7jH//zXlP4Wf8epBZCwwcf0rHIPINyP3nkt8G7/4Ei4K/fSPTbs1AJI2Vk5q9xDCPeW/0UU7U/CXbmXb9aZBZC0nsflbPLlHkS4/yLwcP/zi8JduZftcb+9BJC2rE/NJl/uQYT7S78PuttvH3nirtxL5ypIgOTLfUbNpl7uQYT7UdBfT735B+Gu3Es348ACSN7Q99Vs4uUeRrgf/TbkX186Eu7KvfS/u+POKwAWxGzi5R5IuB+9HWy3//JIuCv30i04rQDIul0JmXi5hxLu7/wy0G6//o5wV+6le6zbcQXAiROjWjbtcg8l3I+O/vetALP91kcvHgl35V66EWcVAHfVJ7Vs0uUeTrgf3bl+M7SvpV7/Y+f+cYW7cm/aZN1ZBcBneqVs0uUeULgfHf3xw9sfhBLvN998+6PXO/kPK9yVe9N6nVQAfG5dyqZc7kGF+0t3Hd25EYI7R0ef/OpIuCv3EEw4pwD4Qv9FKZtwuQcV7kkR7sq9SRf7nVMAfCGbVrIJl7twF+7KPXDTjikA/q5rXsmmW+7CXbgr97DNdzmlAPjKiJBNt9yFu3BX7mE744wC4GvqU0I22XIX7sJduQdtylWQAHxddl7HJlvuwl24K/egnXdEAfDNcp/QsamWu3AX7so9ZJuZEwqAbxq4pGMTLXfhLtyVe8AuDTqfAPi2czI20XIX7sJduQfsrAfuANyjNidjK+nf2vPXG7eFe0XC/e22fwz2HeVeOXM1pxMA9zqtgSvX7D/+/WtPtOXmMf5vhHtZ4Z6DD9748I5yr5TTziYA7qPhSshK+cH/+283nyiDcK9wuH/2X9au/1G5V8eMF2UAuK8xMVwl/3nriSeEu3A/htf+Q7lXxpiTCYD7+44arox//PHNJ4S7cD/mQ/cPlXtFnHQuAfAAg48J4so8b3/iCeEu3I9d7r9Q7pXw2LBzCYAHmRXEVfla6i3hLtzbcOuGcq+CUacSAA/U87gkroY3nhDuwr0db7lbpgIe73EqAfBgfZK4En73hHAX7u35g3IPX58zCYCHyGZEcRW8K9yFe5v+dKTcQzfjSALgocYvquIKeE24C/c2vXmk3AN3cdyJBMDDLajiCnw19QnhLtzbdUe5B27aby8B8Ajd87o4dD/4nXAX7l5yj73c57udRwA8yqgwDt6/C3fh3ra/HCn3oI04jQB4pPqkMBbuwj3+cP+XI+Uessm60wiAR+sVxsJduAt35V6uFWcRAM2YUMbCXbgLd+VepgknEQBNGXAlpHAX7sJduZfoYr+TCIDmTEtj4S7chbtyL8855xAATarNaWPhLtyFu3Ivy3yXcwiAJmVntLFwF+7CXbmX5YxjCICmNabEsXAX7sJduZdjquEUAqD5R+5j4li4C3fhrtzLcd4hBEAr/kEdC3fhLtyVexk2nUAAtGTwkjwW7sJduCv34l0adAIB0Jqz8li4C3fhrtyLN5s5gABoTe1xfSzchbtwV+5Fm+tx/gDQqtP6WLgLd+Gu3IvW5/QBoGXZjEAW7sJduCv3Ys14UQaAYxj6vkIW7sJduCv3In1/SLgDcBzfUcjCXbgLd+VepAUnDwDHMvyYRBbuwl24K/fiPDbs5AHgeGYlsnAX7sJduRdn1LkDwDHVJzWycBfuwl25F+XxunMHgOPq08gh+sF/Cnfh3rZfHCn34PQ6dQA4tmxdJYfod8JduLftDy8q99CsN5w6ABzf+EWVHKB/E+7CvW13Uv/jD6/cL447cwBox4JKDtFrwl24t+kDf/7Blfu0EweAtnTPq+Tw/Jd3hbtwb9Of/PmHVu7z3U4cANozIpO95C7cIwz3P7/k34DAyn3EeQNAm1wJGeK1Mj/4P8JduLflbX/8oZX7pKsgAWhbr04O8eupN4W7cG/DrRu/8ucfWLmfd9oA0L4JmRzgM/d/F+7CvQ0/96cfWrlPOGsAyMGAKyFDLPefCHfhflw33/OHH1q5XxzIHDYA5GBaJgfof3x0S7gL9+O9J/MXf/bBlfs5Jw0AuajNyeQA/eNfr98U7sK99cftb93wRx9cuc91OWkAyMcZlRxkuf/0r+//8JZwF+6tPGz/2Y9le4jlfto5A0BOGlMqOUg/vdscr99o123hXpFwf7vtf68//dUnL/pzD7DcpxrOGQDyMvYDgvTTF3PwVqvh/iL5aDXcf+mPrFN+9Vy5f5PHnDIA5GdTI8db7sJduFNuuX/HjTIA5GjwkkaOttyFu3Cn1HK/NOiMASBPZyVytOUu3IU7pZb7rBMGgDxlPY9L5FjLXbgLd8os98d7HDEA5Ou0Qo613IW7cKfMcu9zvgCQ9zP3GYUcabkLd+FOieU+45upAORu6LsKOc5yF+7CnfLK/btDwh2A/J0UyHGWu3AX7pRX7gvOFgA6oPsxgRxluQt34U5p5T7f7WwBoAOyUX0cZbkLd+FOaeU+4mgBoCPqk/o4xnIX7sKdssp9su4NdwA6o08ex1juwl24U1a59zpXAOiUdXkcYbkLd+FOSeW+7lQBoGPGL8rj+MpduAt3yin3i/1OFQA6Z1odx1fuwl24U065TztTAOicrGteHUdX7sJduFNKuc93OVQA6KQRcRxduQt34U4p5X7GiQJAR9WnxHFs5S7chTtllPtU3YkCQGetaOPYyl24C3fKKPfzzhMAOm1CG0dW7sJduFNCuW86TQDouIFL2jiuchfuwp3iy/3SgNMEgM47J43jKnfhLtwpvtzPOksAKEBtThpHVe7CXbhTeLnP1ZwlABQgO62Moyp34S7cKbzcTztKAChEw5WQUZW7cBfuFF3uMw0nCQDFGPs+ofvpS01rNdxvXycfb7Qa7i9RuF8915G/oGPOEQCKsimMIyr3VsOdsgj3aMr9pFMEgMIMbgvjeMpduAt3ii337WGnCADFmdXF8ZS7cBfuFFvuo5lDBIDi9FzQxdGUu3AX7hRa7hd6nCEAFKlPFkdT7sJduFNoufc5QQAoVDYji2Mpd+Eu3Cmy3NcdIAAUbOi7sjiSchfuwp0Cy/3iuDfcASjagiqOpNyFu3CnwHJfcHoAULjux1RxHOUu3IU7xZX7fLfTA4DijYriOMpduAt3iiv3EWcHACWoT4riKMpduAt3Civ3ybqzA4ASNHo1cRTlLtyFO4WVe6+jA4ByrGviGMpduAt3iir3CecGACXpv6iJIyh34S7cKajcL/Y7NwAoy7QkjqDchbtwp6ByP+fUAKAsWde8JK5+uQt34U4x5T7f5dgAoDwjirj65S7chTvFlPsZZwYAJapPKeLKl7twF+4UUu5TroIEoFTnBXHly124C3cKKffzTgwAyjUhiKte7sJduFNEuW86LwAo2cAlQVzxchfuwp0Cyv3SYObAAKBk5/RwxctduAt3Cij3s04LAEpXm9PD1S534S7c6Xy5z9WcFgCU77Qcrna5C3fhTufLvc9ZAUAAGq6ErHa5C3fhTsfLfabhDXcAQjCmhitd7sJduNPxch9zUgAQhu+o4SqXu3AX7nS63BecEwAEYnBbDVe43IW7cKfD5b497JwAIBSzYrjC5S7chTsdLvdRpwQAwei5IIarW+7CXbjT2XJ/vMcpAUA4+rRwdctduAt3OlvuvW6UASAg2boWrmy5C3fhTkfLfb3hjAAgJOMXtXBVy124C3c6We4Xxz1wByAsC1K4quV+XRFXxMcquZLlPu18ACAw3fNSuKLl/hNFXBHvieQqlvt8t/MBgMBkI0q4muX+1IeKuCL+RSNXsdxHHA8ABKc+qYSrWe43FHE13Hz9RY1cvXKfrDsdAAhPrxCuaLn/WhNXws8EchXLfcXZAECIJoRwNcv9fU1cCR/q4wqW+4QbZQAIUTZwSQhXstw//UAUV8Cbn8jj6pX7pX5HAwBhmtbB1Sx3X0/11VQ6U+7nnAsABKo2p4MrWe4vviuL/foSHSj3uS7nAgChOiODq1nun/5QGIf+zVQvylSx3E97wx2AYDWmvkv1/PSppz69LY2DdvvTpwje0TPf+qs11XAqABCuMRVc0XL/5OOb6jjcG9zfF8WVLPfzzgQAApZtquCKlvuTN94WyIF694YkrmS5bzoSAAja4LYKrmi530339974wHP3wJ61v3n7wztXn1TEVSz3S4NOBADCfuR+VgRXt9yfvBuIr7fj49a+b/l6Dlp7Of/dPD6ytV+a/W1bn/XFvytUsdxnHQgABK7nggiubLm37bethXseH9naCz6/zOMjW7uCx+vpqZb7XI/zAIDQndbA6Za7cBfufFnufU4DAIKXzWjgZMtduAt3vij3GVe4A1ABQ89p4FTLXbgLdz4v9+eGnAUAVMFJCZxquQt34c7n5b7gJACgEoYfk8CJlrtwF+78rdy3h50EAFTDrAJOtNyFu3Dnbw6cAwBURN2VkImWu3AX7nxmyVWQAFRGnwBOs9yFu3DnMztOAQAqI1sXwEmWu3AX7ty16ipIACpk/BkBnGK5C3fhzlNPXR0X7gBUyYL+TbHchbtw56mnNpwAAFRK97z+TbDchbtw56m1bicAANUyIn8TLHfhLtx5asv+A1Ax9Sn5m165C3fhznLd/gNQNb3qN71yF+7CnRXrD0D1TKjf5MpduAv35K3afgAqaOCS+k2t3IW7cE/dYr/tB6CKzonf1MpduAv31O1afgAqqTYnfhMrd+Eu3BO31mX5AaimM9o3sXIX7sI9cft2H4CKargSMrFyby3c3yg+3K8LdzppuWH3AaiqMembVrkLd+GetsPM7ANQWZvSN6lyF+7CPWmndDsAFTa4LX1TKnfhLtxTtjho8wGosrPKN6VyF+7CPWUHFh+ASuu5oHwTKnfhLtwTttRj8QGotEaf8E2o3IW7cE/YjsEHoOrlPiN80yl34S7c07WX+WoqAFU39JzwTabchbtwT9aTQ9YegOo7qXuTKXfhLtyTtWHrAYjA8LzuTaXchbtwT9Vat60HIAajsjeVchfuwj1VroIEIA71SdmbSLkLd+GeqOW6pQcgDr2qN5FyF+7CPVGuggQgFtm66k2j3IW7cE/TqpkHIBrjz6jeJMpduAv3JF3tt/IAxGNa9CZR7sJduCfJVZAAxKTLlZBJlLtwF+4pWuuy8QDEZETzplDuwl24p2jLwgMQlfqU5k2g3IW7cE/QcsPCAxCVbEXyJlDuwl24J2jFwAMQmwnJG3+5C3fhnp7L1h2A6AxckrzRl3sJ4f6WcKdUiwPWHYD4nFO80Ze7cBfuydm17QBEqDaneGMvd+Eu3FOzVLPtAMTojOCNvdyFu3BPzb5lByBKmSshYy934S7cE7PnKkgAIjWmdyMvd+Eu3BNzaNcBiNWm3o273IW7cE/LKasOQLQGt/Vu1OUu3IV7UhYHrToA8ZqVu1GXu3AX7kk5sOkARKzngtyNudyFu3BPyVKPTQcgYlmf2o253IW7cE/JjkkHIO5yn1G7EZe7cBfuCVl1FSQAkRt6Tu3GW+7CXbin4+qQPQcgdgtiN95yF+7CPR0b1hyA2GXd82I32nIX7sI9GWvd5hyA+I1q3WjLXbgL92RsecMdgATUJ7VurOUu3IV7KpbrthyAFPRK3VjLXbgL91SseOAOQBrWpW6k5S7chXsiVu04AInovyh14yx34S7c03C1344DkIpppRtnuQt34Z6GXSsOQDK6XAkZZ7m/31LS3s6joN5t6SP/lMdH/r6lj3xP5cZnrSsz4wCkIjvzHLH50ZNPXv2wtcffT+bg49Yef+fxkW+39JE/f5LobBlxABJSnxK6MZb7X1pK2t/mkVDvtfSRH13N4SP/1NJH/vdrOjc2y26UASCpR+7ndW6E5X719ZstJW0OCXXtDy1V9I0cPvLqz1v5xFuf6tzorJhwANIyoXNjfOb+RgtJ+9onuUTUmy185A9z+cRPb7XwkW/L3Ohctt8AJGZgW+dGWO6tPIz+OJeIuvaTFj7yw1w+8oVWvhD7F50bm8UB+w1Aas7J3BjLvfmrEm+9nk9GffpB0x/55icv5PKRd5p/I+hnLwjd2LgKEoD01OZkbnz+9X/dLPbp991H7h81+4k383r63fxT/lt/0LmxWapZbwDSc1rmxqjZGyF/md+j6GZvhHz/am4f2ezPPv3cA/fo7NtuABKUzajcGJ+5N/c0+q1Pcgupq59cL/Cd+s8/8tPbTT3if++qzo3Nnp9eAiBJQ8/I3Bj930dfunLz/Xxj6r1Hv6Bz66NcH35/8vGjP/K1//C8PTpXDy03AGk+cj8pcmP0/T/+9hFR+0beb35fvXP94R95860bOT/8fuHGI16XuXn9dZkbn1OGG4BEDbsSMkrf/dHrH73969fu/+D712+8d+efr+X/CsmdD2//+v6P+l/79e0P73wv998vfeHJG++/8eYDPvKHb330ul9MjdDisN0GIFWzIjfSWyFfeOFBb4m88OD/VZtP3R/0//fqC9eudeRd86tPXr32wH8x17zeHqMDqw1AsnouaNxIy13iEaGlHqsNQLr6JK5yh6rYsdkAJCxbl7jKHaphtWGzAUjZ+CsSV7lDFVwbt9gApG1B4Sp3qIINew1A4rrnFa5yh/CtddtrAFI3InCVO4RvKzPXAKSuPilwlTuEbrlurQGgV98qdwjdiq0GgBMnJvStcoewXbHUAHDXwCV9q9whZIv9lhoAPjMtb5U7hGzXTgPA39Tm5K1yh3CtddlpAPib7Iy6Ve4Qrn0zDQBfaEypW+UOoVpuuMMdAL40Jm6VO4TqvI0GgK9silvlDmG6bKEB4CvZ4La4Ve4QosUBEw0AX3dW2yp3CNGBF9wB4BuP3HsuaFvlDuFZqhloAPim09JWuUN49q0zAHz7mfuMtFXuEJo9L8oAwD2GnpG2yh3CcvXQNgPAvU4qW+UOYdmwzABwH8OuhFTuEJTFYW/KAMD9jApb5Q4hObDLAHBfdVdCKncIyFLdLgPA/fXpWuUO4dixygDwIOu6VrlDKFa94A4ADzT+iq5V7hCGa+M2GQAebFrWKncIg6sgAeBhuudlrXKHEKx1W2QAeJgRVavcIQRb9hgAHqo+pWqVO5Rv2VWQAPAIvaJWuUP5VqwxADzKhKhV7lC2K7YYAB5p4JKoVe5QrsUBWwwAj5Sd07TKHcq1a4oBoAm1OU2r3KFMSzVLDADNOCNplTuUad8OA0BTGq6EVO5Qor2GHQaA5owpWuUO5Tm0wgDQrE1Fq9yhLKcyIwwAzRrcVrTKHcqxOGiDAaB5s4JWuUM5DiwwALSgdkHQKncow1KPBQaAVvTpWeUOZdjxhjsAtCLLZvSscofiuQoSAFo19IyeVe5QtKtD1hcAWrUgZ5U7FG3D9gJAy4bn5axyh2KtDdteAGjdqJpV7lCsLcsLAMdQn1Szyh2KtOwqSAA4jkavmFXuUKQdwwsAx5Kti1nlDsVZNbsAcEzjr4hZ5Q5FudZvdQHguKa1rHKHouz67SUAOK6sa/4ZkvKjq1CWtS6jCwDHNyJllTsUw1WQANCO+pSUVe5QhOW6xQWAdqwoWeUORVixtwDQngklq9yh8y5bWwBo08C2klXu0GmLA9YWANp1Tsgqd+i0XVsLAG2rzQlZ5Q6dtVSztQDQtuy0jlXu0Fn7phYActCY0bHKHTppL7O0AJDHI/cxGavcoZMODS0A5GNTxip36JxTVhYAcjLoSkjlDh2zOGxlASAvsypWuUOnHNhYAMhNzwUVq9yhM5Z6bCwA5KdPxCp36IwdCwsAOcpcCancoSNWXQUJALkaelbEKnfI37Uh+woA+VrQsMod8rdhXQEgZ93zGla5Q97Wuq0rAORtVMIqd8jblm0FgNzVJyWscod8Ldd9NRUAcpf1KljlDvlaMa0A0AnrCla5Q55W7SoAdES/KyGVO+Rosd+uAkBnTAtY5Q752fWCOwB0SNecgFXukJe1LqsKAJ1yRr8qd8jLfsOoAkCn1Kf0q3KHfCzXbSoAdM55+arcIR+uggSATmpsylflDnm4bFABoKMGt+Wrcof2LQ7YUwDorHPqVblD+w6sKQB0WM8F9arcoV1LNXe4A0CHZafFq3KHdu0bUwDofLnPiFflDu3Z87wdAAow9Kx4Ve7Qju8dWlIAKMJJ7arcoR2n7CgAFGJ4Xrsqd2jjKshhOwoAxZiVrsodXAUJAOGruxJSucPxr4LssaIAUJQ+5arc4bh2bCgAFCZbV67KHY5n1VWQAFCg8VeUq3KH47g2LtwBoEgLwlW5S1COY8N+AkChulwJiXLnGNa67ScAFCob0a0od1q3ZT4BoGD1Kd2KcqdVy3XrCQBF65WtKHdatWI7AaB4E7IV5U5rrrhRBgBKMLAtW1HutGKx33ICQBmmVSvKnVbs2k0AKEVtTrWi3GnhKsguuwkA5TgjWlHuNG/fagJASRquhES507S9htUEgLKMaVaUO80670oZAChNtqlZUe4055TJBIASDboSEuVOc1dBDnrgDgBlPnI/K1lR7jTjwGACQKl6LkhWlDuPtlSzlwBQrtOKFeWOqyABIHzZjGJFufPIqyCNJQCUbuhZxYpy5+G+d2grAaB8JwUryp2H23CjDAAEYHhesKLceZi1bksJACEY1asod1wFCQDhq7sSEuXOQyzX7SQAhGFHrqLcebAdKwkAgcjW5SrKnQdZNZIAEIzxV+Qqyp0HXAXZbyMBIJxH7tOvwN/96Bp8ZddEAkBAuubVKsqd+1nrcoc7AIT0yH1ErKLcuZ8tAwkAQalPiVWUO/dabthHAAjrkfuKVkW5c68V8wgAoZX7hFZFufNtl40jAARnYFurotz5psUB2wgA4TknVVHuuAoSAIKX1eakKsqdr1uqmUYACNEZpYpy5+v27SIABKkxo1RR7nxlz1WQABCoMaGKcucrh34zFQBCtSlUUe586ZRNBIBgDboSEuXOl1dBDtpEAAjXrE5FufO5A4sIAAHruaBTUe787SrIHosIAAFr9MlUlDuf2TGIABC0zJWQKHfuWnUVJAAEbuhZmYpy5+UhawgAoVtQqSh3NmwhAARveF6lotxTt9ZtCwEgfKMiFeWeui1vuANA+LL6pEhFuadtuW4KAaAKejUqyj1tKx64A0A1rP9XuI8fvUAaVjMzCADVMP60RkW5p+vlfisIAFUxLVFR7unatYEAUBldcxIV5Z6qtS4bCADVMaJQUe6p2rKAAFAhjSmFinJP07IbZQCgSrIVgYpyT9OKAQSAatkUqCj3FF22fgBQMQPbAhXlnp7FAesHAFVzTp+i3F0FCQCEr+ZKSJR7cpZqtg8Aque0PEW5p2bf8gFA9WSNGXmKck/LXmb6AKCKxtQpyj0th3YPAKrJlZAo96ScsnoAUFGDroREuad0FeSw1QOAqpoVpyj3dBzYPACorJ4L4hTlnsxVkD02DwCqq0+botxTsWPxAKDCMldCotwTsdqweABQZUPPalOUewpeHrd3AFBtC9IU5Z6CDWsHABXXPS9NUe7xW+u2dgBQdaPKFOUev63M2AFA1dUnlSnKPXbLdVsHANXXK0xR7rFb8cAdAGKwLkxR7nG7YucAIAr9TwtTlHvMFvvtHADEYVqXotxjtmvlACASXXO6FOUer6Uub7gDQCQaZ2Qpyj1e+0YOAOIp9ylZinKP1V7dA3cAiEY2pkpR7tFeBWniACAmm6oU5R6ny/YNAKJ65D64rUpR7lFeBTlg4AAgLmdFKco9RgdecAeAyB651y6IUpR7hFdB1swbAMTmtCZFubsKEgCowDP3GU2Kco/uKkgvygBAhIae1aQo97h879CyAUCMTkpSlHtcNuwaAERpeF6SotxjsjZo1wAgTrOKFOUe1VWQVg0AItXjSkiUe0xXQdatGgDEqk+QotzjsWPTACBa2bogRbnHYtVVkAAQsfHn/wma85t/Jmivjls0AIjZgh5FucfBVZAAELeueT2Kco/BWrc9A4C4jchRlHsMtqwZAMQtq0/JUZR79S27ChIAoterRlHu1bdiywAgfhNqFOVedVcsGQAkYGBbjaLcq22x35IBQAqmxSjKvdp27RgAJKE29yw07zffIzBLXXYMAJKQndGiKPcq2zdjAJCIxpQWRblX117DigFAKsakKMq9ug5tGACkY1OKotyr6lRmwgAgHYPbUhTlXk2LgxYMAFIyq0RR7tV0YL8AICVZzwUlinKv5FWQPQYMANJyWoii3Ktox5UyAJDaM/cZIYpyr55V30wFgOQMPS1EUe5V8/KQcAeA9JzUoSj3qtmwXACQoOF5HYpyr5a1bg/cASBB2agMRblXy5bhAoAk1V0JiXKvlGVXQQJAonZUKMq9UldBWi0ASFS2rkJR7hW6CtJoAUCy+p9XoSj3qni132YBQLqmRSjKvSp2/WYqACSse06EotwrchVkl8UCgJSNaFCUu6sgAYDw1ac0KMq9Cvbq9goA0rYiQVHuVbBirQAgcY1NCYpyD99lYwUAyRvYlqAo99AtDtgqAEhedk6BotyDvwrSVAEAJ2quhES5B26pZqkAgBMnzghQlHvY9u0UAHBXY0aAotyDvgrSb6YCAJ/JxvQnyj1kh2YKAPicKyFR7gE7ZaMAgC8MuhIS5R7uVZCDNgoA+NKs/ES5h+rAQgEAf9dzQX6i3AO9CrLHQgEAX+lTnyj3MO3YJwDgK1nmSkiUe5BWMwMFAHzd0NPqE+UenleHrBMA8E0L4hPlHp4N2wQAfEv3vPhEuYdmrdubMgDAt2Sj2hPlHpot0wQA3KM+qT1R7mFZrnvgDgDco9ErPVHuYVkxTADA/axLT5R7UFdBWiUA4L76n5eeKPeAroLst0oAwP1NK0+Uezh2bRIAcH9Z15zyRLkHcxVkl1ECAB5kRHii3F0FCQCErz4lPFHuYdhrWCQA4MFWdCfK3VWQAED4sk3diXIPwWVzBAA81MC27kS5l29xwBoBAA93Tnai3F0FCQCEr+ZKSJR76ZZqtggAeITstOpEuZdt3xQBAI/UmFGdKPeSr4LMLBEA8EjZmOhEuZfq5UNDBAA046ToRLmX6ZQVAgCaMuhKSJR7mVdBDlshAKA5s5oT5V6eAxsEADSp54LmRLmXdhVkjw0CAJrVJzlR7mXZsUAAQNMa65IT5V6OVVdBAgAtGHr+acjDOy/TklfHhTsA0IoFxYlyL8OGbgcAWtI9rzhR7sVb67Y+AEBrRgUnyr14W7YHAGhRfVJwotyLtly3PQBAi7JevYlyL9qK6QEAWreuN1Huxbrim6kAwDEMbOtNlHuRFvvtDgBwHNNyE+VepF0P3AGAY6nNyU2Ue3GWuqwOAHA8Z9Qmyr04+w2jAwAcS9aYUpso96Ls6XYA4NjGxCbKvSjnveEOABxbtik2Ue7FOGVwAIA2DLoSEuVezFWQA/YGAGhDY1ZrotyLcGBuAIC21C5oTZR7AVdB1qwNANCe01IT5V7AVZC2BgBoUzYjNVHuHb8K0tQAAG0bel5qotw769VDSwMAtO+k0kS5d9aGK9wBgBwMzytNlHsnrQ3bGQAgD66ERLm7ChIAqIC6KyFR7h20XLcyAEA++nQmyr1zdrzhDgDkJFvXmSj3Tlk1MQBAbsZdCYly79RVkOMeuAMA+VmQmSj3Dl0FaV8AgBx1uRIS5d6ZqyC77AsAkKNsRGWi3Dthy7wAALmqT6lMlHsHroJsWBcAIF+9IhPlnr8V2wIA5G1CZKLc83bZsgAAuRvYFpko93wtDlgWACB/0xoT5Z6vXbsCAHRAbU5jotzztFSzKwBAJ5yRmCj3PO37zVQAoCPqMxIT5Z6fPVdBAgAdMqYwUe75ObQpAECnbCpMlHteTlkUAKBjhucVJso9H2vDFgUA6JxRgYlyz8eWPQEAOqg+JTBR7nlYrtsTAKCTzutLlHsOXvXNVACgwxb0Jcq9fRu2BADosK4L+hLl7jdTAYDw9cpLlHu7VvxmKgDQeSflJcq9zRdldDsAUICal2VQ7u3dKONFGQCgEOefl5co9+NbdKMMAFCQaeWOcm/jp5e8KAMAFKQ+oy5R7se16qeXAIDCDM6rS5T78awNWxAAoDg74hLlfjw79gMAKNK0uES5H8euF9wBgEI11sUlyr11VxrWAwAoVm1SXKLcW77BvcsDdwCgaAO+oIpyb/WLqf2WAwAo3orb3FHuLXl1xW4AACXIRrQlyr2lX14yGwBAOeW+oC1R7s3bMBoAQEnhXne1DMq9+Qtl/GIqAFAa5Y5yb9Zqj8UAAEqT1Wa0Jcq9GXtdBgMAKFPXlLZEuTdxgXu3tQAASpV1X9CWKPdHWRo2FgBA2QaVO8r9Ud0+YCkAgNI1+ue0Jcr9od3uB1MBgBBkA565o9wf9n77QGYnAIAgDPuGKsr9wd0+rNsBgEBk3TPPQwe982p1uQcSAAip3Gvr2hLlfj9+dwkACEvPprZEud/rsm4HAMKS1Re0Jcr92zYaxgEACM4ZbYly/6YtX0sFAEJ0fk5coty/snTeKgAAYRqcEpco9y8tD3hPBgAIVFbzFVWU+xeu1LwnAwCEqzH7tLpEud910NDtAEDAssaKF91R7q8urWS6HQAIu9yzbq/LkHy5XxnW7QBA+OneOLMtL0m53Be3vCYDAFQj3cfdLkPC5b437nE7AFCVcq/vyksSLfeXN3pkOwBQnXI/cX5SX5JiuS8fNtzeDgBUKt3rB950J71yP+jxejsAUDmDEwKTtMp9td/b7QBABWWNHXe6k1C5r+2rdgCgqunetaAwSaXcN7r8lQcAKhvuJ04MnJSYpFDuV/r9hQcAKm5oXWMSe7mvHvpOKgBQfdnhjMgk4nJ/eW/Hd1IBgDjKvdF3QWUSa7kv79T9JQcAIgn3u1a8MEOU5b63X/e0HQCIK96HNnUmsZX75fP+bgMAEab74O680iSecl/ccJMMABBrunePTkpN4ij35a1uX0kFACJu9xPj0x67U/lyXzt1mLkAEgCIXX1n4jdykwqX+95+TbYDAGkYPHC1OxUt972DQX+DAYBk3H1YOXx6c1tyUq1yX1zd6vbXFwBIT8/KwpzopCrlvnRqv+ZvLQCQqsbA/oJfVSX4cl+6vHXo91EBgKR99g2/7t5dr7wTbLkvb+z3Z25+BAD4vN57xvtmNyffEaAEVO5rqxtbh90ukAEA+Ea7332mmdWG9mcXrkx5851Sy31t78rGwf5h7Yv/VgkAwD35/tkbCXf/pz441Ls/Mjo7PT19Epp0qh0bG7sHB1v7+zuHg/UTWaPR8NcRAKCJgD/x2SvFWebNYgr+j53/wAEAHCukwH/kAAAAAAAAAAAAAAAAAAAAAAAAAAAAAAAAAAAAAAAAAAAAAAAAAAAAAAAAAAAAAAAAAAAAAAAAAAAAAAAAAAAAAAAAAAAAAAAAAAAAAAAAAAAAAAAAAAAAAAAAAAAAAAAAAAAAAAAAAAAAAAAAAAAAAAAAAAAAAAAAAAAAAAAAAAAAAAAAAAAAAAAAAAAAAAAAAAAAAAAAAAAAAAAAAAAAAAAAAAAAAAAAAAAAAAAAAAAAAAAAAAAAAAAAAAAAAAAAAAAAAAAAAAAAAAAAAAAAAAAAAAAAAAAAAAAAAAAAAAAAAAAAAAAAAAAAAAAAAAAAAAAAAAAAAAAAAAAAAAAAAAAAAAAAAAAAAAAAAAAAAAAAAAAAAAAAAAAAAAAAAAAAAAAAAAAAAAAAAAAAAAAAAAAAAAAAAAAAAAAAAAAAAAAAAAAAAAAAAAAAAAAAAAAAAAAAAAAAAAAAAAAAAAAAAAAAAAAAAAAAAAAAAAAAAAAAAAAAAAAAAAAAAAAAAAAAAAAAAAAAAAAAAAAAAAAAAAAAAAAAAAAAAAAAAAAAAAAAAAAAAAAAAAAAAAAAAAAAAAAAAAAAAAAAAAAAAAAAAAAAAAAAAAAAAAAAAAAAAAAAAAAAAAAAAAAAAAAAAAAAAAAAAAAAAAAAAAAAAAAAAAAAAAAAAAAAAAAAAAAAAAAAAAAAAAAAAAAAAAAAAAAAAAAAAAAAAAAAAAAAAAAAAAAAAAAAAAAAAAAAAAAAAAAAAAAAAAAAAAAAAAAAAAAAAAAAAAAAAAAAAAAAAAAAAAAAAAAAAAAAAAAAAAAAAAAAAAAAAAAAAAAAAAAAAAAAAAAAAAAAAAAAAAAAAAAAAAAAAAAAAAAAAAAAAAAAAAAAAAAAAAAAAAAAAAAAAAAAAAAAAAAAAAAAAAAAAAAAAAAAAAAAAAAAAAAAAAAAAAAAAAAAAAAAAAAAAAAAAAAAAAAAAAAAAAAAAAAAAAAAAAAAAAAAAAAAAAAAAAAAAAAAAAAAAAAAAAAAAAAAAAAAAAAAAAAAAAAAAAAAAAAAAAAAAAAAAAAAAAAAAAAAAAAAAAAAAAAAAAAAAAAAAAAAAAAAAAAAAAAAAAAAAAAAAAAAAAAAAAAAAAAAAAAAAAAAAAAAAAAAAAAAAAAAAAAAAAAAAAAAAAAAAAAAAAAAAAAAAAAAAAAAAAAAAAAAAAAAAAAAAAAAAAAAAAAAAAAAAAAAAAAAAAAAAAAAAAAAAAAAAAAAAAAAAAAAAAAAAAAAAAAAAAAAAAAAAAAAAAAAAAAAoBn/H+iVNw5mZVm9AAAAAElFTkSuQmCC;clipPath=inset(16% 22.33% 18% 23.67%);" vertex="1" parent="uxV9D01Ll2PjdH4FGNLQ-47">
          <mxGeometry x="77.5" y="20" width="35" height="28.52" as="geometry" />
        </mxCell>
        <mxCell id="uxV9D01Ll2PjdH4FGNLQ-50" value="Encodage des informations&lt;br&gt;(&lt;b&gt;Embedding&lt;/b&gt;)" style="text;html=1;strokeColor=none;fillColor=none;align=center;verticalAlign=middle;whiteSpace=wrap;rounded=0;" vertex="1" parent="1">
          <mxGeometry x="-310" y="-360" width="100" height="40" as="geometry" />
        </mxCell>
        <mxCell id="uxV9D01Ll2PjdH4FGNLQ-51" style="edgeStyle=orthogonalEdgeStyle;rounded=0;orthogonalLoop=1;jettySize=auto;html=1;exitX=0.368;exitY=-0.004;exitDx=0;exitDy=0;exitPerimeter=0;strokeColor=#007FFF;flowAnimation=1;" edge="1" parent="1" source="uxV9D01Ll2PjdH4FGNLQ-48">
          <mxGeometry relative="1" as="geometry">
            <mxPoint x="-340" y="-390" as="targetPoint" />
            <Array as="points" />
            <mxPoint x="-340" y="-310" as="sourcePoint" />
          </mxGeometry>
        </mxCell>
        <mxCell id="uxV9D01Ll2PjdH4FGNLQ-52" value="Récupération de contexte&lt;br&gt;&lt;b&gt;(RAG)&lt;/b&gt;" style="text;html=1;strokeColor=none;fillColor=none;align=center;verticalAlign=middle;whiteSpace=wrap;rounded=0;" vertex="1" parent="1">
          <mxGeometry x="-490" y="-360" width="140" height="40" as="geometry" />
        </mxCell>
        <mxCell id="uxV9D01Ll2PjdH4FGNLQ-53" value="Protégé par un &lt;b&gt;Bearer Token&lt;/b&gt;" style="text;html=1;strokeColor=none;fillColor=none;align=center;verticalAlign=middle;whiteSpace=wrap;rounded=0;" vertex="1" parent="1">
          <mxGeometry x="-513" y="-440" width="90" height="40" as="geometry" />
        </mxCell>
        <mxCell id="uxV9D01Ll2PjdH4FGNLQ-54" value="" style="shape=image;verticalLabelPosition=bottom;labelBackgroundColor=default;verticalAlign=top;aspect=fixed;imageAspect=0;image=data:image/png,iVBORw0KGgoAAAANSUhEUgAAC7gAAAfQCAMAAABlzOIIAAACPVBMVEVHcExDg/JEgfFCg/BEhvRBlP9EgvFDh/1GgutVsv9EhfZDhvlEhfVDg/FDgvBDhPJEhPNDg/FDhfVEhfVBedtDhfVEhfRDhvlEhfVDhfVDhPJDhvtDhfdDhfZEhPNDhvlDhvlEhPJDg/JEhfRDhvpDhvlEhPBEhPBDhvlFg+9EhPBFhO9Fg+9EhPBDhfhAet1DhfZAet1Aet1DhvpCfeRAet1Aet1Fg+5Aet1Fg+5DhfZAet1Fg+1AfeFBe99AetxAe91DhfZBe95Fg+1EhPFEhPBBetxChvpDh/xBetxBe93///9EhvhEhvlEhvdDh/xEhfRDh/tEhfVFhfNAe99DhvpAe+BFhfJGg+tAe95AfOJEhvZFhO5Gg+xFhO9FhPBAfOM/fOVGhO1Dh/1Ehvo/fOREhfZBetxGg+pFhPFBe91AfOFAe+FBettFhfFFhO1Ae90/fOZDhvs/fedBetpGhOxBe9w/feazyvPy9v5AfulZjeZNhOLa5vrM3PlDgeiZuvK2zvZ9puxxnupDhPTm7/2/0/afvvJBfeVDgevQ3/lEhPBDhPLB1fZAfueAqOxEgOXE2fxxnux5pO7B1/16pey2zfRflvW5z/ZBfOOnxvvd6f2Vtu9EgOaUtvCcu+9xnuuHsfijv/DN3/38/f9FhPN/qO73+v5zn+pwovjs8v3U4vuOsu9klemArPmGre7H2feOtvtSieeuyPVWkfhsm+qow/JNi/ZViuR4o+tDfuFIgeJckepNhuhCf+bsZ4mUAAAAS3RSTlMAFBAZBwMMqqoBUupdLikjOh52fq5m9MBBbTPeiJC5ydTdSOTzmtWZo8yF7PKisvn56Nz5TsTywqGxqnf5WpLSaP2E5Pz6QP37tbpsCK16AABgoklEQVR42uzd7W+c9Z3vcWyPJ5oZ31v2+N7jO3DTxbKUI1X1M0utEsm5K6jao+VJUNJI++RImzygaUUFPU27Qi3dpeyBhbPV4dSQDeFmKVAOq3b/tgNtgZDE8cxc1zXz+/2u1+sfMIj4+3kzunLNI48AAAAAAAAAAAAAAAAAAAAAAAAAAAAAAAAAAAAAAAAAAAAAAAAAAAAAAAAAAAAAAAAAAAAAAAAAAAAAAAAAAAAAAAAAAAAAAAAAAAAAAAAAAAAAAAAAAAAAAAAAAAAAAAAAAAAAAAAAAAAAAAAAAAAAAAAAAAAAAAAAAAAAAAAAAAAAAAAAAAAAAAAAAAAAAAAAAAAAAAAAAAAAAAAAAAAAAAAAAAAAAAAAAAAAAAAAAAAAAAAAAAAAAAAAAAAAAAAAAAAAAAAAAAAAAAAAAAAAAAAAAAAAAAAAAAAAAAAAAAAAAAAAAAAAAAAAAAAAAAAAAAAAAAAAAAAAAAAAAAAAAAAAAAAAAAAAAAAAAAAAAAAAAAAAAAAAAAAAAAAAAAAAAAAAAAAAAAAAAAAAAAAAAAAAAAAAAAAAAAAAAAAAAAAAAAAAAAAAAAAAAAAAAAAAAAAAAAAAAAAAAAAAAAAAAAAAAAAAAAAAAAAAAAAAAAAAAAAAAAAAAAAAAAAAAAAAAAAAAAAAAAAAAAAAAAAAAAAAAAAAAAAAAAAAAAAAAAAAAAAAAAAAAAAAAAAAAAAAAAAAAAAAAAAAAAAAAAAAAAAAAAAAAAAAAAAAAAAAAAAAAAAAAAAAAAAAAAAAAAAAAAAAAAAAAAAAAAAAAAAAAAAAAAAAAAAAAAAAAAAAAAAAAAAAAAAAAAAAAAAAAAAAAAAAAAAAAAAAAAAAAAAAAAAAAAAAAAAAAAAAAAAAAAAAAAAAAAAAAAAAAAAAAAAAAAAAAAAAAAAAAAAAAAAAAAAAAAAAAAAAAAAAAAAAAAAAAAAAAAAAAAAAAAAAAAAAAAAAAAAAAAAAAAAAAAAAAAAAAAAAAAAAAAAAAAAAAAAAAAAAAAAAAAAAAAAAAAAAAAAAAAAAAAAAAAAAAAAAAAAAAAAAAAAAAAAAAAAAAAAAAAAAAAAAAAAAAAAAAAAAAAAAAAAAAAAAAAAAAAAAAAAAAAAAAAAAAAAAAAAAAAAAAAAAAAAAAAAAAAAAAAAAAAAAAAAAAAAAAAAAAAAAAAAAAAAAAAAAAAAAAAAAAAAAAAAAAAAAAAAAAAAAAAAAAAAAAAAAAAAAAAAAAAAAAAAAAAAAAAAAAAAAAAAAAAAAAAAAAAAAAAAAAAAAAAAAAAAAAAAAAAAAAAAAAAAAAAAAAAAAAAAAAAAAAAAAAAAAAAAAAAAAAAAAAAAAAAAAAAAAAAAAAAAAAAAAAAAAAAAAAAAAAAAAAAAAAAAAAAAAAAAAAAAAAAAAAAAAAAAAAAAAAAAAAABQTtWxuZGZqamlpa2t7RPQA9tbW0tLU1MzI3NjVb+BAADHGJibXz7RXNy8/IUzl6FHvvrDtrnY3F6enxvwGwkA8KBk32puikdC0mhuyXcAgK+Mj2y1RCLB5vuJ+YWaX1MAoOSGF+ZPNKQhodtsTk1U/L4CAGU1UN/2cAzxPAO/MzPktxYAKJ/xmR1/85TY2n11aszvLgBQJqNLHmonUq0l7Q4AlMTgzKr6I+bP3VvzXjUDACSvNrF1SvkRfbufqHvRDACQssklr5AhEYtL/qoqAJCq0a0z/j4qCX3svj3qtxoASNDcjtIjNU1PzAAAianU/YVUktQa8cVMAEBC2T7j0XbSfdh9ZtjvOACQhFp9UdyR9qfufs0BgARMeEiG5K3O+U0HACI3ekLUUYq/prrgtx0AiNjQ9jVFRzmc2fZ1qgBArGojm3KO8tic97dUAYAojXq4nbI96u4bmQCA+FSnfUsq5XteZrnqdx8AiItXQFJOi+t++wGAiFS3BBxlte1DdwAgGhM+bqfMH7pPuAEAQBSGpzzdTrmfdJ/2ehkAIAKTTeFG2TUnXQIAIHR1726Hy5sjbgEAELThJckGn9vyuAwAELABj8nAF4/LDLoIAECoRr1NBr60OOYmAABhWvd4O9z9oHvdVQAAAlSbEmrwddM1lwEACE3lhEqDe21X3AYAICxVfy0VHvRXVKuuAwAQksHVMxeA+60OuA8AQDiGWvoMHuhya8iFAABCMb4oz+Aoi+NuBAAQhjHdDg/RGHUlAIAQLGxelmag3AGAwI02dBk89DH3yw1fogoA9N14w+ftcFy6NzznDgD02aTn2+H4cD+z6N0yAEBfDXgPJLSl5X3uAEAfDa7qMWjvOfdV36EKAPRNddXz7dCuZsXNAAD6o3ZCi0H7H7pvOxoAQH9MSzHoxJSrAQD0Q/2aEINOnKm7GwBA7/nCVOjUpq9QBQB6bsAL3KFji14KCQD0WKXp83bonFfLAAA9tqXAoBtbrgcA0EszPm+H7oy4HwBA74xuyi/oypnNSRcEAOiVassH7tD1Y+7DbggA0CMecIfuXZ52QwCA3qhLL8jytMyEKwIA9MJAQ3lBFouD7ggA0AMndBdkc8IdAQCKN6K6IKu6SwIAFM2DMpBdw8MyAEDR9jQXZHbZF6gCAAVb9wZ3yMG1OdcEAChSZVFxQR4WK+4JAFCgaR+4Qz6m3BMAoDjjp+QW5POU++a4iwIAFGbHB+6QFy9zBwAKs661ID/rbgoAUIzhltSC/LSGXRUAoBBTSgvyfMx93lUBAIow0PCEO+SpMeCuAAAF2NJZkOsn7peX3RUAIH+jZ4QW5OvMqMsCAOSuqbIgb02XBQDIW11jQf7qbgsAkK/KosSC/J+VWay4LgBArqYlFhRhynUBAPI0tCmwoAibQ+4LAJCjbX0FxdhyXwCA/CyclldQjO8tuDAAQF5qq74zFYqyWnNjAICcjGgrKMxlr4QEAHJSXfSBOxRnserKAAC5WFJWUOAn7penXRkAIA+TXgUJhTo16c4AADk4oaug2M/ct90ZACC7iWu6Cop1bc6lAQCyGl5VVVD0R+5eCQkAZDZz2StloPByn3FrAIBsBhuaCooP98agawMAZLLs83bohSXXBgDIYuyUoIJeODPu3gAAGex4wh16Y8e9AQC6t67boVfWXRwAoFuVlnCHXmlV3BwAoEtTsh165vK8mwMAdGdgU0tB72wOuDoAQFe2lBT08iP3ZVcHAOjGwmklBb10etTdAQC60NRR0NuP3JvuDgDQubq/mQq9Vnd5AIBOVRZFFPTaoldCAgCdmvaBO/TelNsDAHRm0qsgoQ82h1wfAKAj298D+mDL9QEAOjHxfQEFfbHg/gAA7autyifoj9WaCwQAtG1EPUG/jLhAAEC7qg3xBP2yWHWDAIA2LWkn6JcLl6fdIACgPeOnxBP0z+akKwQAtGVHOUE/P3Pfc4UAgHbMCSforzl3CAA43nBLNkFfnWkNu0QAwLHmL+gm6LMZlwgAOM6gV0FC3zUG3SIA4BjLl0UT9N2SWwQAPNyYV0FCAE6NuUYAwEOt+MAdQrDjGgEAD1PXSxCEC+vuEQBwtMriGcEEQWhVXCQA4EhTagkCcXneRQIAjjKwqZYgFI0BNwkAOMKWVoJwbLlJAMCDLZyWShCOM6OuEgDwQE2lBCFpukoAwIOMXBBKEJS6uwQA3K+yKJMgLIteCQkA3G/ad6ZCaKZdJgDgXpNeBQnB2RxymwCAe+x5wh3Cs+02AQBfN/F9iQThOT3hOgEAd6utKiQI0WrNfQIA7jKjjyBMI+4TAPCVakMeQZg2qi4UAPClJXUEgbq85EIBAF8YP6WOIFSnxt0oAOCvdrQRBOv0CTcKAPiLOa9wh5DNuVIAwOeGW8IIQtYadqcAgM/M6yII24w7BQA88sigV0FC4BqDLhUA8MiWKoLQLbtUAMCYV0FC8E6NuVUAUHorl0URBG/FrQKAsqt7FSSE78LlddcKAMqtsnhaE0EEFivuFQCU2pQegiicmXKvAKDMhjb1EMRhc8jFAoAS21ZDEIstFwsAymvBA+4QjdMLbhYAlFWtqYUgGpebNVcLAEpqxKsgISIX6q4WAJRTZVEJQUwfuS9W3S0AKKUlIQRxfeQ+7W4BQBlNehUkRBbum5MuFwCU0J4n3CE22y4XAJTPxPdFEMTm+xNuFwCUTW3VB+4Qn1WvhASAsplRQBDhU+6XR1wvACiXakMCQYwag+4XAJTKsv6BOC25XwBQJuOn5A/E6dS4CwYAJbKjfiDWx9xPuGAAUB7r4gfite6GAUBZDLekD8T7kXtr2BUDgJKYv3wNiNe8KwYA5TDQED4QsQuNAXcMAEphS/hA3OW+7I4BQBmMntE9ELczoy4ZAJTAiifcIXZNlwwA0le/IHog+o/c624ZAKSusqh5IH6LFdcMABI3rXggBVOuGQCkbWhT8EAKNofcMwBI2vb3gSRsuWcAkLKF03IH0nB6wUUDgHTVmmoHUgn31ZqbBgDJGrmgdiAZI24aAKSq2pA6kIwLG1VXDQASteQJd0jItWlXDQDSNH5K6UBK4b456a4BQJJOnFM6kJRtdw0AUjSnciAx5+ZcNgBIz3DLE+6QmpZXQgJAemY0DiTnzIzbBgCpGfQqSEhQY9B1A4DELCscSNGS6wYAaRnzKkhI0qkx9w0AkrKjbyBNO+4bAKRk/bK8gUStu3AAkI5KS9xAqloVNw4AkjGlbSBd824cAKRiYFPaQLKuNQZcOQBIxJa0gZTLfdmVA4A0LJxWNpCy06PuHAAkoalrIG1Ndw4AUlBXNZD6R+51lw4A4ldZvCZrIHGLXgkJAPGb1jSQvim3DgBiN+RVkFACm0OuHQBEblvRQAlc23LtACBuE+cUDZTB6Qn3DgBiVlvVM1COcF+tuXgAELEZ370EZTHi4gFAvKoNMQMlcWGj6uYBQLSWfOAOpXFt2s0DgFiNn9IyUJ5w3xx39QAgUjs+cIcy2XP1ACBOczoGymXO3QOAGA23ZAyUS2vY5QOACM2rGCiZ0zMuHwDEZ9CrIKF0GoNuHwBEZ1nDQOlcW3L7ACA2Y6euiRgonVNjrh8ARGZFwUAZ7bh+ABCX+vcEDJTSuvsHADGpLMoXKOdT7q2KCwgAEZnynalQVvMuIADEY2BTvEBJXWgMuIEAEI0t8QLlfVhmyw0EgFgsnL4ClNW506OuIABEoildoMyariAAxGFEt0C51d1BAIhBZVG2QLkteiUkAMRgWrVA2U27hAAQvslN0QJltznkFgJA8PY0C7DtFgJA6CbOSRbg3IRrCABhq60qFuDK6dWaewgAQZsRLMDnRtxDAAhZtSFXgM9c2Ki6iAAQsCW5AvzZtZMuIgCEa/yUWgH+4tS4mwgAwdrRKsAXTriJABCqOaUCfGXdVQSAMA23hArwldawuwgAQZrXKcBdrs24iwAQooHGNaEC3KUx4DICQIC2VArwdcsuIwCEZ8yrIIF7nBp1GwEgOCsaBbjH6abbCAChqUsU4H5eCQkAgaksChTgfosV9xEAgjJ9RqAA9zs35T4CQEiGNs8B3O/s5pALCQAB2T6vT4AHlvuWCwkA4VjQ7cARzi+4kQAQilpTmwBHadZcSQAIxIgyAY70vborCQBhqC4qE+Boi1V3EgCCcFKXAA8z7U4CQAgmvQoSeKjNSZcSAAKwp0qAh9t2KQGg/yY0CXCMsxNuJQD0W21VkwDHuLLqlZAA0G8zVzQJcGy5j7iWANBfgw1FAhyvMeheAkBfLZ8WJEAbltxLAOin8V05ArTj1LiLCQB9tOMJd6A9Oy4mAPTPnBYB2rXuZgJAvwy3pAjQrtawqwkAfTKlRID2zbuaANAfA14FCXSgMeBuAkBfbOkQoANXlt1NAOiH0VM6BOjEqVGXEwD6YEWFAB0523Q5AaD36t9TIUCH6m4nAPRaZVGCAJ1+5L5YcT0BoMemz50VIUCn5T7legJAbw1tKhCg83DfHHI/AaCntgUI0I0t9xMAemnCczJAd5+5L7igANA7tVX1AXSnWXNDAaBnRrQH0K0RNxQAeqW6cUF7AF3aqLqiANAjS1ekB9Cta9OuKAD0xrhXQQIZbE66owDQEyd0B5DBlW13FAB6YU52ANnMuaQAULzhlugAsn3kvuqVkABQvPnTvnwJyFjuM24pABRtsKE5gKwag64pABRsWXEA2S25pgBQrLFTggPI7tSYewoAhVrRG0AedtxTACjSutoA8rHuogJAcSqt76kNIBetipsKAIWZuiI2gJzMu6kAUJSB2dNaA8hJY8BVBYCCbCkNIDcXll1VACjGwr7SAPJzetRdBYBCNHUGkKOzTXcVAIow4gF3IF91lxUA8ldZFBlAvh+5L3olJADkb1pkAHmbclsBIG9DmxIDyNvmkOsKADnbVhhA/rZcVwDI18RZgQHk7/yE+woAeaqt6gugCKs1FxYAcjSjLoAinD094sICQH6qDe9wB4qxUXVjASA3S55wBwpyYdqNBYC8jO9qC6Aom5OuLADkZEdZAIW5sufKAkA+5oQFUKQ5dxYA8jDckhVAkR+5rw67tACQg3lZARRb7jMuLQBkN9hQFUCxGoNuLQBktnxFVAAFW3ZrASCrsVOSAijY2VNjri0AZLTiA3egeDuuLQBkU9cTQA9cWXdvASCLSssH7kAvtCouLgBkMHXuLEAPXJl3cQGgewOzwh3ojcaAmwsAXdvSEkCvbLm5ANCthX0pAfTK/qirCwDdqTWVBNA7TWcXALozoiOAXqq7uwDQjcqijAB6adErIQGgG9PeKAP01rTLCwCdm5wVEUBPnd8ccnsBoGN7IgLotW23FwA6NXFVQgC9dnXC9QWAztRWFQTQe6s19xcAOjKjH4B+GHF/AaAT1cZ5/QD0QWPQBQaADizpdqAvzp10gQGgfeO76gHoj91xNxgA2rajHYB+feS+5wYDQLvmpAPQP+uuMAC0Z7glHID+aQ27wwDQlnndAPTTjDsMAO0YaMgGoI/ONQZcYgBow5ZXQQL9tewSA8DxxrwKEuiz/VG3GACOtXJFNAB9tuIWA8Bx6ooB6LvveSUkAByjsnZOMgB9t1ZxjwHgoab0AhCA01PuMQA8zNCsXgBCMDvkIgPAQ2yrBSAMWy4yABxtYV8sAGHYX3CTAeAotaZWAAJxpVlzlQHgCCNSAQjGubqrDAAPVl1UCkA44b5RdZcB4IFOCgUgJNPuMgA8yOSmTABCsjvpMgPAA+ypBCAs2y4zANxv4qpIAMJydcJtBoB71VY1AhCaVa+EBIB7zSgEIDhXRlxnAPi6wcZ5iQAEpzHoPgPA1yzrdiBA55fcZwC42/iuPgBCtDvuQgPAXXbUARCkK3suNAB8ZV0cAIE6t+5GA8AXhlvaAAhVa9iVBoC/mlIGQLjmXWkA+IuBhjAAwtUYcKcB4M+2dAEQsmV3GgA+N7ovC4CQ7Y+61ADwmaYqAMLWdKkB4JFH6poACNz5ulsNAJVFTQCEbrHiWgNQetOKAAj/I/cp1xqAshvaPC8JgODNDrnXAJTcth4AYrDlXgNQbhNX5QAQg/0FFxuAMqutqgEgDqs1NxuAEhvRAkAsRtxsAMqruiEFgEic26i62gCU1pIUAOIx7WoDUFbju0Ig0U8mP3njtedffpBXX/vglWJ+5kcfHPEjn3/tg4+K+bd85YPXXj3iR77xiT8FKdqddLcBKKm9c0IgSbd/d3BweHCk1z/I/0e+9+zh0T/y8ODOe/n/yA9eP/Lf8PCzf5jf3fbHO0Hb7jYA5TQnbJL00e8OjnH4+u2cP/p+9rgfeXAn5w/6b9885t/x4PDlj/xhSM+cyw1AGQ23fGdqkh+33zw43q038vy/tvdutPEjb+T6PwsfHLbxI2++4v9Nk+OVkACU0rxuT9C5V24dtOWNHLv9sK2feJhjuX/Q3r/krVf8iUjOjNsNQPkMNiRAis/JvH3QZtPmltHt/q/CwY3cMvp2mz/x4HV/RzU5jUHXG4DSWVYAKXq53aQ9vPlkTj/yTts/8oWf5fMTP2n3/04ODj686s9EapZcbwDKZmzX478Jun3YdtIevPPLfB6Uaf8nHryUT7n/ov2fePhH5Z6a3TH3G4CSWbH/pf7A/fO/uvliLuX+bAc/8ic/yqPcz93o4Ed++CPlnpod9xuAcqmfNv8p6iRpD97No9w/6uQnHv4pj3K/3cmPfPtF5Z6cdRccgDKptM6ToI6S9uC56y/+MvOP/KCjH/nW9Rd/lvlHvtbRj3z3+otP+JORllbFDQegRKZsf5I6q+gfXs+h3F/r8P8Vcij3lzv8fwXlnpx5NxyA8hiYNf0putpZRf/H9ezlfvbVjn7kh9dzKPc7Hf3Id64r99ScbQy44gCUxpbpT1Nn4f7C9RzK/Z87+pHPX8+h3F/v9EN+5Z6cZVccgLJY2Df8wv2v4Z613LsI96zl3kW4K/fE7I+64wCURNPuC/cvwz1juXcT7hnLvZtwV+6JabrjAJRD3eoL97vCPVu5dxXu2cq9q3BX7ol95F53yQEog8qG1Rfud4d7pnLvLtwzlXt34a7c07LmlZAAlMG0zRfuXw/3LOXeZbhnKfcuw125J+XclFsOQPomvQpSuN8b7hnKvdtwz1Du3Ya7ck/K7JBrDkDyti2+cL8v3Lsv967Dvfty7zrclXtKzm655gCkbuKqxRfu94d71+Xefbh3Xe7dh7tyT8nVBfccgLTVVu29cH9QuHdb7hnCvdtyzxDuyj0hT63WXHQAkjbzlL0X7g8M9y7LPUu4d1nuWcJduadU7iMuOgApq3oVpHA/Kty7K/dM4d5duWcKd+WekI2qmw5AwpbOGXvhflS4d1Xu2cK9q3LPFu7KPSEn3XQA0jW+a+qF+9Hh3k25Zwz3bso9Y7gr93TsTrrqACRrxxPuwv1h4d5FuWcN9y7KPWu4K/d07LnqAKRqzs4L94eHe+flnjncOy/3zOGu3NMx564DkKbhlg/chfsx4d5xuWcP947LPXu4K/dkrA677AAkaV63C/djw73Tcs8h3Dst9xzCXbkn4uzZGZcdgBQNNsy8cD8+3Dss9zzCvcNyzyPclXsqGoNuOwAJWrbxwr2dcO+s3HMJ987KPZdwV+6JeGrZbQcgPWP7Nl64txXuHZV7PuHeUbnnE+7KPRG7Y647AMlZsfDCvc1w76Tccwr3Tso9p3BX7onYcd0BSE3dvgv3tsO9g3J/Oadw76Dc8wp35Z6IdfcdgLRU1sy7cG8/3Nsv99zCvf1yzy3clXsaWhUXHoCkTFl34d5JuLdd7vmFe9vlnl+4K/c0zLvwAKRkaNa4C/eOwr3dcs8x3Nst9xzDXbmn4GxjwI0HICFbxl24dxjubZZ7nuHeZrnnGe7KPYlyf8yNByAdC14FKdw7Dvf2yj3XcG+v3HMNd+Wegv1RVx6AVNSall24dx7ubZV7vuHeVrnnG+7KPQXNmjsPQCJG7Lpw7ybc2yn3nMO9nXLPOdyVewrq7jwAaagsPmXXhXs34d5Guecd7m2Ue97hrtwTsFF16QFIwrRVF+5dhvvx5Z57uB9f7rmHu3JPwLRLD0AKJmfPWXXh3mW4H1vu+Yf7seWef7gr9/jNTrr1ACRgz6YL9+7D/bhyLyDcjyv3AsJducdv260HIH4TV026cM8Q7seUexHhfky5FxHuyj16VydcewBiV1u16MI9U7g/vNwLCfeHl3sh4a7cY3d21SshAYjdjEEX7hnD/aHlXky4P7Tciwl35R69EfcegLhVG+ZcuGcN94eVe0Hh/rByLyjclXvknmoMuvgARG15354L98zh/pByLyrcH1LuRYW7co+93JdcfABiNr5rzYV7DuF+dLkXFu5Hl3th4a7cI7c77uYDELEdWy7ccwn3I8u9uHA/styLC3flHrk9Nx+AeM1ZcuGeU7gfVe4FhvtR5V5guCv3yK27+gDEarhlyIV7XuF+RLkXGe5HlHuR4a7c49YadvcBiNS8HRfu+YX7g8u90HB/cLkXGu7KPWpnZ9x9AOI02DhryIV7fuH+wHIvNtwfWO7Fhrtyj1pjwOUHIEqPWXHhnmu4P6jcCw73B5V7weGu3KO27PIDEKNRr4IU7jmH+wPKvehwf0C5Fx3uyj1mu6NuPwARWrHhwj3vcL+/3AsP9/vLvfBwV+4RO7fi9gMQn7oH3IV7/uF+X7kXH+73lXvx4a7cY+aVkABEp7JmwIV7AeF+b7n3INzvLfcehLtyj/gj97WK+w9AZKYNuHAvJNzvKfdehPs95d6LcFfuEZty/wGIy9Cs+RbuxYT718u9J+H+9XLvSbgr93jNDlkAAKKyvW++hXtB4f61cu9NuH+t3HsT7so9XlsWAICYLOh24V5cuN9d7j0K97vLvUfhrtyjtb9gAwCIR63plTLCvcBwv6vcexXud5V7r8JduUerWbMCAERjxHIL90LD/aty71m4f1XuPQt35R6rc3UrAEAsqhuWW7gXG+5flnvvwv3Lcu9duCv3WG1U7QAAkThpt4V70eH+Rbn3MNy/KPcehrtyj9W0HQAgDpOz5+y2cC863P9a7r0M97+Wey/DXblHanbSEgAQhT2rLdx7EO5/Kfeehvtfyr2n4a7c43R22xIAEIOJq1ZbuPci3P9c7r0N9z+Xe2/DXbnH6eqELQAgfLVVmy3cexPun5d7j8P983Lvcbgr9zg/cl/1SkgAwjfjFe7CvVfh/lm59zrcPyv3Xoe7co/TiDUAIHSDDYMt3HsW7tdf7Hm4X3+x5+Gu3KPUGLQHAARu2V4L9x6G+/Vf9Tzcrz/b83BX7lFasgcAhG1s11zH66MPXnv5d1nc7Chpb/wkB2939CPfzuNH3uroR97M9LNe/cP7f1LukdodtwgABG3HE+7ReuPOZ5l5eEBgDl/4jXKP045FACBk608RqdvPSuRgvfDuM8+8eNEf0uis2wQAwlVpnbfVcfrAR+1Bf+r+vnKPUatiFQAI1pSljtRr2jhwzyn3CD0xbxUACNVAw1JH+nm7MA7eW8o9Qo0BuwBAoLbsdKTPt3tOJny3/qjc43N+2S4AEKbRfTsdpzuyOAL/8Yxyj8/+qGUAIEhNKx2n90RxFF5S7hGGe9MyABCiupGO1O80cRR+/oxyj88TddsAQHgqGzY6Tp94wj2Sp9z/TblH+JT7mldCAhCeaRMdqTckcUTPyij36ExZBwBCMzRroON01TvcY/HOM8o9QrND9gGAwGzb51g971GZSPzfZ5R7jLbsAwBhmXjCPMfqZUUcif/1jHKP0cUFCwFASGqrwj1a/6yII/H8M8o9Ss2ajQAgICO2WbjTu3BX7nEZsREAhKO6cdY2C3d6F+7KPSobVSsBQDCWLLNwp6fhrtyjMm0lAAjF+K5hFu70NtyVe0xmJ+0EAIHYs8vCnV6Hu3KPyPltOwFAGObO22XhTs/DXbnHZM5SABCC4ZZRFu70IdyVe0RWh20FAAGY3zfKwp1+hLtyj8iMrQCg/wYbJlm4059wV+7ReKIxaC0A6Ltlkyzc6Ve4K/d4yn3JWgDQb2NeBSnc6V+4K/do7I7ZCwD6bMUeC3f6GO7KPRo79gKA/qpbY+FOX8NduUdj3WIA0E+VNa+UEe70N9yVeyxaFZsBQB9N2WLhTr/DXbnHYt5mANA/A7M+cBfu9D3clXskGgNWA4C+2bLEwp0Awl25R+IxqwFAvyz4vF24E0S4K/c47I/aDQD6pGmHhTthhLtyj8LFpt0AoD9GfOAu3Akl3JV7HOqWA4B+qGwYYeFOMOGu3KOw5pWQAPTDtA0W7gQU7so9ClO2A4Dem5w1wcKdkMJduUfg/OyQ9QCg57ZNsHAnrHBX7jF43HoA0GsTTxhg4U5g4a7cI3B1wX4A0Fu1Vfsr3Aku3JV7BFZrFgSAnpqxvsKdAMNduUdgxIIA0EvVjfPWV7gTYLgr9/BtVG0IAD20pNuFO2GGu3IP3vmTNgSA3hnftb3CnUDDXbkHb3fSigDQMztXSYdwjybc/6FN13/mj3XY9qwIAL0yZ3fLHO63bpCPW0WFu3IP3pwdAaA3hltmt8zh/tI/kI/fFBbuyj1w+48OWxIAemLe7Ap3wg535R648zOWBIBeGGxYXeFO4OGu3MP2RGPQlgDQA8vnra5wJ/RwV+6BW7YlABRvbNfkCnfCD3flHvZH7rtj1gSAwq34wF24E0O4K/ewrVgTAIpWt7fCnTjCXbkH7fy6PQGgWJW1fYMr3Ikj3JV70NYqFgWAQk1ZW+GuuKMJd+Ue9Efu8xYFgCINzVpb4a644wl35R6y2SGbAkCBHre1wl24xxTuyj3kj9wfsykAFGfBA+7CXbjHFe7KPWD7C1YFgKLUmpZWuAv3yMJduQesWbMrABRkxM4Kd+EeXbgr94DV7QoAxahsmFnhLtzjC3flHq6NqmUBoBAnPeEu3IV7jOGu3MM1bVkAKMKkV0EKd+EeZ7gr92DNTtoWAAqwZ2OFu3CPNNyVe7Aety0A5G/iCRMr3IV7rOGu3IM1YV0AyFtt1cAKd+Eeb7gr91CteiUkAHmbsa/CXbjHHO7KPVDnR+wLAPmqbpw1sMJduMcc7so9UI1BCwNArpbOm1fhLtzjDnflHqiTFgaAPI3vGlfhLtxjD3flHqbdcRsDQI52niBZHYf70+Sj43DP/iOv/9If+PBc3bMxAORn7qptFe7CPYFwV+5hWrcyAORluGVYhbtwTyLclXuILraG7QwAOZk3rIF65bWXf3czq1vCPZJwv5X5v/ULP3/uXeUeohk7A0A+BhtmNUjv3Tw4POg94d6vcM/H62+96XcnOI0BSwNALh6zqiH66M5Bfwj3uMP94OCFj/z6BGfZ0gCQh7Fdoxqg2zcOhLtw787bt/0ChWZ31NYAkIOVp4xqgE+3963bhXv84X5w4xW/QqFZsTUAZFe3qAH65OaBcBfuGR50/8QvUWDOeyUkAJlV1ixqgD48EO7CPYs/eLdMaNYq9gaAjKbtaYgPyhwKd+Geya0fK/fQTNkbALIZmt23p+F57UC4C/dsfuF97qGZHbI4AGTyuDUN0U3hLtwzetZ3qAZny+IAkMWCz9tD9NGBcBfuWf1JuYdmf8HmANC9WtOWhui2cBfumb37tHIPTbNmdQDo2oglDdJ7wl24Z/bp08o9OHWrA0C3qhuGNEhvCHfhntlbTyv34GxU7Q4AXTp51ZAKd+Gecrgr98BM2x0AujM+a0aFu3BPO9yVe1hmJy0PAF3Ze8qMCnfhnni4K/ewbFseALoxZ0OFu3BPP9yVe1B+NmF7AOjc8KPe4S7chXsJwl25B2XVKyEB6NyMbhfuwr0U4a7cQ/LUiPUBoFODjYsmVLgL91KEu3IPycag/QGgQ8u6XbgL97KEu3IPyZL9AaAzY7vmU7gL99KEu3IPyO6YBQKgIyvWU7gL9xKFu3IPyLctEACdWLedwl24lyrclXtA1m0QAO2rtEyncBfu5Qp35R6Mi62KFQKgbVP+ZqpwF+5lC3flHo55KwRAuwZmDadwF+6lC3flHozGgB0CoE1bF335knAX7uULd+UejGU7BEB7Rt80m8JduJcx3JV7KN4ctUQAtKXpCXfhLtzLGe7KPRRNSwRAO+o2U7gL97KGu3IPw8Un67YIgONVNoymcBfupQ135R6INa+EBOB40xZTuAv3EoT7T59W7kGbskYAHGfIqyDDd1u4C/fMPn5auQdtdsgeAXCMbXsZvKdeEe7CPbMfP63cw7ZljwB4uAmvgozAJ4fCXbhndOvfnlbuYdtfsEgAPExt1VrG4J+Fu3DP6OcP/UdT7iGE+zdqNgmAhxgxlv52qnAvRbi/9bRyD77cR2wSAEerehVkJE+53xTuwj2T1//xaeUevI2qVQLgSEuWMhLvCXfhnsmnx/7TKfcATFslAI4y7lWQ0XheuAv3DP7Qxj+ecu+7q7OTdgmAI3z7vKWM5mGZF4S7cO/af/zj08o9inLfs0sAPNicmYzIJ88Ld+HepR/+V3v/gMq97y7OWSYAHmT40atmMh4/e+L9t4W7cO/Czbfa/idU7n23OmybAHiAeRsZ2dMy//23dw6Fu3DvyOFP3vm3Dv4RlXvfzdgmAO432LhoIyPzo6d//9L7v30uo9eFeyTh/mzW/9S/fevjP3X4z6jc+60xaJ0AuM+yhYyx3HPwK+EeSbg/349/SOXeb0vWCYB7je0ayJKWu3AX7so9YLtj9gmAe6zYx7KWu3AX7so9YBd37BMAX1fft49lLXfhLtyVe9DWLRQAd6usGcfSlrtwF+7KPWitio0C4C5TPnAvb7kLd+Gu3MM2b6MA+MrArGksb7kLd+Gu3MPWGLBSAHxpyzKWuNyFu3BX7oF7zEoB8IUFD8qUudyFu3BX7mHbf3PUTgHwV80nLWOJy124C3flHrqmnQLgL0asYqnLPaxw//07H/7qzrMhuPOrD9//k3BX7iG4eLFuqQD4XGXDkzKlLveQwv03dw4PQnL4wkvCXbmHYM0rIQH43PRFo1jqcg8n3N994SA8P/mjcFfu/Xd+ylYB8Mgjk14FWfJyDybcP71xEKIbvxHuyr3/ZoesFQCP7FnEkpd7KOH+zuFBmA7fF+7Kvf8et1YATLxpEEte7oGE+0uhdvtn5f6xcFfufffmhL0CKLvaqj0se7mHEe4/vnEQrrf/JNyVe789uVqzWAAlN+Nvppa+3MMI91cPQvYH4a7c++7iiMUCKLfqhjUsfbkHEe7vHgYd7oc/Fu7Kve82qjYLoNSWnjKGpS/3IML9w4Ow/UK4K/f+O2mzAMps/LsXSc2PftChTsP9//ygADcDD/dni/iX/pdOw/0HgXjml37P+mJ23GoBlNiOJVTuQYT7uweh+71wV+79t2e1AMprzg4q9zDC/afBh/vHwl25B2DdbgGU1fCjT9hB5R5EuL8TfLj/Wrgr9wA86pWQAGU1YwWVeyDh/ovgw/23wl25h8ArIQFKqrJhBJW7cBfuyj0maxXbBVBKUzZQuQt34a7co/LUvO0CKKPBxpNGULkLd+Gu3KPS8C1MAGW0ZAGVu3AX7so9Mk9OWy+A8hmatYDKXbgLd+Uem9kh+wVQOo/ZP+Uu3IW7co/Psv0CKJvxvzV/yl24C3flHp/vTlowgJJ53Popd+Eu3JW7j9wBCN7krlfKKHfhLtyVe5RPuQ/aMIBSWbZ9yl24C3flHqcpGwZQJgNeKaPchbtwV+6R2vD1qQBl4ktTlbtwF+7KPVojVgygPIY3DJ9yF+7CXbnH6tGaHQMojbrdU+7CXbgr92jtr9sxgNJoeqWMchfuwl25x2vFjgGUxfibZk+5C3fhrtzj9ea4JQMoiZNWT7kLd+Gu3GM2bckAyqHmr6Yqd+Eu3JV71Nb89VSAcli3ecpduAt35R63CVsGUArbJk+5C3fhrtyj9sRjtgygDKq+NVW5C3fhrtwjN1u1ZgAlMGPxlPvX/Fy4C3flHp0nfXsqQBk0LZ5yF+7CXbnHzqvcAUpg0kvclbtwF+7KPXrfGbBnAMnzpIxyF+7CXbknwLMyAOlbMXfKXbgLd+Uevz17BpA675RR7sJduCv3FMxWLBpA4urWTrkLd+Gu3FOwbtEAErdl7JS7cBfuyj0FyxYNIG21DWPHj4S7cFfu8Xtyw6QBpG3C2HFvuQt34a7c4zRq0wCSNm3quLfchbtwV+5xmrJpAEn71r6t455yF+7CXbnHyZenAiRt2Msgua/chbtwV+5xPuQ+W7NqAAlbMHXcV+7CXbgr90iNWTWAhM0bOu4rd+Eu3JV7pGasGkDC9gwd95W7cBfuyj1Sj1s1gIR5izv3l7twF+7KPVJrVg0gXeN2jvvLXbgLd+UeqyG7BpCsETPH/eUu3IW7co9V3a4BJGvpCTvHfeUu3IW7co/VSbsGkKwVM8f95S7chbtyj9WeXQNI1saTdo77yl24C3flHit/OxUgWdU3zVxaPnnv1TtvH/Y6YYV7v8I9s8Obd3746T8p93Tsf6di2QAS5XtT0/Lkczf6krDCPdpw/7Mbz/2Tck/HqGUDSJSXyqTkZ7dv9ilhhXvc4X5wcPNd5Z4Mr5UBSNWSkUvIe7cOhLtw7/JD90+VeyqmLRtAonaMXDpuHx4Id+HerVsfK/dEeK0MQKrWjFwyPrpxINyFe/fe/r1yT8Ojlg0gUbNGLhkvHwh34Z7FD71bJgn7f2PZANI0aOSS8cqBcBfu2d4M+UflngbvgwRI05iJS8aHwl24Z/QH38SUhknbBpCkOROXjLeFu3DP+k5I36GahgnbBpAkr3H3pIxwF+5f+r1yT4IXuQOkaepJG5eI28JduGf27g+UewpmbBtAknz/UjLeE+7CPbN/+YFyT8FJ2waQpG0Tl4o3hLtwz+ytHyj3FGzZNoAkrZg44S7chXu/w1255+vbtg0gSU0TJ9yFu3Dve7gr91yt2DaAJH3DxAl34S7c+x/uyj1PTdsGkKRH922ccBfuwr3/4a7cc/QN2waQpDUTJ9yFu3APIdyVe272H7VtAEnasHHCXbgL9yDCXbnnZs22ASSpYeKEu3AX7mGEu3LPy4ZtA0jSrIkT7sJduAcS7so9J9+0bQBJ+s6TJKK/4f4/L+Uv/HD/3wX8W/c33H99qc/+8e/9Kudg1rYBCHeEu3AX7spduAPQH7MmTrgL95DC/aclD3flngOPygAk6ps2TrgLd+EeULgr9xz4y6kAadowccJduAv3kMJduWfndZAAaVozccJduAv3oMJduWfmC5gA0vSoiRPuwl24hxXuyj2rb9g2gCR9w8QJd+Eu3AMLd+We0bdsG0CSvmXihLtwF+6hhbtyz2bFtgEkacXECXfhLtyDC3flnsm3bRtAkh43ccJduAv38MJduWfxmG0DSNKSiRPuwt03p37hp5eUewpO2jaAFNXmTVwi/va2cPeJe2YfX1LuKZgxbgBJGjFxqXhFuAv3zH58SbmnoG7bAJI0Z+KScUu4e1Qmoxv/eUm5p2DCtgEkaczEJeNl4e4T94xevXRJuadg0rYBJKlq4pJ5yP094e4T94w+vaTcU/D3FdsGkKZZI5eMZ4W7T9wzufOvl5R7Cr5p2QAStWbkknFbuPvEPYvDjy9dUu4peNSyASTq20YunYdlXjsU7j5xD+tfR7n3w55lA0iUb2BKyJuvCnefuHfth5cuKfc0TFs2gER5kXtSn7k/dyjcfeLe3XMyz126pNwT4TXuAKlaMHJJlftLd4S7T9y78MK7ly4p91SMWTaARFUtYlrl/l//8uoN4S7cO/L2D//90r/+q3JPxXe8DRIgWV4rk1i5v3jpP//fxz/9dUZ3hHsk4f7C8f8xP/33h3r390E3u3LvmJfKAKRrxcwlV+45+Llwj+QZ91cvlYNyb5+XygCky2tllLtwF+7KPSEn7RpAsrxWRrkLd+Gu3BPipTIA6Zo0c8pduAt35Z6OIbsGkK4NO6fchbtwV+6pWLNqAAnbM3TKXbgLd+WeisetGkDC5g2dchfuwl25p2LGqgEkzHenKnfhLtyVezJ8bypAyoZnLZ1yF+7CXbmn4W9qVg0gZb6CSbkLd+Gu3BOxY9MAkjZt6pS7cBfuyj0NUzYNIGU1D7krd+Eu3JV7IkaNGkDa5e5N7spduAt35Z4Eb3EHSN1jxk65C3fhrtxTsGzRABL334ydchfuwl25p2DOS2UA0lareCGkchfuwl25J/D7PlsxaQCp27F3yl24C3flHr89ewaQvBlzp9yFu3BX7vEbsWcAyRsygcpduAt35R697wzYM4Dk1b5l8JS7cBfuyj12K+YMoAQ8K6PchbtwV+6elAEgAlXvlVHuwl24K/fIzVatGUAZPG7ylLtwF+7KPW6P2TKAMqjNmTzlLtyFu3KP24QxAyhHua/ZPOUu3IW7co/Zmm9NBSiJk0ZPuQt34a7cYzZtyQBKYtz6KXfhLtyVe8T+x6QlAygLr3JX7sJduCv3iHmJO0B51M2echfuwl25x2vdjgGUxrC/nqrchbtwV+7+aioAEZgyfMpduAt35R6reSsGUCKDvj1VuQt34a7cI/U3vjUVoFSWVK1yF+7CXbnH6aQNAyiVIR+5K3fhLtyVe5RmB2wYQLk8JmqVu3AX7so9RssWDKBkxr8rapW7cBfuyj0+3/XlSwA+cqes5S7chbty94E7ACHzlLtyF+7CXbl7wh2AGJyUtMpduAt35R6baesFUEKD35S0yl24C3flHpdveoc7QCn5+lTlLtyFu3KPjC9NBSinypqiVe7CXbgr95isVWwXQDmNCFrlLtyFu3KPyYjlAiip4UcFrXIPI9x/G3y4vy/clXsAHq1ZLoCymtOzyj2McP918OH+78JduQdgzm4BlNe3/5bS+Pv/+rsH6zjc/+7/t3dvv3FcB57HxWY3oSJ4p2RQhESAMkCCtyFI8BpeQUkEJL8MsIZhEbYD7EscX2I9eAYy5DjZ2bWzycCIsUAyDuKsMVlhNXGcsZBsDMXOH7dybMcX3brZ1VWnzvl85nEw07ES/c43herTuXvpz8GH+1/z/6c+ajncj7jH//zXlP4Wf8epBZCwwcf0rHIPINyP3nkt8G7/4Ei4K/fSPTbs1AJI2Vk5q9xDCPeW/0UU7U/CXbmXb9aZBZC0nsflbPLlHkS4/yLwcP/zi8JduZftcb+9BJC2rE/NJl/uQYT7S78PuttvH3nirtxL5ypIgOTLfUbNpl7uQYT7UdBfT735B+Gu3Es348ACSN7Q99Vs4uUeRrgf/TbkX186Eu7KvfS/u+POKwAWxGzi5R5IuB+9HWy3//JIuCv30i04rQDIul0JmXi5hxLu7/wy0G6//o5wV+6le6zbcQXAiROjWjbtcg8l3I+O/vetALP91kcvHgl35V66EWcVAHfVJ7Vs0uUeTrgf3bl+M7SvpV7/Y+f+cYW7cm/aZN1ZBcBneqVs0uUeULgfHf3xw9sfhBLvN998+6PXO/kPK9yVe9N6nVQAfG5dyqZc7kGF+0t3Hd25EYI7R0ef/OpIuCv3EEw4pwD4Qv9FKZtwuQcV7kkR7sq9SRf7nVMAfCGbVrIJl7twF+7KPXDTjikA/q5rXsmmW+7CXbgr97DNdzmlAPjKiJBNt9yFu3BX7mE744wC4GvqU0I22XIX7sJduQdtylWQAHxddl7HJlvuwl24K/egnXdEAfDNcp/QsamWu3AX7so9ZJuZEwqAbxq4pGMTLXfhLtyVe8AuDTqfAPi2czI20XIX7sJduQfsrAfuANyjNidjK+nf2vPXG7eFe0XC/e22fwz2HeVeOXM1pxMA9zqtgSvX7D/+/WtPtOXmMf5vhHtZ4Z6DD9748I5yr5TTziYA7qPhSshK+cH/+283nyiDcK9wuH/2X9au/1G5V8eMF2UAuK8xMVwl/3nriSeEu3A/htf+Q7lXxpiTCYD7+44arox//PHNJ4S7cD/mQ/cPlXtFnHQuAfAAg48J4so8b3/iCeEu3I9d7r9Q7pXw2LBzCYAHmRXEVfla6i3hLtzbcOuGcq+CUacSAA/U87gkroY3nhDuwr0db7lbpgIe73EqAfBgfZK4En73hHAX7u35g3IPX58zCYCHyGZEcRW8K9yFe5v+dKTcQzfjSALgocYvquIKeE24C/c2vXmk3AN3cdyJBMDDLajiCnw19QnhLtzbdUe5B27aby8B8Ajd87o4dD/4nXAX7l5yj73c57udRwA8yqgwDt6/C3fh3ra/HCn3oI04jQB4pPqkMBbuwj3+cP+XI+Uessm60wiAR+sVxsJduAt35V6uFWcRAM2YUMbCXbgLd+VepgknEQBNGXAlpHAX7sJduZfoYr+TCIDmTEtj4S7chbtyL8855xAATarNaWPhLtyFu3Ivy3yXcwiAJmVntLFwF+7CXbmX5YxjCICmNabEsXAX7sJduZdjquEUAqD5R+5j4li4C3fhrtzLcd4hBEAr/kEdC3fhLtyVexk2nUAAtGTwkjwW7sJduCv34l0adAIB0Jqz8li4C3fhrtyLN5s5gABoTe1xfSzchbtwV+5Fm+tx/gDQqtP6WLgLd+Gu3IvW5/QBoGXZjEAW7sJduCv3Ys14UQaAYxj6vkIW7sJduCv3In1/SLgDcBzfUcjCXbgLd+VepAUnDwDHMvyYRBbuwl24K/fiPDbs5AHgeGYlsnAX7sJduRdn1LkDwDHVJzWycBfuwl25F+XxunMHgOPq08gh+sF/Cnfh3rZfHCn34PQ6dQA4tmxdJYfod8JduLftDy8q99CsN5w6ABzf+EWVHKB/E+7CvW13Uv/jD6/cL447cwBox4JKDtFrwl24t+kDf/7Blfu0EweAtnTPq+Tw/Jd3hbtwb9Of/PmHVu7z3U4cANozIpO95C7cIwz3P7/k34DAyn3EeQNAm1wJGeK1Mj/4P8JduLflbX/8oZX7pKsgAWhbr04O8eupN4W7cG/DrRu/8ucfWLmfd9oA0L4JmRzgM/d/F+7CvQ0/96cfWrlPOGsAyMGAKyFDLPefCHfhflw33/OHH1q5XxzIHDYA5GBaJgfof3x0S7gL9+O9J/MXf/bBlfs5Jw0AuajNyeQA/eNfr98U7sK99cftb93wRx9cuc91OWkAyMcZlRxkuf/0r+//8JZwF+6tPGz/2Y9le4jlfto5A0BOGlMqOUg/vdscr99o123hXpFwf7vtf68//dUnL/pzD7DcpxrOGQDyMvYDgvTTF3PwVqvh/iL5aDXcf+mPrFN+9Vy5f5PHnDIA5GdTI8db7sJduFNuuX/HjTIA5GjwkkaOttyFu3Cn1HK/NOiMASBPZyVytOUu3IU7pZb7rBMGgDxlPY9L5FjLXbgLd8os98d7HDEA5Ou0Qo613IW7cKfMcu9zvgCQ9zP3GYUcabkLd+FOieU+45upAORu6LsKOc5yF+7CnfLK/btDwh2A/J0UyHGWu3AX7pRX7gvOFgA6oPsxgRxluQt34U5p5T7f7WwBoAOyUX0cZbkLd+FOaeU+4mgBoCPqk/o4xnIX7sKdssp9su4NdwA6o08ex1juwl24U1a59zpXAOiUdXkcYbkLd+FOSeW+7lQBoGPGL8rj+MpduAt3yin3i/1OFQA6Z1odx1fuwl24U065TztTAOicrGteHUdX7sJduFNKuc93OVQA6KQRcRxduQt34U4p5X7GiQJAR9WnxHFs5S7chTtllPtU3YkCQGetaOPYyl24C3fKKPfzzhMAOm1CG0dW7sJduFNCuW86TQDouIFL2jiuchfuwp3iy/3SgNMEgM47J43jKnfhLtwpvtzPOksAKEBtThpHVe7CXbhTeLnP1ZwlABQgO62Moyp34S7cKbzcTztKAChEw5WQUZW7cBfuFF3uMw0nCQDFGPs+ofvpS01rNdxvXycfb7Qa7i9RuF8915G/oGPOEQCKsimMIyr3VsOdsgj3aMr9pFMEgMIMbgvjeMpduAt3ii337WGnCADFmdXF8ZS7cBfuFFvuo5lDBIDi9FzQxdGUu3AX7hRa7hd6nCEAFKlPFkdT7sJduFNoufc5QQAoVDYji2Mpd+Eu3Cmy3NcdIAAUbOi7sjiSchfuwp0Cy/3iuDfcASjagiqOpNyFu3CnwHJfcHoAULjux1RxHOUu3IU7xZX7fLfTA4DijYriOMpduAt3iiv3EWcHACWoT4riKMpduAt3Civ3ybqzA4ASNHo1cRTlLtyFO4WVe6+jA4ByrGviGMpduAt3iir3CecGACXpv6iJIyh34S7cKajcL/Y7NwAoy7QkjqDchbtwp6ByP+fUAKAsWde8JK5+uQt34U4x5T7f5dgAoDwjirj65S7chTvFlPsZZwYAJapPKeLKl7twF+4UUu5TroIEoFTnBXHly124C3cKKffzTgwAyjUhiKte7sJduFNEuW86LwAo2cAlQVzxchfuwp0Cyv3SYObAAKBk5/RwxctduAt3Cij3s04LAEpXm9PD1S534S7c6Xy5z9WcFgCU77Qcrna5C3fhTufLvc9ZAUAAGq6ErHa5C3fhTsfLfabhDXcAQjCmhitd7sJduNPxch9zUgAQhu+o4SqXu3AX7nS63BecEwAEYnBbDVe43IW7cKfD5b497JwAIBSzYrjC5S7chTsdLvdRpwQAwei5IIarW+7CXbjT2XJ/vMcpAUA4+rRwdctduAt3OlvuvW6UASAg2boWrmy5C3fhTkfLfb3hjAAgJOMXtXBVy124C3c6We4Xxz1wByAsC1K4quV+XRFXxMcquZLlPu18ACAw3fNSuKLl/hNFXBHvieQqlvt8t/MBgMBkI0q4muX+1IeKuCL+RSNXsdxHHA8ABKc+qYSrWe43FHE13Hz9RY1cvXKfrDsdAAhPrxCuaLn/WhNXws8EchXLfcXZAECIJoRwNcv9fU1cCR/q4wqW+4QbZQAIUTZwSQhXstw//UAUV8Cbn8jj6pX7pX5HAwBhmtbB1Sx3X0/11VQ6U+7nnAsABKo2p4MrWe4vviuL/foSHSj3uS7nAgChOiODq1nun/5QGIf+zVQvylSx3E97wx2AYDWmvkv1/PSppz69LY2DdvvTpwje0TPf+qs11XAqABCuMRVc0XL/5OOb6jjcG9zfF8WVLPfzzgQAApZtquCKlvuTN94WyIF694YkrmS5bzoSAAja4LYKrmi530339974wHP3wJ61v3n7wztXn1TEVSz3S4NOBADCfuR+VgRXt9yfvBuIr7fj49a+b/l6Dlp7Of/dPD6ytV+a/W1bn/XFvytUsdxnHQgABK7nggiubLm37bethXseH9naCz6/zOMjW7uCx+vpqZb7XI/zAIDQndbA6Za7cBfufFnufU4DAIKXzWjgZMtduAt3vij3GVe4A1ABQ89p4FTLXbgLdz4v9+eGnAUAVMFJCZxquQt34c7n5b7gJACgEoYfk8CJlrtwF+78rdy3h50EAFTDrAJOtNyFu3Dnbw6cAwBURN2VkImWu3AX7nxmyVWQAFRGnwBOs9yFu3DnMztOAQAqI1sXwEmWu3AX7ty16ipIACpk/BkBnGK5C3fhzlNPXR0X7gBUyYL+TbHchbtw56mnNpwAAFRK97z+TbDchbtw56m1bicAANUyIn8TLHfhLtx5asv+A1Ax9Sn5m165C3fhznLd/gNQNb3qN71yF+7CnRXrD0D1TKjf5MpduAv35K3afgAqaOCS+k2t3IW7cE/dYr/tB6CKzonf1MpduAv31O1afgAqqTYnfhMrd+Eu3BO31mX5AaimM9o3sXIX7sI9cft2H4CKargSMrFyby3c3yg+3K8LdzppuWH3AaiqMembVrkLd+GetsPM7ANQWZvSN6lyF+7CPWmndDsAFTa4LX1TKnfhLtxTtjho8wGosrPKN6VyF+7CPWUHFh+ASuu5oHwTKnfhLtwTttRj8QGotEaf8E2o3IW7cE/YjsEHoOrlPiN80yl34S7c07WX+WoqAFU39JzwTabchbtwT9aTQ9YegOo7qXuTKXfhLtyTtWHrAYjA8LzuTaXchbtwT9Vat60HIAajsjeVchfuwj1VroIEIA71SdmbSLkLd+GeqOW6pQcgDr2qN5FyF+7CPVGuggQgFtm66k2j3IW7cE/TqpkHIBrjz6jeJMpduAv3JF3tt/IAxGNa9CZR7sJduCfJVZAAxKTLlZBJlLtwF+4pWuuy8QDEZETzplDuwl24p2jLwgMQlfqU5k2g3IW7cE/QcsPCAxCVbEXyJlDuwl24J2jFwAMQmwnJG3+5C3fhnp7L1h2A6AxckrzRl3sJ4f6WcKdUiwPWHYD4nFO80Ze7cBfuydm17QBEqDaneGMvd+Eu3FOzVLPtAMTojOCNvdyFu3BPzb5lByBKmSshYy934S7cE7PnKkgAIjWmdyMvd+Eu3BNzaNcBiNWm3o273IW7cE/LKasOQLQGt/Vu1OUu3IV7UhYHrToA8ZqVu1GXu3AX7kk5sOkARKzngtyNudyFu3BPyVKPTQcgYlmf2o253IW7cE/JjkkHIO5yn1G7EZe7cBfuCVl1FSQAkRt6Tu3GW+7CXbin4+qQPQcgdgtiN95yF+7CPR0b1hyA2GXd82I32nIX7sI9GWvd5hyA+I1q3WjLXbgL92RsecMdgATUJ7VurOUu3IV7KpbrthyAFPRK3VjLXbgL91SseOAOQBrWpW6k5S7chXsiVu04AInovyh14yx34S7c03C1344DkIpppRtnuQt34Z6GXSsOQDK6XAkZZ7m/31LS3s6joN5t6SP/lMdH/r6lj3xP5cZnrSsz4wCkIjvzHLH50ZNPXv2wtcffT+bg49Yef+fxkW+39JE/f5LobBlxABJSnxK6MZb7X1pK2t/mkVDvtfSRH13N4SP/1NJH/vdrOjc2y26UASCpR+7ndW6E5X719ZstJW0OCXXtDy1V9I0cPvLqz1v5xFuf6tzorJhwANIyoXNjfOb+RgtJ+9onuUTUmy185A9z+cRPb7XwkW/L3Ohctt8AJGZgW+dGWO6tPIz+OJeIuvaTFj7yw1w+8oVWvhD7F50bm8UB+w1Aas7J3BjLvfmrEm+9nk9GffpB0x/55icv5PKRd5p/I+hnLwjd2LgKEoD01OZkbnz+9X/dLPbp991H7h81+4k383r63fxT/lt/0LmxWapZbwDSc1rmxqjZGyF/md+j6GZvhHz/am4f2ezPPv3cA/fo7NtuABKUzajcGJ+5N/c0+q1Pcgupq59cL/Cd+s8/8tPbTT3if++qzo3Nnp9eAiBJQ8/I3Bj930dfunLz/Xxj6r1Hv6Bz66NcH35/8vGjP/K1//C8PTpXDy03AGk+cj8pcmP0/T/+9hFR+0beb35fvXP94R95860bOT/8fuHGI16XuXn9dZkbn1OGG4BEDbsSMkrf/dHrH73969fu/+D712+8d+efr+X/CsmdD2//+v6P+l/79e0P73wv998vfeHJG++/8eYDPvKHb330ul9MjdDisN0GIFWzIjfSWyFfeOFBb4m88OD/VZtP3R/0//fqC9eudeRd86tPXr32wH8x17zeHqMDqw1AsnouaNxIy13iEaGlHqsNQLr6JK5yh6rYsdkAJCxbl7jKHaphtWGzAUjZ+CsSV7lDFVwbt9gApG1B4Sp3qIINew1A4rrnFa5yh/CtddtrAFI3InCVO4RvKzPXAKSuPilwlTuEbrlurQGgV98qdwjdiq0GgBMnJvStcoewXbHUAHDXwCV9q9whZIv9lhoAPjMtb5U7hGzXTgPA39Tm5K1yh3CtddlpAPib7Iy6Ve4Qrn0zDQBfaEypW+UOoVpuuMMdAL40Jm6VO4TqvI0GgK9silvlDmG6bKEB4CvZ4La4Ve4QosUBEw0AX3dW2yp3CNGBF9wB4BuP3HsuaFvlDuFZqhloAPim09JWuUN49q0zAHz7mfuMtFXuEJo9L8oAwD2GnpG2yh3CcvXQNgPAvU4qW+UOYdmwzABwH8OuhFTuEJTFYW/KAMD9jApb5Q4hObDLAHBfdVdCKncIyFLdLgPA/fXpWuUO4dixygDwIOu6VrlDKFa94A4ADzT+iq5V7hCGa+M2GQAebFrWKncIg6sgAeBhuudlrXKHEKx1W2QAeJgRVavcIQRb9hgAHqo+pWqVO5Rv2VWQAPAIvaJWuUP5VqwxADzKhKhV7lC2K7YYAB5p4JKoVe5QrsUBWwwAj5Sd07TKHcq1a4oBoAm1OU2r3KFMSzVLDADNOCNplTuUad8OA0BTGq6EVO5Qor2GHQaA5owpWuUO5Tm0wgDQrE1Fq9yhLKcyIwwAzRrcVrTKHcqxOGiDAaB5s4JWuUM5DiwwALSgdkHQKncow1KPBQaAVvTpWeUOZdjxhjsAtCLLZvSscofiuQoSAFo19IyeVe5QtKtD1hcAWrUgZ5U7FG3D9gJAy4bn5axyh2KtDdteAGjdqJpV7lCsLcsLAMdQn1Szyh2KtOwqSAA4jkavmFXuUKQdwwsAx5Kti1nlDsVZNbsAcEzjr4hZ5Q5FudZvdQHguKa1rHKHouz67SUAOK6sa/4ZkvKjq1CWtS6jCwDHNyJllTsUw1WQANCO+pSUVe5QhOW6xQWAdqwoWeUORVixtwDQngklq9yh8y5bWwBo08C2klXu0GmLA9YWANp1Tsgqd+i0XVsLAG2rzQlZ5Q6dtVSztQDQtuy0jlXu0Fn7phYActCY0bHKHTppL7O0AJDHI/cxGavcoZMODS0A5GNTxip36JxTVhYAcjLoSkjlDh2zOGxlASAvsypWuUOnHNhYAMhNzwUVq9yhM5Z6bCwA5KdPxCp36IwdCwsAOcpcCancoSNWXQUJALkaelbEKnfI37Uh+woA+VrQsMod8rdhXQEgZ93zGla5Q97Wuq0rAORtVMIqd8jblm0FgNzVJyWscod8Ldd9NRUAcpf1KljlDvlaMa0A0AnrCla5Q55W7SoAdES/KyGVO+Rosd+uAkBnTAtY5Q752fWCOwB0SNecgFXukJe1LqsKAJ1yRr8qd8jLfsOoAkCn1Kf0q3KHfCzXbSoAdM55+arcIR+uggSATmpsylflDnm4bFABoKMGt+Wrcof2LQ7YUwDorHPqVblD+w6sKQB0WM8F9arcoV1LNXe4A0CHZafFq3KHdu0bUwDofLnPiFflDu3Z87wdAAow9Kx4Ve7Qju8dWlIAKMJJ7arcoR2n7CgAFGJ4Xrsqd2jjKshhOwoAxZiVrsodXAUJAOGruxJSucPxr4LssaIAUJQ+5arc4bh2bCgAFCZbV67KHY5n1VWQAFCg8VeUq3KH47g2LtwBoEgLwlW5S1COY8N+AkChulwJiXLnGNa67ScAFCob0a0od1q3ZT4BoGD1Kd2KcqdVy3XrCQBF65WtKHdatWI7AaB4E7IV5U5rrrhRBgBKMLAtW1HutGKx33ICQBmmVSvKnVbs2k0AKEVtTrWi3GnhKsguuwkA5TgjWlHuNG/fagJASRquhES507S9htUEgLKMaVaUO80670oZAChNtqlZUe4055TJBIASDboSEuVOc1dBDnrgDgBlPnI/K1lR7jTjwGACQKl6LkhWlDuPtlSzlwBQrtOKFeWOqyABIHzZjGJFufPIqyCNJQCUbuhZxYpy5+G+d2grAaB8JwUryp2H23CjDAAEYHhesKLceZi1bksJACEY1asod1wFCQDhq7sSEuXOQyzX7SQAhGFHrqLcebAdKwkAgcjW5SrKnQdZNZIAEIzxV+Qqyp0HXAXZbyMBIJxH7tOvwN/96Bp8ZddEAkBAuubVKsqd+1nrcoc7AIT0yH1ErKLcuZ8tAwkAQalPiVWUO/dabthHAAjrkfuKVkW5c68V8wgAoZX7hFZFufNtl40jAARnYFurotz5psUB2wgA4TknVVHuuAoSAIKX1eakKsqdr1uqmUYACNEZpYpy5+v27SIABKkxo1RR7nxlz1WQABCoMaGKcucrh34zFQBCtSlUUe586ZRNBIBgDboSEuXOl1dBDtpEAAjXrE5FufO5A4sIAAHruaBTUe787SrIHosIAAFr9MlUlDuf2TGIABC0zJWQKHfuWnUVJAAEbuhZmYpy5+UhawgAoVtQqSh3NmwhAARveF6lotxTt9ZtCwEgfKMiFeWeui1vuANA+LL6pEhFuadtuW4KAaAKejUqyj1tKx64A0A1rP9XuI8fvUAaVjMzCADVMP60RkW5p+vlfisIAFUxLVFR7unatYEAUBldcxIV5Z6qtS4bCADVMaJQUe6p2rKAAFAhjSmFinJP07IbZQCgSrIVgYpyT9OKAQSAatkUqCj3FF22fgBQMQPbAhXlnp7FAesHAFVzTp+i3F0FCQCEr+ZKSJR7cpZqtg8Aque0PEW5p2bf8gFA9WSNGXmKck/LXmb6AKCKxtQpyj0th3YPAKrJlZAo96ScsnoAUFGDroREuad0FeSw1QOAqpoVpyj3dBzYPACorJ4L4hTlnsxVkD02DwCqq0+botxTsWPxAKDCMldCotwTsdqweABQZUPPalOUewpeHrd3AFBtC9IU5Z6CDWsHABXXPS9NUe7xW+u2dgBQdaPKFOUev63M2AFA1dUnlSnKPXbLdVsHANXXK0xR7rFb8cAdAGKwLkxR7nG7YucAIAr9TwtTlHvMFvvtHADEYVqXotxjtmvlACASXXO6FOUer6Uub7gDQCQaZ2Qpyj1e+0YOAOIp9ylZinKP1V7dA3cAiEY2pkpR7tFeBWniACAmm6oU5R6ny/YNAKJ65D64rUpR7lFeBTlg4AAgLmdFKco9RgdecAeAyB651y6IUpR7hFdB1swbAMTmtCZFubsKEgCowDP3GU2Kco/uKkgvygBAhIae1aQo97h879CyAUCMTkpSlHtcNuwaAERpeF6SotxjsjZo1wAgTrOKFOUe1VWQVg0AItXjSkiUe0xXQdatGgDEqk+QotzjsWPTACBa2bogRbnHYtVVkAAQsfHn/wma85t/Jmivjls0AIjZgh5FucfBVZAAELeueT2Kco/BWrc9A4C4jchRlHsMtqwZAMQtq0/JUZR79S27ChIAoterRlHu1bdiywAgfhNqFOVedVcsGQAkYGBbjaLcq22x35IBQAqmxSjKvdp27RgAJKE29yw07zffIzBLXXYMAJKQndGiKPcq2zdjAJCIxpQWRblX117DigFAKsakKMq9ug5tGACkY1OKotyr6lRmwgAgHYPbUhTlXk2LgxYMAFIyq0RR7tV0YL8AICVZzwUlinKv5FWQPQYMANJyWoii3Ktox5UyAJDaM/cZIYpyr55V30wFgOQMPS1EUe5V8/KQcAeA9JzUoSj3qtmwXACQoOF5HYpyr5a1bg/cASBB2agMRblXy5bhAoAk1V0JiXKvlGVXQQJAonZUKMq9UldBWi0ASFS2rkJR7hW6CtJoAUCy+p9XoSj3qni132YBQLqmRSjKvSp2/WYqACSse06EotwrchVkl8UCgJSNaFCUu6sgAYDw1ac0KMq9Cvbq9goA0rYiQVHuVbBirQAgcY1NCYpyD99lYwUAyRvYlqAo99AtDtgqAEhedk6BotyDvwrSVAEAJ2quhES5B26pZqkAgBMnzghQlHvY9u0UAHBXY0aAotyDvgrSb6YCAJ/JxvQnyj1kh2YKAPicKyFR7gE7ZaMAgC8MuhIS5R7uVZCDNgoA+NKs/ES5h+rAQgEAf9dzQX6i3AO9CrLHQgEAX+lTnyj3MO3YJwDgK1nmSkiUe5BWMwMFAHzd0NPqE+UenleHrBMA8E0L4hPlHp4N2wQAfEv3vPhEuYdmrdubMgDAt2Sj2hPlHpot0wQA3KM+qT1R7mFZrnvgDgDco9ErPVHuYVkxTADA/axLT5R7UFdBWiUA4L76n5eeKPeAroLst0oAwP1NK0+Uezh2bRIAcH9Z15zyRLkHcxVkl1ECAB5kRHii3F0FCQCErz4lPFHuYdhrWCQA4MFWdCfK3VWQAED4sk3diXIPwWVzBAA81MC27kS5l29xwBoBAA93Tnai3F0FCQCEr+ZKSJR76ZZqtggAeITstOpEuZdt3xQBAI/UmFGdKPeSr4LMLBEA8EjZmOhEuZfq5UNDBAA046ToRLmX6ZQVAgCaMuhKSJR7mVdBDlshAKA5s5oT5V6eAxsEADSp54LmRLmXdhVkjw0CAJrVJzlR7mXZsUAAQNMa65IT5V6OVVdBAgAtGHr+acjDOy/TklfHhTsA0IoFxYlyL8OGbgcAWtI9rzhR7sVb67Y+AEBrRgUnyr14W7YHAGhRfVJwotyLtly3PQBAi7JevYlyL9qK6QEAWreuN1Huxbrim6kAwDEMbOtNlHuRFvvtDgBwHNNyE+VepF0P3AGAY6nNyU2Ue3GWuqwOAHA8Z9Qmyr04+w2jAwAcS9aYUpso96Ls6XYA4NjGxCbKvSjnveEOABxbtik2Ue7FOGVwAIA2DLoSEuVezFWQA/YGAGhDY1ZrotyLcGBuAIC21C5oTZR7AVdB1qwNANCe01IT5V7AVZC2BgBoUzYjNVHuHb8K0tQAAG0bel5qotw769VDSwMAtO+k0kS5d9aGK9wBgBwMzytNlHsnrQ3bGQAgD66ERLm7ChIAqIC6KyFR7h20XLcyAEA++nQmyr1zdrzhDgDkJFvXmSj3Tlk1MQBAbsZdCYly79RVkOMeuAMA+VmQmSj3Dl0FaV8AgBx1uRIS5d6ZqyC77AsAkKNsRGWi3Dthy7wAALmqT6lMlHsHroJsWBcAIF+9IhPlnr8V2wIA5G1CZKLc83bZsgAAuRvYFpko93wtDlgWACB/0xoT5Z6vXbsCAHRAbU5jotzztFSzKwBAJ5yRmCj3PO37zVQAoCPqMxIT5Z6fPVdBAgAdMqYwUe75ObQpAECnbCpMlHteTlkUAKBjhucVJso9H2vDFgUA6JxRgYlyz8eWPQEAOqg+JTBR7nlYrtsTAKCTzutLlHsOXvXNVACgwxb0Jcq9fRu2BADosK4L+hLl7jdTAYDw9cpLlHu7VvxmKgDQeSflJcq9zRdldDsAUICal2VQ7u3dKONFGQCgEOefl5co9+NbdKMMAFCQaeWOcm/jp5e8KAMAFKQ+oy5R7se16qeXAIDCDM6rS5T78awNWxAAoDg74hLlfjw79gMAKNK0uES5H8euF9wBgEI11sUlyr11VxrWAwAoVm1SXKLcW77BvcsDdwCgaAO+oIpyb/WLqf2WAwAo3orb3FHuLXl1xW4AACXIRrQlyr2lX14yGwBAOeW+oC1R7s3bMBoAQEnhXne1DMq9+Qtl/GIqAFAa5Y5yb9Zqj8UAAEqT1Wa0Jcq9GXtdBgMAKFPXlLZEuTdxgXu3tQAASpV1X9CWKPdHWRo2FgBA2QaVO8r9Ud0+YCkAgNI1+ue0Jcr9od3uB1MBgBBkA565o9wf9n77QGYnAIAgDPuGKsr9wd0+rNsBgEBk3TPPQwe982p1uQcSAAip3Gvr2hLlfj9+dwkACEvPprZEud/rsm4HAMKS1Re0Jcr92zYaxgEACM4ZbYly/6YtX0sFAEJ0fk5coty/snTeKgAAYRqcEpco9y8tD3hPBgAIVFbzFVWU+xeu1LwnAwCEqzH7tLpEud910NDtAEDAssaKF91R7q8urWS6HQAIu9yzbq/LkHy5XxnW7QBA+OneOLMtL0m53Be3vCYDAFQj3cfdLkPC5b437nE7AFCVcq/vyksSLfeXN3pkOwBQnXI/cX5SX5JiuS8fNtzeDgBUKt3rB950J71yP+jxejsAUDmDEwKTtMp9td/b7QBABWWNHXe6k1C5r+2rdgCgqunetaAwSaXcN7r8lQcAKhvuJ04MnJSYpFDuV/r9hQcAKm5oXWMSe7mvHvpOKgBQfdnhjMgk4nJ/eW/Hd1IBgDjKvdF3QWUSa7kv79T9JQcAIgn3u1a8MEOU5b63X/e0HQCIK96HNnUmsZX75fP+bgMAEab74O680iSecl/ccJMMABBrunePTkpN4ij35a1uX0kFACJu9xPj0x67U/lyXzt1mLkAEgCIXX1n4jdykwqX+95+TbYDAGkYPHC1OxUt972DQX+DAYBk3H1YOXx6c1tyUq1yX1zd6vbXFwBIT8/KwpzopCrlvnRqv+ZvLQCQqsbA/oJfVSX4cl+6vHXo91EBgKR99g2/7t5dr7wTbLkvb+z3Z25+BAD4vN57xvtmNyffEaAEVO5rqxtbh90ukAEA+Ea7332mmdWG9mcXrkx5851Sy31t78rGwf5h7Yv/VgkAwD35/tkbCXf/pz441Ls/Mjo7PT19Epp0qh0bG7sHB1v7+zuHg/UTWaPR8NcRAKCJgD/x2SvFWebNYgr+j53/wAEAHCukwH/kAAAAAAAAAAAAAAAAAAAAAAAAAAAAAAAAAAAAAAAAAAAAAAAAAAAAAAAAAAAAAAAAAAAAAAAAAAAAAAAAAAAAAAAAAAAAAAAAAAAAAAAAAAAAAAAAAAAAAAAAAAAAAAAAAAAAAAAAAAAAAAAAAAAAAAAAAAAAAAAAAAAAAAAAAAAAAAAAAAAAAAAAAAAAAAAAAAAAAAAAAAAAAAAAAAAAAAAAAAAAAAAAAAAAAAAAAAAAAAAAAAAAAAAAAAAAAAAAAAAAAAAAAAAAAAAAAAAAAAAAAAAAAAAAAAAAAAAAAAAAAAAAAAAAAAAAAAAAAAAAAAAAAAAAAAAAAAAAAAAAAAAAAAAAAAAAAAAAAAAAAAAAAAAAAAAAAAAAAAAAAAAAAAAAAAAAAAAAAAAAAAAAAAAAAAAAAAAAAAAAAAAAAAAAAAAAAAAAAAAAAAAAAAAAAAAAAAAAAAAAAAAAAAAAAAAAAAAAAAAAAAAAAAAAAAAAAAAAAAAAAAAAAAAAAAAAAAAAAAAAAAAAAAAAAAAAAAAAAAAAAAAAAAAAAAAAAAAAAAAAAAAAAAAAAAAAAAAAAAAAAAAAAAAAAAAAAAAAAAAAAAAAAAAAAAAAAAAAAAAAAAAAAAAAAAAAAAAAAAAAAAAAAAAAAAAAAAAAAAAAAAAAAAAAAAAAAAAAAAAAAAAAAAAAAAAAAAAAAAAAAAAAAAAAAAAAAAAAAAAAAAAAAAAAAAAAAAAAAAAAAAAAAAAAAAAAAAAAAAAAAAAAAAAAAAAAAAAAAAAAAAAAAAAAAAAAAAAAAAAAAAAAAAAAAAAAAAAAAAAAAAAAAAAAAAAAAAAAAAAAAAAAAAAAAAAAAAAAAAAAAAAAAAAAAAAAAAAAAAAAAAAAAAAAAAAAAAAAAAAAAAAAAAAAAAAAAAAAAAAAAAAAAAAAAAAAAAAAAAAAAAAAAAAAAAAAAAAAAAAAAAAAAAAAAAAAAAAAAAAAAAAAAAAAAAAAAAAAAAAAAAAAAAAAAAAAAAAAAAAAAAAAAAAAAAAAAAAAAAAAAAAAAAAAAAAAAAAAAAAAAAAAAAAAAAAAAAAAAAAAAAAAAAAAAAAAAAAAAAAAAAAAAAAAAAAAAAAAAAAAAAAAAAAAAAAAAAAAAAAAAAAAAAAAAAAAAAAAAAAAAAAAAAAAAAAAAAAAAAAAAAAAAAAAAAAAAAAAAAAAAAAAAAAAAAAAAAAAAAAAAAAAAAAAAAAAAAAAAAAAAAAAAAAAAAAAAAAAAAAAAAAAAAAAAAAAAAAAAAAAAAAAoBn/H+iVNw5mZVm9AAAAAElFTkSuQmCC;clipPath=inset(16% 22.33% 18% 23.67%);" vertex="1" parent="1">
          <mxGeometry x="-360" y="-599" width="35" height="28.52" as="geometry" />
        </mxCell>
        <mxCell id="uxV9D01Ll2PjdH4FGNLQ-56" value="" style="shape=image;verticalLabelPosition=bottom;labelBackgroundColor=default;verticalAlign=top;aspect=fixed;imageAspect=0;image=data:image/png,iVBORw0KGgoAAAANSUhEUgAAAgAAAAIACAYAAAD0eNT6AAAACXBIWXMAAOw4AADsOAFxK8o4AAAdPElEQVR4nO3dvW5c16EF4KMgrFg4eQI5TyAFYJ8AeQCbT2DdJ4jSsonTpI0DpI/9BLTbCxCRewKRnsDyE0Qq0lwWczGcITXkkMP5OT977/V95dAwRI6ts85aZzafzWazDgDI8gvvNwDkEQAAIJAAAACBBAAACCQAAEAgAQAAAgkAABBIAACAQAIAAAQSAAAgkAAAAIEEAAAIJAAAQCABAAACCQAAEEgAAIBAAgAABBIAACCQAAAAgQQAAAgkAABAIAEAAAIJAAAQSAAAgEACAAAEEgAAIJAAAACBBAAACCQAAEAgAQAAAgkAABBIAACAQAIAAAQSAAAgkAAAAIEEAAAIJAAAQCABAAACCQAAEEgAAIBAAgAABBIAACCQAAAAgQQAAAgkAABAIAEAAAIJAAAQSAAAgEACAAAEEgAAIJAAAACBBAAACCQAAEAgAQAAAgkAABDol970p51fXn3Tdd2vuq77+vTk6H3pf142O7+8mr+Xb7qu+9L7CaTSAGxnfrH4quu6n84vr749v7z6vIY/NA87PTn60HXd/ML/9vzy6ssH/yGAxgkA23mz8k8JAm34vuu6z+aFwLLhAYjybDabece3cH559bbruhcP/JPfmQbqs5wB/rPyB39nEgCSaAC29+aRf1IjUKHlDPDDyp/8hUkASCIAbO+xAHBDEKjP9/f+xCYBIIYJYEsPVMZPMQ0U7on31CQANE0A2MGG5wA2EQQKdn55NW8BvnjkT/ix67pXpydH95sCgOqZAHbz1AzwENNA2TZd3E0CQLMEgN3sEwBuCAJl2hQAbvxx3v5434CWCAC7OSQA3BAECvLApwEe41MCQFMEgB0sLxbvevrXCQLl2HbjNwkAzRAAdtdHC7BKEJjerg/5mQSA6gkAu+s7ANwQBCaywwyw6mYS+P3aVwAqIADsbqgAcEMQmMY+H/WbTwL/Or+8+nrtKwCFcw7AHvY8D2BfzhEYwROHAm3jx+XBQR9a+ZkAbdMA7GfoFmCVRmAEe84Aq343/xXDJgGgFgLAfsYMADcEgeEdeuKfSQCohglgDz3UxX0wDfSs5/fVJAAUTQDY08jPAWwiCPToid8NsKuPyxAwRWMEsJEJYH+l/KVuGuhXn7/4xyQAFEsA2F9pd3WCQD+G+M1/fz6/vHqznBgAiiAA7K/UWlcQOEAPnwZ4jE8JAEURAPbU8+8FGIIgsL8hWoDOJACURAA4TA0PdwkCuxsqANwwCQCTEwAOU9PT3YLAlgacAVaZBIBJCQCHqfHjXYLAdoZuATqTADAl5wAcqKDzAPblHIEHTHDYk4ODgFFpAA5X+yEvGoEHjDQDrDIJAKMSAA7XyilvgsC6MWaAVSYBYDQmgAMV8nsBhhA/DUz83poEgEEJAD1o4DmATaKDQM+/G2BXfpcAMBgTQD9a/gs6fRoYewZYZRIABiMA9CPhDu0mCLxc+0rbpgwANxwcBPROAOjH2xa+iS29quJP2ZMJPg3wGJ8SAHolAPRguY//XP03sp0va/hD9qyEFqAzCQB9EgD6k/Kg1vPAZwFKCQA3TALAwQSA/iQ9qR3VAhQ0A6wyCQAHEQD6IwC0rbQWoDMJAIdwDkCPzi+v5s8CPG/mG9rs10mH1FRw4JODg4CdaAD6pQVoVKEzwKr5JPA28GOawJ4EgH4lBYDE7bnEGWDVvH369/nl1eu1rwDcIwD0SwPQttIDwI2/zY8w9ikBYBMBoEdh5wF8lvYEegUzwKovTALAJgJA/7QAbaulBehMAsAmAkD/BIC21fj+mgSANQJA/5ICQNypgMuZ593aF8pnEgDuEAB6FvYcQBfaAny79kodTALALQFgGGaAttX0HMBDTAKAADCQpADwu7QLScUzwCqTAIQTAIaRFAA6M0C1TAIQTAAYQOBzAE4FrJtJAAIJAMPxHEDDGpkBVpkEIIwAMJykABB3KuBSCzPAKpMABBEAhuM5gPa1NAOsMglAAAFgIM4DaF+DM8AqkwA0TgAYllMB29faDLDKJAANEwCGZQZoX6szwCqTADRIABiWANC4xmeAVSYBaIwAMKDA5wDiTgVcankGWGUSgIYIAMPTArQvYQZYZRKABggAw0sLAHHnAQTNAKtMAlA5AWB4GoAMKTPAKpMAVEwAGFjgcwCppwKmzQCrTAJQIQFgHFqAxoXOAKtMAlAZAWAcAkCGxBlglUkAKiIAjCMtAKSeCpg8A6wyCUAFBIARBD4H0JkB4s0ngTcmASiXADAeM0CG9Blg1YtlCHi19hVgcgLAeNICQOqpgGaAuz7ruu6f55dX35oEoCwCwHjSAkBnBmDFVyYBKIsAMJLQ5wASzwPozACPMglAQQSAcXkOIIMZ4HEmASiEADCutAAQeSqgGWArJgGYmAAwLs8B5DADPM0kABMSAEbkPIAoZoDtmARgIgLA+JwKGMAMsDOTAIxMABifGSCHGWA3JgEYkQAwPgEghxlgdyYBGMmz2WzmZz2y88ur98vfnJbk16cnRx/Cvuf5e/12eWfL7uYTyqvTk6O3fnbQPw3ANBJbAIcCsSuTAAxIAJiGGSCHGeAwJgEYiAAwDQEghE8D9ManBKBnAsAEQs8D+Cz4L28zQD9MAtAjAWA6iS1A6l/cZoD+mASgJwLAdDwIGMIMMAiTABxIAJhOYgB4kXgq4JIZoH8mATiAADCR0OcAOp8GoGcmAdiTADAtM0AIM8DgTAKwIwFgWokB4IvgOzUzwLBMArADAWBaiQGgCz4V0AwwPJMAbEkAmJDnALKYAUZlEoAnCADTcypgFjPAeEwCsIEAML3EAJB8KqAZYFy3k0DSNw3bEACml/ocQORdmRlgMl/NfzVz8DkUsEYAmFjwcwCpDwJ2ZoDJzCeBeQhInqDglgBQBqcCZjEDTGc+CZyfX159k/oDgBsCQBlSZwCfBmAqfzQJkE4AKIPzAPKYAaZnEiCaAFCA4OcAkk8FNAOUwSRALAGgHFqAIGaA4pgEiCMAlMNzAHnMAGUxCRBFACiHAJDHDFAekwAxns1mM+92Ic4vr+a18PPAb/23pydHb9deDTCvnZd3npRnPtF8uZxroDkagLI4FTCPGaBcJgGaJgCUxYOAecwAZTMJ0CwTQEGWTyD/FPrt/ya1ajUDVMMkQFM0AAUJPg+g82kAKmASoCkCQHnMAHnMAPUwCdAMAaA8qQEg9lRAhwJVycFBVE8AKE9qAOj8bgAqYxKgagJAYTwHEMsMUCeTANUSAMrkVMAwZoDqmQSojgBQptQA8Nn55dXLtVdzmAHqZhKgKgJAmZKfA0g+FdAMUD+TANUQAAoU/hxA7IOAZoCmmAQongBQrtQW4EX4X5pmgHaYBCiaAFCu5BnApwFohUmAYgkA5XIeQCAzQLNMAhRHAChU+HMAsacCLpkB2mQSoCgCQNm0AJnMAO26mQS+Tv9BMD0BoGyeAwhkBojw5/PLqzfhTRcTEwDKJgDkMgO073dd170/v7xKbruYkABQsPDnANJPBTQDZJhPAv8yCTAFAaB8WoBAZoA4JgFGJwCUTwDIZQbIYhJgVAJA+ZIDQPqpgGaAPCYBRiMAFC78OYDOoUBmgFAmAQYnANTBDJDLDJDLJMCgBIA6JAeAL9ZeyWIGyGYSYDACQB2SA0CXfHSqGYAlkwC9EwAq4DkAM8DaKyQyCdArAaAefi9ALjMAN0wC9EYAqMfb4O/9efKpgGYAHmAS4GACQD2inwMwA8S//6wzCXAQAaASpydH8wbgY/CPID0AeA6Ah5gE2JsAUBenAoZaBsDkB0HZzCTAzgSAuqTXwOlVp4cB2cQkwE4EgLqkBwAzAGxmEmBrz2azmZ9WRc4vrz4s/yePdHpy9Cz8/Z9/IuD52hdg3Y/z0Hx6cvRh7SvE6zQAVXIqYDYzANsyCbCRAFAfM0A2MwC7MAnwKAGgPukBIPpuxqcB2JNPCbBGAKiM8wCyTwVcMgOwD5MAdwgAdUpvAcwAsB+TALcEgDoJAMHMAPTAJIAAUKn0ABB9KuCSGYBD3UwC6ZNaLAGgQp4DuJa+Y5oB6MN8Evj3+eXVaz/NPAJAvdJbADOAGYD+/O388up7k0AWAaBe6QHgi7VX8pgB6NP8/6m3JoEcAkC90gOAUwHNAPTvuUkghwBQKc8BXDMDmAEYhkkggABQt/QWIP1BwM4MwIBMAo0TAOqWHgCcCmgGYFgmgYYJAHVLDwCdGcAMwChMAg0SACrmOYBr6Q8CdmYARmISaIwAUL/0FsCpgGYAxmMSaIgAUL/0ANClPwxoBmACJoEGCAD1EwDMAJ0ZgAmYBConAFTOcwDXnApoBmAaJoGKCQBtiG8B0k8FNAMwMZNAhQSANsQHADPANTMAUzIJVEYAaIMA4FTAzgxAAUwCFXk2m83SfwZNOL+8+rD83d7JfruswpP/O3i//EsYpvZD13WvTk+OPngnyqQBaIcWwAzQmQEoiEmgcAJAOwQAAaAzA1AYk0DBTACNWKbsf6f/HLqu+83pydH7tVeDmAEolEmgMBqARjgP4JaHAc0AlMkkUBgBoC1mADNAZwagYCaBgggAbREAnAroUCBq4OCgAggAbREAnAp4wwxA6UwCExMAGuI5gFueAzADUAeTwIQEgPZoATwHYAagNiaBCQgA7REAuu65WvGaGYCamARGJgC0RwBYMAOYAajPfBJ4c3559cp7NzwHATXI7wW49u705Cj+TsKhQFTsu67rXjs4aDgagDZpAbruhT3xmhmAWn21bAPig/xQBIA2CQAL8Q8DmgGo3AuTwHAEgDYJAAvxAcCnAWjAfM785/nl1bdavX4JAA1yHsAtDwIumAFogUmgZwJAu7QAXfeZUwGvmQFohUmgRwJAuwSAhfgWwAxAY0wCPREA2iUALGgAFswAtMYkcCABoFGeA7jlVMAFMwAtMgkcQABomxZgwQxgBqBdJoE9CQBtEwAW3B0smAFomUlgRwJA2wSABacCLpgBaJ1JYAcCQMM8B3BH/MOAZgBCmAS2JAC0TwuwEB8AlswApDAJPEEAaJ8AsBD/IOCSGYAkJoENBID2CQALTgU0A5DJJPAIAaBxngO4QwuwYAYgkUngHgEggxZgIb4BWDIDkMoksEIAyCAALDgV0AwAJoElASCDAPCJGWDBDEC6+ElAAAjgOYA7VH8LZgAInwQEgBxagAWnApoBYFXsJCAA5BAAPvEw4IIZAD6JmwQEgBwCwCcCwIIZAO6KmgSezWaztRdp0/nl1Ydl3ZXu4+nJUfwM0C3+m3g//3TE2heA77que316cvSh1Z/EL9deoVn/+N//8+YunZ4crb2WyH8T8LiLs+NmL/6dCSDHH/7635fu/m+ZQz79N+HuH+6af2Lqfy7OjpufATQAOXz+/RMPvy34SCTc9W7+/8XF2fHbta80SAOQQwD4RABY8DAkfDLf/H+fcvHvNABRBICFd63vettQ/8OteeX/+uLsOO5TMQJAAPv/HT76tqD+h7DK/z4TQAZ3/594AHBB/U+6uMr/Pg1ABgFg4efk/9lvqP8JF1v53ycAZBAAFjz8t6D+J1V05X+fCaBx9v871P8L6n8SxVf+92kA2ufuf+HjxdlxfAOg/ieQyv8RAkD7BIAFd/8L6n+SqPw3MAG0TwBYiL/7X1L/k0Ll/wQNQMPs/3fEBwD1PyFU/lsSANrm7n/B6X8L6n9ap/LfgQmgbQLAgjuBBfU/LVP570gD0DYBYCH+AUD1Pw1T+e9JAGiU/f+W0/8W1P+0SOV/ABNAu9z9L8Q//Lek/qc1Kv8DaQDaJQAsqP/V/7RF5d8TAaBdAoDT/26o/2mFyr9HJoAG2f9vxd/9L6n/aYHKv2cagDa5+1+Iv/tX/9MAlf9ABIA2CQAL8QFA/U/lVP4DMgG0SQBw+t8N9T+1UvkPTAPQGPv/rfi6UP1PpVT+IxEA2uPuf8EDgOp/6qPyH5EJoD0CgNP/bqj/qckPKv9xaQDaIwB4+E/9T23+dHF2/I13bVwCQEPs/7fU/+p/6vDzvKly1z8NE0Bb3P13Xef0v2vqf0o3r/xfuvhPRwPQFgFg8ZdKNPU/FVD5F0AAaIsAYP/v1P8UTOVfEBNAI+z/t+z/6n/KpPIvjAagHe7+F6f/vV97NYj6n0Kp/AskALRDAFD/d+p/CqPyL5gJoB0CgADQqf8piMq/cBqABtj/r8Wf/qf+pyAq/woIAG1w9+/hv079TwFU/hUxAbRBAFD/d+p/Jqbyr4wGoA3xASD99D/1PxNT+VdIAKic/f9a/Ol/6n8movKvmAmgfvF3/+r/a+p/xqbyr5wGoH4CQPgDgOp/JqDyb4AAUL/0ABB/+p/6nxGp/BtiAqiY/f+a+l/9zzhU/o3RANQt/e6/Sw8A6n9GovJvkABQt/QAEH/6n/qfgan8G2YCqFt6AHD6n/qf4aj8G6cBqJT9/5r6X/3PMFT+AQSAeqXf/cef/qf+ZwAq/yAmgHqlBwCn/6n/6ZfKP4wGoF7pAUD9r/6nPyr/QAJAhez/19IfAFT/04eP85sJd/2ZTAB1Sr/7d/qf+p/D/dh13ecu/rk0AHVKDwDqf/U/h/nLxdnx136G2QSAOgkA2dT/7Ovj8in/9AktXmcCqI/93+l/6n/2dFP5u/hzTQNQn/S7f7/6V/3P7lT+rBEA6pMeANT/sD2VP48yAdQnOgA4/U/9z9ZU/mykAaiI/T/79D/1PztQ+fMkAaAu6v9s6n+eovJnayaAuqQHgPS/1NT/bKLyZycagLokB4Do0//U/zxB5c/OBIBK2P/V/2uvgMqfA5gA6pFe/6cHAPU/96n8OYgGoB4vg7/36NP//vDX/36u/ucelT8HEwDqkdwApN/huPvnhsqf3pgAKuAOML7+t//TqfzpmwagDk7/C7UMfy9Sv39uqfzpnQBQh+QAEH36n/o/nsqfwZgA6pAcANT/pFL5MygNQOHs/7kPAKr/o6n8GZwAUD6n/+VS/+dR+TMaE0D51P+51P9ZVP6MSgNQPgEgkPo/jsqf0QkABQvf/z8mn/6n/o+h8mcyJoCyufvPpf5vn8qfSWkAyiYABFL/R1D5MzkBoGzO/8+k/m/XvPJ/lXy6JeUQAAoVvv//cHF2/GHt1Rzq/za9W+79yR9tpSACQLnc/QdS/zfr7xdnx6/TfwiURQAol/0/k/q/LSp/iiUAlCs1AKSf/qf+b4fKn6IJAAUK3//V/7RA5U/xBIAyJdf/3669kkP9Xz+VP9UQAMqUGgDST/9T/9dN5U9VBIAypQYAh/9QK5U/1REAChO+/3v6n9qo/KmWAFAen//PpP6vj8qfqgkA5UkNALGn/6n/q6Typ3oCQHlSA4Cz/6mByp9mCAAFsf/HUv/XQeVPUwSAsjj9L4z6vxoqf5ojAJRF/Z9H/V82lT/NEgDKkhoAkk//U/+XS+VP057NZjPvcAGWVfBPgd/6/PS/X629GiD4Pa+Byp/maQDK4fS/POr/8qj8iSEAlEMAyKP+L4vKnygCQDk8ABjE0//FUfkTRwAoQPDn/2NP/1P/F0PlTywBoAzu/vOo/6en8ieaAFAG+38Q9X8RVP7EEwDKkBgAYk//U/9PSuUPSwLAxIL3f/U/Y1P5wwoBYHpO/wui/p+Myh/uEQCmlxgA5qf/vV17NYP6f1zzyv/1xdlx8nHT8CABYHqJAcDhP4zh3XLvTw2bsNEvNn2RYQXv/57+Z2jfzcO1iz88TgMwLZ//z6L+H57KH7YkAEwrMQAkn/6n/h+Wyh92YAKYVmIAcPY/Q1D5w440ABOx/8dR/w9D5Q97EgCm4/S/LOr//qn84QAmgOmo/0Oo/weh8ocDaQCmkxgAUmta9X9/VP7QEwFgAqH7f/Lpf+r/fqj8oUcmgGk4/S+E+r83Kn/omQZgGgJADvX/YVT+MBABYBoeAMyh/t+fyh8GZAIYWej+H3n6n/r/ICp/GJgGYHzu/nOo/3en8oeRCADjs//nUP/vRuUPIzIBjC8tAPycePqf+n9nKn8YmQZgRKH7v6f/2UTlDxMRAMal/s+h/n+ayh8mZAIYV1oAmJ/+F/cAoPp/Kyp/mJgGYFxpAUD9z30qfyiEADCS0P3f4T+sUvlDQUwA47H/B1D/P0rlD4XRAIwnLQD8mHj6n/p/jcofCiUAjMf+n0H9/4nKHwpmAhiBz/9nUP/fofKHwmkAxuH0vwzq/4U/XZwdf7P2KlAUAWAc6v8M6fX/z/MQ5K4f6mACGIcA0Dj1f/dD13UvXfyhHhqAgQXu/5Gn/4XX/yp/qJAAMDx3/xkS63+VP1TMBDC8tADg7P8MKn+onAZgeBqA9qXV/yp/aIAAMKDA/T/19L+U+l/lDw0xAQzL3X/jgup/lT80RgMwLAGgfQn1v8ofGiQADCspAKSe/tdy/a/yh4aZAAYSuP+r/9ui8ofGaQCGo/5vX6v1v8ofAggAw0kKAKmn/7VW/6v8IYgJYDhJAUD9Xz+VP4TRAAwgcP939n/dVP4QSAAYhv2/fS3U/yp/CGYCGEZSAIg7/a+R+l/lD+E0AMOw/7et9vpf5Q8IAH3z+f8Itdb/Kn/glgmgf07/a1jF9b/KH7hDA9A/9X/baqz/Vf7AGgGgfwJA22p6f1X+wKOezWazx77Gjpb18E8hP7f56X+/Wnu1YX/463/n3+9/KvkO55X/q7RPaADb0wD0y91/22qp/1X+wJMEgH4lBQCn/5VH5Q9szacA+qUBaNSy/v+i4O/uR0/5A7vQAPQk7PP/caf/FX73/5eLs+Ov114F2EAA6I+7/7aVGAA+Liv/xDkGOJAJoD8CQKMKrf/nlf/nLv7AvjQA/UkJAHGn/xV496/yBw4mAPQgbP9X/09H5Q/0xgTQj5ctfBNb+raKP2VPCqr/Vf5ArzQA/Uio/7/ruu5r9f8kVP5A7wSAfrQcAFIv/DemDAAqf2AwfhfAgSo7H34X6Rf+qd/bH5cXf2f5A4PQAByutbv/+Av/iqnu/lX+wOAEgMO1EgBc+NeNHQBU/sBoBIDD1R4AXPgfMMHT/yp/YFQCwAGWF4kXlf7xXfg3G/PuX+UPjE4AOEyNd/8u/NsZIwCo/IHJCACHqSkAuPBvaaT6X+UPTEoAOEwNAcCFf3dD3/2r/IHJCQB7qmD/d+Hf31ABQOUPFEMA2F+pd/8u/AcYsP5X+QNFEQD2V1oAcOHvxxB3/yp/oDgCwP5KCQAu/P3qMwCo/IFi+V0Aeyjk/H8X/p71/L6q/IGiaQD2M+Xdvwv/cPq6+1f5A8UTAPYzRQBw4R/eoQFA5Q9UQwDYz5gBwIV/BD08/a/yB6oiAOxoxM//u/CP65C7f5U/UB0BYHdD3/278E9jnwCg8geqJQDsbqgA4MI/kT3r/3fz/xZU/kCtBIDd9R0AXPint+vd/98vzo5fr70KUBEBYAc97/8u/OXYNgDMK/9XF2fH3699BaAyAsBu+rj7d+EvyA71/7vl3u99A5ogAOzmkADgwl+mbe7+Vf5AcwSA3ewTAFz4y7YpAKj8gWb5XQBb2uOceBf+wj3xnqr8gaZpALa37d2/C389Hrv7V/kDzRMAtvdUAHDhr8/9AKDyB2IIANt7LAC48Ffogaf/Vf5AFAFgC498/t+Fv26rd/8qfyCOALCd1bt/F/42fKnyB5IJANv5vQt/O5aNzudd1730fgKpfAwQAAL9wpsOAHkEAAAIJAAAQCABAAACCQAAEEgAAIBAAgAABBIAACCQAAAAgQQAAAgkAABAIAEAAAIJAAAQSAAAgEACAAAEEgAAIJAAAACBBAAACCQAAEAgAQAAAgkAABBIAACAQAIAAAQSAAAgkAAAAIEEAAAIJAAAQCABAAACCQAAEEgAAIBAAgAABBIAACCQAAAAgQQAAAgkAABAIAEAAAIJAAAQSAAAgEACAAAEEgAAIJAAAACBBAAACCQAAEAgAQAAAgkAABBIAACAQAIAAAQSAAAgkAAAAIEEAAAIJAAAQCABAAACCQAAEEgAAIBAAgAApOm67v8BBX7+2Wlz7PQAAAAASUVORK5CYII=;" vertex="1" parent="1">
          <mxGeometry x="-310" y="-602.11" width="34.74" height="34.74" as="geometry" />
        </mxCell>
        <mxCell id="uxV9D01Ll2PjdH4FGNLQ-57" value="" style="shape=image;verticalLabelPosition=bottom;labelBackgroundColor=default;verticalAlign=top;aspect=fixed;imageAspect=0;image=data:image/png,iVBORw0KGgoAAAANSUhEUgAAAfAAAAHwCAYAAABZrD3mAAAACXBIWXMAAA7EAAAOxAGVKw4bAAAgAElEQVR42uy9XYxk53nn93ura5rN1njSHo3HvePeUbu3VeyeoWhyRMsyNaJGH6QVRVC8slY7YwiC4TBa21qtwCgCQxCCYRi52gCGsRe5WCBArhLDUQTH5syQi80Ge5MAi8VuLA4DLLBe2/rkcPg10191Pt4nF/V16tSp7uquc6rOqfr/icYMe7qrTp1z3ud3/u/zPu8DkiRJkiRJkiRJkiRJkiRJkiRJkiRJkiRJkiRJkiRJkiRJkiRJkiRJkiRJkiRJkiRJkiRJkiRJkiRJkiRJkiRJkiRJkiRJkiRJkiRJkiRJkiRJkiRJkiRJkiRJkiRJkiRJkiRJkiRJkiRJkiRJkiRJkiRJ0qzL6RRI48pe/WwNWMGxYcZ5oOawHeCvDfth7dlXI50lSZIkAVwqC7j/xWfrZnzKOf5r4CpwFqhjVgMiYA/jNRz/M2b/q/u1V+/rrEmSJAng0vQcN+bsosP9EfAFoN77R8v6FQ+8ZsY/Av6f2q+9opMoSZIkgEsTdt0AjwPfA9ZbeI4g2oVoD3wIGLgFWFiC+mlYeKjz6/cN/ivgf6s9K4hLkiQJ4NLE5P/FZ9cd/EtgAx/AwZsQvNuC+LBbrH4aHj4P9fcBvGvGf+kc/9oJ4pIkSSdWTadAOob7rjnsj4ANgvfgwX+E5luHwJuWG48ewIP/BPtvgNmKc/wzWvlySZIkSQCXJqCnwX2e5tuw+4PWdHl2zjvLu8PBG7D/EzD/qJn9tn/1WZ1RSZIkAVwqUv7VzwL8LuFOnf0ft4A8MrwTat6D4O2aczzv4ILOrCRJkgAuFatlzF9j/8dgJ4Q3ANaaSo+DC8A3/CvP6h6UJEkSwKUCtU7w3lnigxPC29pfgEXQfBPgOefY0KmVJEkSwKWC5LAG4bv1kzvvlIJ3ID44BzzvX3lG96EkSZIALhUii7YI9076yxnf8rB/F7Cv4txjpgVtkiRJArhUgKKDbSzOB94dhe9BtHfamb1oZnWdZEmSJAFcylH+1V+r4ZuNQ2GcCW47+mcO7gJ8AdxHdaYlSZIEcClHOWyZOFgr5MXDHYgeLDnH79urz8qFS5IkCeBSXjJz57Hw3PHc9zF+dv8umP8UhhLhkiRJAriUnwP368TBYv7wbiveg/B+Dcd3/CvPLOuMS5IkCeBSHg7cRw0srB0N7jFKzA7eAIs/4hxftFee0UmXJEkSwKWxHbhFj+DjYt8kPoDmOzXgBcNWdNYlSZIEcGkM+Vd/DeLmJfBHuO+xPH7rj+ab4KNL4L4av/oZnXxJkiQBXDqx+4ZFfLheOLwBfADNt2rO8XzN3KrOviRJkgAunRyvZ/HB+Wzw5gjvjppvgw/WcXxNuXBJkiQBXDo5ZNfwwelCHg0yvx3CwT2Ar+O4qPMvSZIkgEsnkY838WF9JPiOC++OWo1OzgPf8q+q0YkkSZIALh1bzkfbWDQ5eANYDAdvAvZVYEtXQZIkSQCXju3Am1uYp7Cc9zCF70G0v+LgBf/qM9piVZIkSQCXRsbtq7+G+bAxPrhP4NzNt1y42Zec8aS9qgVtkiRJArg0qs44H1yYqPPuc+H3IdpdxvESIBcuSZIkgEsjgvc8Pjg7FXh3fvfgDTD/rBmf0vWQJEkSwKWR+GkNfHMM52vjvj+EuxDeX3SO7/hXn1nURZEkSRLApSMBGjbw0fTg3XmdVrvRpxx8QblwSZIkAVw6RP7VZ8GH29hJmpjkBe+24n1ovlsDXjSzM7o6kiRJArg0RM6oETc3jw/jnOHd0cFd8PHj4K57uXBJkiQBXBqK4UV8uFEKeAP4JjTfrjln33JwTldIkiQBXJKyaXoOHxwDlAXCu6NWu9FN4DnlwiVJEsAlKZuoF/HhcmngDeBDOLhXA75hZmu6RpIkCeCSlJKzuIEPRrg/JgTvrgt/G+LmBXDf8Go3KkmSAC5JKa76MNXEpATwBrAIDt7EOZ5zsKkrJUmSAC5JHUa++mzN+bDRamJSInh3FLwD0f5Zw77tX/mM7mFJkgRwSWqztU4cbJYS3tBqN7r/Bs7suoMrumKSJAngkgTgOIMFq6WEd+f9w/sQ7Z0Bvm23P6NGJ5IkCeCShNkqPlwpLbwB8O1GJ/YFczyliyZJkgAuSeYb+KBeXni3Fe1A+GDJwe/7V+TCJUkSwKU5l7OwgQ/LDe/O91vtRq85+JyunCRJArg0v+b71WfbJWS+5PBuK96D4L0a8JK98ullXUFJkgRwaW7vCeeDdhOTksO7o+ZdsPhJcF/ytz+jKyhJkgAuzaEDNxbNhxuVgTdAfADNd2rACzjO6ipKkiSAS3Mnh626uLlSGXh3Xfib4KMtB1/1r8iFS5IkgEvz5sDxG1iwWCl4A/gAmm/VgG8Aq7qSkiQJ4NKcEdw3iIOT3RfTgnfXhd8DH2w4+F2TC5ckSQCX5kpxcxuLqwdv6DY6Afs9M9vQxZQkSQCX5sN8v/IMzodbx4ZpGeDddeFvQ3xwzjme97c/rftbkiQBXJoDOWr4oFFZeJu1G53cBewrOC7pokqSJIBLs+/A4TQWrU0O3nkefOJYwvcg2l9x8IJ/5dPaYlWSJAFcmnUDziZxczTg5eK8c3oASB+Ledh/A8y+CHzEXvm0Lq4kSQK4NMMO3KyBb04I3gU476TCBxDtLDt4EWNRV1eSJAFcml0HbtF2fxOTisK78z77d8H8s+a4pqsrSZIALs2u4oPGoYAta857mKJdCO8vOvh9e+XTcuGSJAng0uzJXnmmRtxsFOu8C8p5H+3CP2rwRbv9KV1oSZIEcGnmtIwPLxYH7wk6775ZhX1ovlNz8KI5d1qXWZIkAVyaLQcOq/hgZabg3dHBXbD4UeAr/hW5cEmSBHBphuTwm/igni+883zCGONYfAAHb9Uc9i2M87rakiQJ4NIMWfB4Cx/k7LwnnfM+5Fiab4IPN3A8Z3LhkiQJ4NLMKA62MZ8jvEvgvJPH4kM4uFdz8LvARV1wSZKqLqdTINmrz0Dz7X/F3g+vzSS8u3d7Hc5sYgsP/Q/O+Lb77P85e9fy1jXMsejgvMEacBZ428HfmnHXOSL32f9LN70kzYC0T7SEwbLz4cWZyXkPfc0IDu7i3rf2HM79c+A/zMo19LevQQvYv+3gN4AtR98OdAfO8R+AP/W3r/1PGD+u/ecCuSRVWZpCl3BwFh+sju92S5TzHnYswbsQ7a8AL/jbn5qJ+99uX1vE+B0H/xb4A+AxGNg+dqn9/T908G8dPGe3PqEHeEkSwKWKW/B14ubiOC9QHud9xO+bb2/uYl/GcSWu+OYuduvaosEfOcc/A85jHqI9OHgTdn8EO3/b+vPgXuv7rXUOq2D/o8E/tVtPa4c6Saqo9AQugYWb+PCE90KZ4D2iwvsQ7Z52p06/ANwAoipeNn/rWg3HHzj4HczXCN5rrbaP9odcFwf1h+Ghn4NT/1ndOfdPwN33N5/+g9rn/rXXQJAkOXCpciSItrEpMywXeB9ji9WDu2D2eeDpqm7u4hyfAf4bfFhj529g929aLnvoebDW/vC77Z/1UQ3475xz1zQIJEkAl6qouLl1fIBWJOc91IXvQHh/yTlechVsN+pvX1sG/hAfLvLgryB87xgPOAbhu7DzV+CjReAP/a1PLGsgSJIALlVI9uozNSzcPB4AK5TzPtKF+6cNPlepa9Zacf5FzD/J7t+29ns/yXmK92Dvb8H8R8E+b7ee1oCQJAFcqgwMYIX4OCvQK5jzHqZoD4J3687xHf/Kp5Yqc82M0w5eoPl2jfDBeNcsvA/BOzWHexGcXLgkCeBSVeSMC/jgTDXhncNrHLwJPr7izK77W9fKD+9b18DxVXx0iYO7+ZyjgzfAR48Z9pt2Uy5ckgRwqSIO3DfwQW2UnywPvHPMv8cH0HwL4EVwKxW4ZCsOvkXzrVrf3vXjXDMfQPBWzeG+bY4zGhWSJIBLVXDgcdDAh7VqwTu/x5deo5No0zl+29/6ZGmvlb99DRzP4cMNmvfyPU/Ne+DDhsP9lpcLlyQBXKqCBQ97TUxKD+985x56ZAyhea8GfBNYLeulcnAe+GZr2j/M95q1zgHA8w53TgNDkgRwqcTyrz4DcbB1aN1wqeCd1/FkvE7zLYiDi87xDbtdPhfub10D4+vEwVp7yj//c9S8Bz5YN8fXlAuXJAFcKrX7ZgkfXiw/vHPMeQ97HYtaU+nwnGGbJbxa62Bfa5W+xcU84FgMB2/isG8YtqYBIkkCuFRWOc7jg7Plh3d+TyyHKngH4oPzDve83fpkacaG3bqGc3wd31wleKfY8xS8DXFz1cHX/a2Pa4xIkgAulZLfxgY+WCwvvPOdbhjNgd4F7KvApRI9aG2APTfcfed4nn2r5SqO33G4ixolkiSAS2WURVv4ZonhXfC0eaYDfQ+ivdM4XvK3Pjn1Zj/t3PdLRPsrBO8WC+/ONQvegehgBewFkwuXJAFcKiG/fbCNj0sI7wnkvIcjs9Po5AvO8VGbdlmZ4xLYb7L/BoPVAgVdM/OtzV3gt8E1NFIkSQCXSiT/6jM1Fzcb+cKSauW8hyl8ANHOMvCiMb1GJ/7WtZqDl4h2lwjvTwbe/TMRS8BL/tbHFSckSQCXyiIHdXywka+ltxk5O9ZyoOY/g+Mz0yorc44rYF9quWGbHLw777H/BmBfcrjHNWIkSQCXyoIos7P44Hx5WoLmCaYcZhXCXQjeW3TwHYOJNzrxt6/Vge8Q7iz2NyyZ4GxJeB/C3dZMxK2P1zVqJEkAl0pBcH+MJiZFw3uaOe9hn6fTbjT+CMYXJ+6+4WnMPsv+T6cD7472fwpmnzfjKQ0aSRLApRLImW8QB+Nf/1nIeQ/7PPE+NN+pOcdLduuTE2u16W9dWwReJHxvkWh3evAGiHYhvL/knHvR35QLlyQBXCqBAQ+3sWjK8M71ExUDtpYLv4TjtyaxIt1uX8PBs5i/xv7d6cK7894HdzvrAT6lsjJJEsClaaLulc/gfLg1fEvOScG7bNPmWXY4gIN7AN/Ccb7wa2Ms4niJ4N068R6lqBCIdiF4r+5wLxluUSNIkgRwaWoEtzq+uTHG7+cA3ArAu+vC3wQfbhh8zd+6Vthl8a0tU7+IxR8ZXHk+JXj3zUT4q8Dn/U25cEkSwKXp8Bu3PLyJySTgnd8nmQjYLGo3+eB3ccVtL+ocp4EXaL5TIz4oD7yhtx4AXnTOLWsUSZIALk1BzrF6ohXoM1PnfYLP03wL4uYFB88XkQu329cAvoyPH2vtx14ieCdduI+vgH1RuXBJmr60qnQeHbjFG84HS8f8pflz3n0/H7c2d3nf3/0tnPvnwOs5P0ucddi3ad6r9e9PXxJ4A/gmBG/VWPq5Fw3+D+C+RlMB4/PODQxbBM6BW3EOb2bvgnsbR1C79L/oJEly4HPrwH28hQ8F7+MqeBei/RWMb/vb13IbO3brGg77Cj7cavckLx+8O+f+4E3w0ZaD3/S3rmow5Qvumr1+/TEcf+yc+3fOuf/POf5f4Pvtv/8bZ/xTf+fGJX/numK3JIDPZaDwwfbIK9AF7+SJa20v6uzLeW4vathZ4Fs073GsB6thn68oeENrVX7zrRrwAnBGoymnyY0711dw/DG4/xv4J7Ta2Z6hNUtaB1aAx3D8t87xb3D8sb/zD8/qzAng0jwFilc+g/NBY7T+2HNQ531cdbcXte/4W9fGTkHZrU8A/B4+uEjzrWrcRK1V+evgfsfflAsfD9w3sDvX151z/xL4x8AyZq1Fg9E7EN5rfUXvgj/ojINlh/vHzrl/Za/f2NRZFMCl+VEdHx496OetVGz0kAv7PwGzz+G45luLz8Y4rHjVwTc5eJPybqyTet3eqvznHe68htQJ76TXb+AcGzj3MnAFiyF4Ew7+IzT/GoKfQvhm6yv4CRz8J9j/Kwjfbq3JwD0GvOxfv76qsymAS3MgZ5zDB+eKh/eMOe/ksbS2F1108JIbo9GJv/k0zi18k7h5juDtEsL7kIew5lsQB6s4vmGqCz8ZvGET+DPgEvEuHPw1RPfADkmjWADhG3DwN7Q2+qHh4J/Z6ze0IFkAl+aA4Bv4YHHyLq7q8E4d1/4bYP6qGZ8bY3OXdcy+1mpdGp/88xWZ8x76z3F7cxe+huOiBtYx4H3nBg42gO8CjxK9B80ftuA88uVptn4negC4Xze4pjMrgEszLjNr4Ju14mA3i9PmGccT70Hwbt05vsMJXLjd/ETNOfdt/MFZwnereTMFb4M/OA88Lxd+jGdobAP4c+AxovdaU+X4E7xSDOFPIN6vO/iGv3ND8VwAl2Y6eMTBNj4qAHazmvM+5HPtvwEWP4bjK8d+VWeXzOw32X8DvD/ZR55Uznvoj7VX5WNfxbGl0TXCKXv9xjrO/TlwaTx4J2ZCwjfA/NMOr1XpArg00/LNrcFFScp5n+hYfBMO3qo5eMHfujZySZW/+XTN4b7l4r0Vgve6jwh2nGegSee8hyl8D6L9s2DfsptXFU8Ohff1jvPOB97dG2of4gcrBg2dZQFcmtUA8sqna/hgczIururwHlGtjU02neNrNmIu3ByPmdmXbf8NDMNB98uO4ui0ct6HufBWLvy6OS5plB3ivHF/RifnHfwkH3h3rl30LqBZEAFcmmG5OhblXDdaogcAm8JMgIUtiMPzBheO+vH45tM1cN8h2lkmfDDge125zuhoCt6DaPe0M/cduyUXngI3duf6BvByP7xzvsp2ABZe1hkXwKVZDSbGBnFzMT8nV6Kpc5visTTvQRxcAL5x2Ir0+ObTAE85b59n7432Neh/V0s78YnMLuRwH7Tan37BjI+o3Wj7rNy5AbDRn/POE96JRz+LwQI5cAFcmln/jW3hmyVbbV5xeAP4GNu/C/Bcu7Z32BVYBPeShfcXLdrtvVNqyjwT4qWFd1vhDkQPlpxzL+JYnPex5l+/Ac42ge/Rl/Mubn2Gs/CSvX5dgU4Al2bTEvgGcR6drgTvAQXv4OL9cwbfim8NNjqJbn4CsGuY/1Rr9XrLfVuS30lDlYS4Lzm8O6/Vqo3/LHDV1OhkA9z3GLtU7DhPDeEq2IoCnQAuzaLi/cvYuEFE8E7/mgHO2i7c7CuYPTbojtwS5l6ieX+RaB8zlwntpOtuva5lT6eXCt6dp5RdCFo71MH8unC7c33DtVabP1oMvIdcOwsWDae90QVwadbkb38K4oMxB7fgnQnvzit0FnPBi/HLT3fHVvwX18D4POafsv27vUM31wK5DYK8V1dWBG4LgHdnTUXLhT9tuM/OJbxfv7GRa533wHU75Nr5Zg1TKZkALs2cHG4ZH6wL3vl/rl4uO6ZdGvYFcE8lDnfJ4AV/8G7dov0u63rrCF2/I098xs4DQn6XoCB4d59W9iB4p+7gJX/z43Plwv3rNzbo7G1eCLyP+pEIZ5FWogvg0sw5A+wsPjwneOd0LJaGa3uqO3wAwYMl4KXo5WuL0Z9fw+BL5uMrtncX8/S+2oaqC/KOG/c2OJWe76NGMfDuaP8uWPwkzr44L7lwu3N93bXg/SjR/ZzrvEd+hABrbmkhmwAuzZwDp4FvnqBjkeB9yDnF0q9lhrUWqX0G41kzW8b4ju2/VSNu9jvvjL+nV6MPlpKVHN4A8QE036453EvglmfbdV/PqPP+8fTGjQ8uYYrrArg0YxYhauDDY15vwfsw9538H0u+criHNd+rm/EdjN8zHzVs/82u6+5++TS8269lbiAfPp4LnyC8+134o4b9pt2cTRdur98A3CbO/RnOFVQqdszXsvCiYUtIArg0S1YhfCSziYngfaJXaMG0fyMWEtPgtncXi+InfcAf2P49LArb4HbdL98Hcuvu62KWvS+6HfsjGFOBd8sJwsE9HO7b5tzMNdmw129gsOmSLUEnnfPOBvgSjg0FPAFcmpVg88qnIc5oYiJ4j/ESqRXi6enwaB//7ts1fz9ctr17XWj3FX53YN913slXdf2u3jrfZcSysoJqx49zPQ7eBB9uOuyrM9du1GzDtTZpmVyd90jHFdScN61EF8ClmYk1sIgPN0b+acH7CPdt/XDt/ul6vjcGf/cu9u5PsZ0oBe7+r24pWedBgN6itqEufDrQOt7P+xAO7tWAbxq2OjPj6U63q9hk67xHAzhgaiojgEsz5BZW8MEIAVTwPvplbNCEZyxI8zsGYQD7b2G71tqq2qe/rPsxrevGyVzIlunCJ+m+T3o9Du5BHK47556zW9V34f7O9TWc+25/zntCdd4jvYQHa24r6Ang0ozIwUV8sCx4j/tKllmT3XXf3elzsL1k1Af2LVX/3YZ3oqQsCfGkC892+1kfbYo576G/G7XajcLXsaO7tZUe3rjvAo+XJued7cIb/s71OpIALs2CA483iYO64D3+cdmgIe/lsts/5ndsMK4fWAvUJBasJR136u+Di+PaE/RDc+ElyHkPU/NtiA9WzfFNX1EXbq9fv+Cc+55zfIToQXly3plPGuE62EyX70kC+PzIR9tYJHiP5b0Tm7aQ0SSsA+Ew5b7TLtzTt6BtEOKOREVZb6e2rIeHwqmVV+ohhv27OHiOQ7u1lRDcd65jr99Yw9yfAU+24P1jSpPzzny58AxUe7ZDEsAlwL/yafDNRnYTE8F7pNey1Kv2zWX3u2/btaFv7w48REn37RIr0RNvlVytTgrwAy7cimk1mvdrBu9AtH/WmT3vb36sEnHHXruBwUXgu7gi4F1UyiNYdJiamgjgUtXloIYPGzlu6TV38B62H3lfNzFrLQC2/eGf0Rm4A8tc9Jb1d+tjsxt0/+2cfP6NyoqAiof9n7a6teFKv0raXr8BNS6C+xPoTJvnDe+iDj4Ei7cU/QRwqfo6jQ/WBO+Tv1Yakn25bxLue2eI+058RhcaxMnV520nnngYaDn6/t3YBlaoW0H1ZVZg7/HgPYj2zjh4wW5eLXfsMVsD/tQ5PlrMtHmRxx6DhZe1J7oALlVcZraKD1cE7xO8VprHlr1pCwbWbH0d9RmTLtz6AO0yF7X1l5W5zCPNzYUXCW9oAfDgDTD7opk9WdYx41+/cQHc94pz3kWvYDCwsGGK7wK4VHltEDfr+QeO2Xfe6e+kUJxw0O2V5zbaZ6y1XThZjUwyXPjgFquD3crGPg2Fw7ut8D5EO8s4XrAS5sL9netrDr5XXM57Uk/u4UXMTiv8CeBSheV8eIImJoL30Nx3GraANQ2ao39GByw0bQDeaRduA+9lQx8oxnLhk4J353v7P8UZXzD4aJnGir1+Y805912qlvPOfBIJzgHnkARwqZqyVz4NPjikhEzwPuy1sqDY2bSl64g9+AfH/4y1yHCRZe/FQsKJd9/L+vqGpyledDl4rtcm2oXwft3hft9evlqKDUfszo01Wnubf6RyOe+sMeaDRVexkj1JAJf6B3INf5wmJoJ30n0PhWrSfR8YBCf7jAuBZaw6H8yFZ23uknV8x3bhVlAJ2pFHYZ0V6Z8yZ5+ZZrtRe/0G/vUbazi+BxUqFTtqjFlYwyI1NRHApcryG+r4YCO3V5sT5521MMxINSzpuO+dk39GF7dceH/em76uZWY22Ec8XRfOCVz4RKfNMxTvQfBu3eFetCntGmav38CMiw7+tDh4T9h5d/8eg0WX7c4/VCAUwKWKIvwcPswhDzY/8M6aM7eU++58HL9vEJ78M7Zy4X4QvtbbcjX9/r0niSPajZYZ3h0dvAEWP+Vwn7OXJ+vCfQfejj+BIkrFpgjv1icEC7asPDkVSQCXjgUIsxGamAjeh7nvrJXntN237Yz/GWu+vSrd0vBOAT1ri9WMdqPT4seJ3jDeh+Y7deAFHKcnfLhrzvGnXXiHFc95Zz6lhOuOmvZEF8Claso3iAPBe9TXynDfnQYifSvGAb9nEOXzGWuB74E7y+2ntlDtWwGfmiU4tC58ajnvw1z4XfDRFcy+PCkX7u/cWHMutWDNKp7zzvy3cNXwZxUHBXCpag/lr3wKfHj55CvQ5wzeHJ377kIybrvvnD5jnwvHEivOXd+BHNVudOATWlHXI8dr45vQfLuGc98y7MyE4P1dZi3nnfnvwaLDbSAJ4FLFAN4qJdk8mbOYP3hnlWMNtAvtbNqyZxDlG6wXwtZKNUs9PVhqx7bMVelDG52Qmo8vGbw7ar4JPrzknPuKf/ljk4D3R2Ye3kBr/wevPdEFcKlqcrhF4uAEZSRzCG8Y3i409UMWW2vP87yvl4da6Aem6wc3d8lw4UO2WC2YIDmSNYDmPcC+RQGbj/g717GsafNZy3kP/FwEFm1rT3QBXKraGMdO44NVwXuE1zqsXWi6TnvXIC7mii0E1mKKDa5K71vglvr+sFy5wyhmFXIBr3lwD3yw4RzPWY4u3F6/AbiLFDptXpKc9+CjC/jmlllFH1QkAXx+HbhdwAcrgreN9BND24WSqMmODNstAobtd7K2Cyf10NDuOd778X4X3rniA49wUEC70YIeCCyEgzcBvm6wlhe8E6Vi8zFtPvA74Sa4RUVEAVyqkgM3v4EPRtymcn7hPeC+ych9095QZddynnUdPL6F0MD379CSXgFvQ2rTLWnPrQjEFOzmm29D3Fxzzv6Rf/mpPHhXYJ33xAf0yX7Ph6sOW0ESwKVqyN/+JM5Hl/CjrECfY3gf6b7pJpotAtubwMyJtbdYpb8WvOPCe99zQ9qNDk6a5+PCJ+A2LWqVlRm/g7E+1kv1FqwVBO+yTpsPOPDT4C4qKgrgUlXkHPjwEeyoZO18w3s0990u6XpQvPvuDsrIcH6UdqNpB26ZufBywntI7jh4B4sPzuF43v/FyVy4tfY2b+e870PwE+Yj5531NB8A/pKCogAuVUd1fNA4PNDMObwz3HcSiMltzywE2y8YXCkXXmv2XHjvuLJdeP/1cDm3G53sIjjzMey/AfBbOHfsblr+zvU1Wnubt3PePyG/VYcVyHkPKAQfbfs7WokugEvVMOBmi/hgXfA+nvvu/4jWY/gDy7CftJcAACAASURBVOkwR3+RWmS42Aaxn+pL3oK6ZXcwG9uFTxpY7fs3fA+i/TPAi/FfPDVyjGrVebsCp82rBm/ae/6GW06xXgCXKqPV7BXoOUz/zQi8h+a+LbGrpoEFYAdTeAgDaoENTJ93c+HpD9P3V5dDu9EJb/6S3AbWfKfd6JeBx458xTs3sDvX11yh/bwrNG0+8HpBw7A6kgAuVeHh3V/Eh8u5B6BZgDfZm7RY6vmm4779FNz3gAvP2HWNRM7bUjvFHdZu1E0NVsMfHi1rD/fgPoS7p8G9EP35U/XD4A1cxLnv4jo573mp8x71NcNVB1qJLoBL1ZDfai1eEbyH/Xhm7ttb/8rvA4Pm9ADgSOTCSQLaYb61qM6GdC8b1m706DM24Zx31uxAZ0/4lgv/AtQ+mnmXv3Ydwy4ayTrvnzJXdd4jhYNwxbBVJAFcKjm6b38SFweJFeiCdxYYB1y49fxpZxrd74x7uON/1oXYcJGlar5tENiZjU4GD+FwFz6lnDeDu+CZgYU7WPBgGeOF8M8+tphxIdecc3/iXDLnHVdz4FqB596CmsO0J7oALpVezoEPtlqJXME7/Svp3LAD8Jaqp27nvZvluKTduvDkh0isQLeh7Ubd4PeHnr3J5rwzp80tdfgGtncX8/5ZzF3r+/0719cc7nvMe533SK8fgsVb2hNdAJfKzm+jjg83Be/s3xpoF2rWt/Cr576tNJ+3Fhsu7LRCI3vF+RHtRo1Jw/vwnDeHwdsnZhTCXaz53qI3e7H5v19dhHapWF/Oe47rvEd6Dw8WXp74DIskgEvHDj+n8cH4e0nPGLyzmmab2cDGKGbg9w2CcgFgIfCDi9I6LtwGt1clYwOY7HajZcl5J+Cd3HXODNu7C96uGny2VeftEnXeP2W+67xH/Fy+2cC8VqLPmHRBZ47gfgPfHK95wazBmzS02vAm0bCk830PtlMuAJgZLgYXGrboUj3DW5/KdSDtXN/8tEvh0lqzNJgDZyXLeZOGd/t6xPvQfKfuTp//7x0EOK6ozvuYJ97Ci+CWgfsKknLgUknlsAZxcPLrOovwHsh99ydbkx/Z9g3CMsX53sHV2i4887QkS8gOceIudQ4s9+eOE+S8u7MD6d7niUV70XvUL7z/UZy7opz3CT6XD84YtoYkgEsllo+28Sck0Iw67z5wmKVeNbHyPD6p+y5m2txS16Pm2xCnf8o/OZXezYVDquVoIheegHd+7UZPmPO2RK4+7bzb+X4WH+ZU40PUlh9Cdd4nHDcW1h1sIgngUpkBftA4UXCbUXinksb9ueBU7tjvGUTT/KzD4d1z4YmmKpmbuzDQpazv/71lu+6CyuVGgnfWtHnn/089xKlHHmfhzFlU5z3GZ7MAzKuUTACXyiq7da1GHDQE7wz3nfqM+eS+JwtvaDc6CXsuvPcQ4lKdy9zw/dFT7HdFfZKT5rz74H2FhZWfQ3XeY96X5sGCbUVJAVwqa4yARSxcF7zTsOjlvAfbhbZXnu9YKdhgI1yPpAvPanJCKhduqW1XhzY6sfyu05F13lnT5snZg/oip7Y+zMLPniP/nPecTJunv++DR/2dLyvmC+BSGeXgAnEw+p7HswzvjrscyHmnPnYn9707fQDYiNfDWX8uvL8zWQKg3dy4DezznnHvnGBH+THqvDkk511f5NT2kyysdOCdd533HDnvvn8ON3CqPBLApbJ68Aa+Odo1nXF4d2zegLtM5lw7bNuxY/Bh8tPmmQM3NPA2+NnSzU4gc3OXdF348Vz4GDnvYfBOO+8+eKvOO5fPZuEZDK1EF8ClcvI73cRkfuFtZtntQtM/F4HtVQveXRee1eiEtAvPNszJSrqTtRsdfnpOnPPuOO+f/TlU513AuPFNrUQXwKUyyt/+JPhkE5M5hXfiM2a3Cx3HfZcD3kkX7mIbAOXgLnOpsrL2LERWo5OjL8UJ67yPzHk/lJo2V84793FjIWCXFC0FcKmM1zI+2BK8rb/jlh2S+w7B9qcHALPxd5ZzQb8LT27aMlgLzvBc+MAWq6OfgxOXivnEavOtK214F1HnPefOu/vjMfimVqIL4FIJtYQPLs69885IC/f+4vpc32juuzzT5lla6HPhRus/MnZhS332dC78cH995G01Xp33lcS0ueq8i/tsBj7c0kp0AVwqmZzZCj5cnWt4w4D7dikX3v2nYFT3XV54dwdxM2uDGtdXTmZDNm6xwxqdjHj5jpXzthS8tz6cynmrzrvQcWPBJtgikgAulUrr+GBpnuGdNTXcq5NOOdAHNsIhlG/aPHMQR4aLfL/rhozd2TJceO9xZ/BTH7JR+onrvH16tfn7tT3qJMeNhecc7pzCpQAulcoBRA18qonJnME7M/edEcutaVhz8gCwwgK9tTZ3oX9jFzPX93EGFq9l5Mx7rro9GW/DT/lYdd4DpWKaNp/IZ7OgDqaV6AK4VCr56BEsmk94H/Lq6Wlc8+B3DjuMcue8hz1o1GLDRTYwTW2pmm/LXNzmSG80O2yL1dzqvLvT5oL3RD+bD2qYNZAEcKkk5vv2J8E3t9rRc/7gfYT77vvRpkFz0nF+MoG+1vTDGZ8Ed8qFW3qv9ENalh4KbzLg3ZfzVp339MdNBBZ9yF77DQVOAVwqRSyBOj7YnFfnnXaL/f/qehzz4B9M1n0XOW0+MJg9uNAyupO5/n7hKRdOwoUn9q7rO68nqvMeKBV7sp3zVp339GYVDKzZwNUV+wVwqSQEXyEOVudy2jzDLTpS7q/9//7AIJgcACYJ744WAt8DdPKn01BPuHDrbvxiA7nw5OkZu1Rs5RxEO6rznvZn8+EG+CUFTgFcKgfBV/HBmbmDN9ntMHvwSrULfTC5IFl0znuYXMqFW7qsjEEX3juvbtCsZW1De5KWoJo2L8+DiQWrhltBEsClMshv4oOcugxVB95Z7nvolqn7BuGk4rxN9W5IuvA+7A9x4ZYx3d53PjOeH7LK8zJz3gN13r6c99e8wBvAwiXM1hU3BXCpBHI+bOCjHK5lheCd8U6ZOXBL5L4nECinMW0+cD902o2mFqgN5sKte7xpp52V87Z0qZgdVSpWZEtQwXsMgNcdXivRBXBp6t779jWIg+0jm5jMGrwzVp6TdpkdEO0ZRMUDoAzw7g7s1GK2gbp4szZsMzZ38W5gBzcbqyVonjusKec9ftAIgWjb/+XnFUAFcGmq7htXwweN8QZ/9Zx3nzscyNO63vc92G7xQXJaOe8jXTiDm7v07YiW8fCTOfWevCR2VEvQDyvnXeoHEw++ecktPKQAWnHVdQoqryV8uD5P8GZYOjwBl26o2k2776rAO4en89Dwp9qP6a5/E5bO009vdzZLPBT2HpBcmvFZG8Ok9zYvpCXohCE3s/DuTKVEG1BbZEhdhiQHLk0m0JzHB2fnBt4Mr/u21Ev4qHj3XaZp80NdeGortvS0edeRW2pxGsma8cSiN59V5/1h9fOuArwBfHDBsLNIArg0VYJnNzGZUXgPNCzJ2Ne7C5xda6deZz/nPUwLoUHcXxg+0Dc8sSLd27CNWQZz5dl13g9U5112eANYeNrh1hQ/BXBpqvyOt/DBeIO5KvBmyJapPc/Z+37XfVcp513M8S4Ens4ea70Hn/YOdX4Q6PiUM/cuBXbw3dXmyTrvXQjzXG0+6bE0J/CGdlMTr6YmArg0tXhz+5Pgg0fw0XiDuSLwzmoX2gV2uu57xwrjSJXgDa1cuEu48O7eLd71lYiZuf5GJwZmtezFatC/YC3egfBHjF8NMSXIzRO8obMn+mVFUQFcmpphsBrxqCvQ855GnjC8GVI2Rkbdd2jYfjGBslLwTtC21rS+d+nbatUPyYX7/mnzbk39QJ13e3tUy7NUTPAu9L3Mgw+2/Gt/X4G0wtIq9ArLJZuYTDRoTB7eWe576K5rBbnv4krFiodSLTJ8ZFi9da5cJ9vgHc5Z63t0cuGGOdf6mc4qdRL7pHdbgp6DeBfCvOE90afg+YN390k3alCr1ym8TkOSA5eydBYfnJ9wxJsKvIflvvumdA0s6LjvqjjvyUGp1hzcYpVE3tv7xFR6asrcrJUHZ2GRxU5L0HgXgrynzQXvib2XD9YwO4MkgEtTiUAX8OGZyQWOKcD7sHfvusOE+35gucfKyk2bD5GLgchafrovH+56+XHv8Oa6U+WdUjHv28778pMt5x3tQlM578rCG8DCFXCriqMCuDQVA+Eb+GZt+ECeAXjbqLlvw5qGNQXvw95tIfA9Zw39W85610o9+H5wt+D9EIuXnqTezXn/iHy3RxW8J/5eFtQctqVIKoBLk4b37U92mphMIGhM13mnj6DXBtN1e1m32oVazodaru1Rx4W3A1wELmpv7uJ7C9d8ewV613W3Xbi14f3QpSeo/2yyn7dy3pWGd8uBg0UN//o/UECtqLSIrbLuG5zPo4lJueGd3vM8mbe1RNusvN33LOS8k3KJH1toGtFC65uWdbIT/+8WF1l69Ar1s4kFayjnXXl4d5/gostVLduX5MCrK8ciPtgo1t1N2XnbYUfhui87vF1o2eA9eedtKXgDOA8u9P0L1bzrum6fcN4PP/ZkC96daXOVis0GvDu/65sNXF1GTgCXJspvs2V8eLG4oDF9eGeuPO+uiu4tP/dNy60lw6zlvF3Gj5m16sLNt8rGOqvOfXJ/84VFHv6lK9TPvr+gOm8571K8l0UXHSwrogrg0mSH7io+WJlJeDPYsCTryLoO8kFehzpbOW8sG94YOO+ohdYDdmq1+fsev8Kp97dXmyvnPZvwBrDgHDDhUlRJAJ97gscnbGJSfngPpXZ6z27A9g3CMjvvyUIp6byH/5rruvD+fc8Naqd43+OPc+pcO+cd/BDlvGcU3gA+rJtZQwFVAJcmNXxvfRIsbhAHzFTO+xD3bUPct98tM7zLNW0+0C/dg2u2y8pig4VTnP7wEyyeP9+r81ZL0NmFd8uB44i3/GtfVGAVwKVJyfngcr7OqBzwznLf1iW29e3N7ffGd99zBW968O6cw1rQbjdaP8XPXHmch37+fEF13nLe5bynYrBoWxFVAJcmN5Br+GCztVR4huCd4b4tjadky8vdcQ91xnPedji8O4daszo/8+HHeejv/Lxy3vME7+5NEjScc1qJLoBLE1JGCVn14X1Y7ruz3Wen9Nvv2VgtGOYi5939m+vbL75vLUH9FD/zK0+w9Hd+vl3nnafzLs95ErwPkY82oLaEJIBLExnQZ/HBuZmCN8NWnttA8w2Lx3Pf85rz7u/zDZyqs3z1CotrP68673mFN4AFZw3TSnQBXJrQoF4nDsas3SwXvAc2bTFrobtvy9T2156d2CTOe857OLxV5z2X8AawcNlhFxVXBXBpIgMu3sQHY1y7ksGb9KYt1tcuNGnoxnHfynmn4b3aLhVTzntu4Q3gA8z8JfvLzyq2CuBSocP69jXw0WUsmn5gyCt42mHfd93OWWZgO3aiyqa5yXmn4D2Q8z5VZ/njH+7Bu6k677mGd8sQ4Cy6TF2twasmrTysYMxycbNxshXoJYQ36YYlluk0MbAIbL9M8K7GtHkX3ounWP7YFRZ/obPaPO86b8G7cuexZcHBwi38Qi3HG0KSA5fSco46PmhMNTDkGTy7ue/eVHSv49j47nvm4W3HgPdTT/QvWNO0ueDdZXiwgTslQyeASwXHriUsvDi1wJBz8Gy578G2YwO579CO7b7nIucNIyxYa8P7766qJajgPeTtw/OGnUMSwKUiHbhdPN4K9PLCO6tdaBpIPfd9vI8yrznv9CYt3QVrHXjnWio2YfAI3gUeQrAErCvCCuBSsUGsgW+OeN3KDe+0++5vF5pw34FhB2WAd8Vy3qfqvO/jH25Nm8eq8xa8DzkGH9Qw21KArZaU86gcwOMGPphsYCggeBqW2S406TdP4r7nIud9iPO2hPN+39UrnPqF9g5rTZWKCd6HvL9FOAsvK8DKgUtFDbfb1yBubh+9Ar3c8B60kylfl3TfTcOa04R3tXLeffDuloppe1TB+6j3b61Et3//aQVaAVwq7HrFza1KwzvpLNNH3V553gelEd23ct790+anCqvz1rR59eE97LCCBqd+VrOyArhUUDxbwgcXKw3vxC5raVfZ5yIBOxjNfSvnDd7AnTrF+65+uDVt3i0VUz9vwXvE6+jDNXCnFWkFcKmYwXcWH56vJrz7A4dlHnXCfXvwO/MH7/SPmR29t7k3cIunWL76BKc6C9ZC7W0ueB/z/S1YBNtUnBXApQLksE18s15NeJNYeT5I8b68N+APDIL5g/fQWvhOL3QGc97uVJ3ljz3R2h6108/blPMWvI/5/q3+Cg0kAVwqYgzGW4Mr0KuR80567Oy23663gM23c99zAO++uQcbdjj9vdDTdd7vS+5tHqrOW/A+6WEGYPFlf+c3FGsFcClP+VvXwIeP4KOKwTtV5534dm/hWn/u2+8ZhPPhvLv7wB+S886Cd3fBWjrnrTpvwfvE19HAmltOWBDApZydq+usQLeKwHsw551035Zy391FbEe0C531UrGsnHcS3tYH7yvtnPeuct6Cdz7v74OGWbSoiCuAS/nGuEV8sFEdeB8SR9L7nCfcud83iCbtvKcDJTfsV0aq826XikXtUjHlvAXvPN7fwjVcfRlJAJdydODYCj44X7Wcd5b7zsRYx33vTBrek895D5s2HwZvMuu82847+CH5doDUtHn14T2GfHAabF0RVwCXcg0JtkbczK9Gc1JT0emGJamV533lULuWuefIPOa80867UyrW3R5Vdd6CdxHX0YK6wzYUcQVwKdcn43gTH+SzS9Ikps1TbjM7xLieuxyS+561nHca3taXAx9csNZX5/3UE70d1pTzFryLeH8LweJL/i//C8XcCkjb5lVEzofbWFTSwGmHfrtvwVaXn6kFWrs2YCZnMedtNuRXLBvenTrv933siV7OO/dSMcFb8O68jAcfbLsFpcHlwKV8xtStT4APGkc3MSnZcdO/aYtlggssAtubFLzLM20+DN5k1HmfKqTOW9PmgnfGa1nYwCKZOwFcymdIWR0fNMbLbU14KtqGhJZkeZRlu++52ducjJmIgVKxIuu85bwF76yXDNbMnTqjyCuAS/noND64UD54H/IQT8aWqfRv3tJ62AfbLxreJc15W3apmOq8Be+pvr8Pz4KtKuwK4FI+AXC1NahOEDgnDe8hP9WX+yY79z1vOe+srmKq8xa8p/7+WokugEv5yWHr2U1MShqzych9W6qULOW+5y3nPZ06b+W8Be9RXj6sYdGWIq8ALuUhH23ho+Ndq2lNRdshIcZSue8H1gbX/OW8k86768AXT7FcaJ23nLfgPcpbxOCjy/baryv2CuDSWGOptQL9kWOVkE1r2twOcd+pTdAtMKw5+znvo+BNEt6dlqDKeQveU31/Awsa5urigwAujTeUrIYPtkYDqE04eI4WZrrtQjurrT34B2B+tnPew+BNqvc5p+q872NX2vDez3m1efnOk+BdhYew8CLYaSQBXBpLdXy4XvrgMWzlebpdqIE1DWvO0faoh02b1xZY/tXH2znvvVbOW3Xegve039/Cs1A7r/ArgEtjyBnn8cG56QTP0QGQ1bCkb8tUEu57xwqKSSWbNj+kq5gZUF9g+anHWfzAhTa8f8TYu+1NzbEJ3jP1/j5YcnitRBfApTEH8FqrQ9A04H3CH7X+eu9kvtcftHLf03rQyBtKh06bMyTnTRvev/o4i+u/kJg2F7wF75K8v4U1zDcUfwVwaayB5LfwQUmC5xEgG/ovbXB58A9sNi4LR+e8B54vOvBeWGD5V59IwPsHOcJ70idC8J7J97cYLLxsf/mMYrAALp1oDN18+vAV6GUov0rPhlvG99t23O8bhBUJdEdMnY8C76Tj7s4RLHSc9wXwe214K+cteJdNHnywxcLPihECuHTi6+ODrcwmJiWrnc7MfXfrvq0g913QtHme8O7LeddZ/mhn2nwPmtrbXPCe8kPYoYcSbmDhksKwAC6dTHV8sFFaeB9S991bed56Tb9nEE3xWHOA0ijwTtd3d/9/YYHlX3mMxV9Uzlvwrojz9+E5Y+EskgAunUhnBpqYlHDXssNy32btjZ0eVDvQHTfn3d3rHXrT5r+41ob3D5XzFrwrcK2DZYet60QI4NKJQoqt4oOVUsL7iF3XLDEV7XcN4ike65hgOlHOO3PB2l7O8FbOe3bgXcIHCAsAf8le+wcKxiWVmraXWM78Jj6sl9F5Z9V9Z8V7i8DvljjI5TBt3gdvy3De3QVrmjYXvCvk/C0Gi7ZxCwrGcuDSceRvPQ0WNfBB+abND6n77sv75uq+K5Tz7sD7o4k676bgLXhXCN6t0Qs+3DJMnBDApWO5bwAfbOOL2hN7vJy3Y9ie5wmo5+a+y5jzHnyAGSgV+0XVeQveFZcFG2CLOhECuHS88FInbm4WE2hs7F+1AfdtAw483rEcumGWtVTMDVltXu/tsOa1t7ngXfEHCAtXHU4r0QVw6ZjBcwkfXsw/aNjYr+AGwpD1x/q2+7a9ksJ7LOd9VJ33Y6k6b02bC95TfAgb34GfNrM1BWQBXDqGHHYeH+T45Gv5v4QlLbjrg5kf231XMOf9K7/E4vpaAXXeE394FLzn2XUn5cMa+C1FZAFcOlYM9RfxwXKpjolE7tuS/jvlvsNx3XeFc95+r4A6b02bzyU8S6EIZ/G23VEpWRmlMrKyOnDzjdbTb7nctyW+0dt1LeW+H4zTLrQi0+Ykdlj71cT2qCoVE7xn6QGi1dRky/xCjRxWtEhy4DMvf+vp1gr0sUGQX76tf9MW6/Ussf63sgDsYMbhndwe9aO/lFiwJngL3sWNwel9hHDTuVMyewK4NJL7hho+bGQ2MZlG4Opz35b6vutzpCd33+XcHvXQnHdye9Smct6C94y47kGAXzCiFUVmAVwaLZ4uZjYxmWIYcp2/WV/H0H733Typ+y7j9qj9P9yf864X3M9bOW/Bs0wBKTgDCxd0IgRwaRQH7uz0QBOTqbtvG4z7lnLf9226x5o8uKLqvOv19rT5hcTe5qrzFryneB2Ld+B1LGooMgvg0miBdf1kK9BzDhzdhiWW7UoTttQOrNX7oAzwHmE24cR13t2WoMp5C95z4vwtBPxlrUQvn7QwoZQDxm90m5hMPXBYmtvd3Hf3kcGfpF1oeVuCZue8660670L6eU/8AVHwFryPE49wFm5Z1FRslgOXDh0rrSYmW/hgygfSQvdAu1DoW9iFgT+2+y5vzruvJShZe5urzlvwnruoBD5suIWfkeETwKUjw1Dc3D5eoC1mv/TMdqFju++q7W2eaAlayLS54D0bznvGHyAsXDeLl5EEcOmIa+KDxmgBoaDAYTawu1rXhSetqYHfMwinDO8j3vFEpWLdOu9ES1DlvAXveXX+Fiw7V9Oe6AK4dEQ8WMKH61MLHO1An3bfvUcF1111bh78TnkD3ag57+TDyWCdt1qCCt5zDu8WwBfBNhWgBXDpEOXfxOT4gX5gb/MEwZNO1e8ajMS0quW866ntUfMsFZtw4Be8pTzkQzB/SSeiXNKihPI96m4RN6cOQ8v8s7dKe3T3XbG9zevt1eba21zw1sNDkuBgwbbisxy4dGhs8I3hK9CLh3f/nueJP9N54l2DI01pxXLenTpvwVvwFrwHP7cPt+z7vy5mCOBS5hC5+fF2E5N4KoGjr13owDsnXGs8ivuuWs67U+e9VkBjkkmfCMFb8C5C4QZuYVGRWgCXssKDo0Z8MLktCw8rvxqS+wbwO3ZEY8Eq1nn/UoE7rCnnLXjOgHy4Al57ogvg0pAYtYQP1icCgIyc96Huu7NwLWwZ1IkG2kLrvOuJUjFNmwveJXgIK218atahppXoAriUJQdn8OHqtJysHeK+uw1LDnXfVazzLmp7VMF7duAttU6FVqIL4NJhI2SduLk06cDRt3CNjJXnHfhFYHvlCXRj57xV5y14C97HOB0xWLRtr6mpSVmkMrJyDZAtfFDcQ9UR09AD9DbXyxd32oXaBAPd2NPmR+S8P5DcHjXPlqCCt+A5kwEKrLmFLdQ4YhWMJAc+V/K3Pg4+eqTVum9yU9GZZWNpF25gAdjBhAJtLjnv4dPmDz/5aAveXtPmgvew99cDRPapCS6aq2tPdAFcSsoZNXxzCyvgwXaEPDIpYCdzx2bgH9iwziYTP9YT57xrCzz84cs8tHlR8Ba85fxP5DTCVWf+rE6EAC4lw4ajTtzcmGSgT7tvG4Bh+/vN1te0A92xc94kct61BR7+5Ud56IMfKADekz4Rgrc0NQe+iEMr0QVwKRWUV/DB6tQDfbtdaN/K8wH3XZGcd+fPWq0F78Kct+q8ZwPeeoAYwYHXzKKGToQALiXUamISrkwq0PfVfdugC++674O0+65Iztu3/6wtsPzLj/LQ5gc0bS54l+MhrLomAyzCWbztX/uSzocALvXGht/EN+u5DbRjhs1uCMvKfRcN71EeNI6b8wao1QRvwVuuO9f7z4MPthwmdgjgUteB+7CBj2r5DbSjoZhJ8cSfft+wYHqBbtTtUZOzB90HkdoCD//yh9rT5gftlqDKeQve0tj3n4Xrhl/SiRHAJcBuXgUfbo9di3yMQJ+58jyZ+/bgHxTsvAvbHnUhlfP+oXLegrceIPK6/yxcBaeV6AK41LLfro4PNscKKMeYNh9YeZ6EX/vL7xuEBcJ7LOd9RJ23SsUE7zI9hM0SvAEsWMb8uk6QAC4BZraED9dzH2jDwJj9FNELbXHHfVct593apEWlYoK3XHeB958P62AqJRPApbbO44OzuQ+0EePYgPveM4iqmPPuTJs3IfhxzvDWtLngKXi3/j3GWXjZtBJ96tJe6CWQM7+OD5ZyH2hHuO9k7rsL8rjdcayEzrv7/6kOab1SsYutmrfgh63OSVWEjuCtB4gyw7tlwcGihjm0J7ocQiwRZQAAIABJREFUuATx5rGbmJwg0Ge1C7XUl9/1EE82KIyT87baAstPXu7Buyl4C95Z7y9453f/GfhwEx8t6qQJ4FIcHG8F+jED/ZHtQjswjw2/M/nQOnad9wc/0Oq2kiu8yxo8BW+57hLcfxau4uorOnEC+FzL37xawwejNzE5YaBPum+XNCXdL8N2LP8JsbFKxfp/eGidtzWh+YOc4a2ct+ApeB8C8DPOojWdPAF83lXHhxtFDbSsTVss4b5bNd+Gj8Dv5RwUJlHnXci0ueA9G85bDxCF3X8W1AHtiT51eEhTlXNuBR+cLwreGUa2v12ot1buO0/3XVTOG/rrvJXzFrzl/Kdz/1kEFm7rJMqBz/kg8mv44ExRAy2zXWjne771TYvA9icXWk8M72Sdd+7wrlDwFLwF72nff+bB4i1/R6VkAvh8D6TDV6CPOdAGoN0Bo7deu9AJue9Rc959LUHpLVgrbtp8woFf8JYq//BoYEHDWaxZXAF8TsfRravggy18lPtAy2xYYv0Qx1oMzMV9F5jztoEFa8p5C95Tvo5zDe/Oa4UXoHZGJ1UAn9PB5IY3MckB3pbFWN+/CYrfsfHjXlHbo6rOW/CW8y/v/efDFbBVnVgBfD7lbBHf3Cj2KTm5cK3frFhg2EHxoXWUnHf3WFM5b9V5C96Cd0nvPwvqht/SyRXA53RM2TI+uFjEQBt039Zz4R33/YBC3fd4Oe90qZjqvAVvqVT3n4U4H2/Z939d53hK0gKEaRpwWG1NQ+U30PqmzztOtrPaPJn7brZMbVFBYZy9zVlorzbXtLngrYeH8t5/5sGibaud0nmWA5/HwRX3mpgUAO8etduPCyTd9xi57wJz3qrzFrwF76rcfwYWbDqc9kQXwOdsbN36OJhv4MPCBlomIA38wZjuOwfnDRzRz1t13oK34F36+8/CdSxe1gkXwOdPPtgeWkI2jvtODOCBhiUG9sAKCQy51nkHKhUTvKXS338+XMHVtBJdAJ+zMYbViIPNkZuYHCe8tjdp6dsytdMudP+EXJxInfcHNG0ueJfjIUzwHtWBL2Hxhk68AD5ncsv4YD1P990homU5X0vkvnMOCuPVedcSdd4HgrfgLed/0nvPpnCeLARsy3//N3QNBPB5GnB+BR+ez+3l0n8xuo63s3DN9gyinD8G49Z5f4iHPriuOm/BW/Cu5H0fgQ8vO+d1LgTwOfLf2EV8c+zFH/3ue0jYa+/A5nfyBdOxS8UYVud9kHOdt3Leguecue9pPmBZuAkLKkkWwOdIPtokDuv5jF/rD7kZuW/bM4iPGRTyhHe6VEx13oJ3mR7CqgpuK8E5snAD/JIuiAA+H+Pu1lXMx9vYePPZhuE6AzjZLjS9aUsMfjc/KI1V511r13l/8GIBpWKC9+zAWyqv6x4A+Fmw87ooAvicjD2H883G2CvQbdj3Upu2HNd9jwnv5A938+/Qmzbv1HkHynkL3lLl5YNlzNZ1IgTwuZBzLOLDzXGCpZkNbplqGX2/Y7Cc3PeJct6dP1XnLXjrAWL23HfLgQP+ki7M5KWFB1MZf7bsfLA27gC2rNBn/SvP/a6BHz8onDjnTadU7NF2nbdKxQRvgXsmwN09rhgs2tYFkgOfDweOrREHZ04U5Np13i75raTjTua+I8P2JgPvzJw3YK7Gw49vt1uCCt6Ct+A9U/AGwIMPt+w11YIL4PMxGDfxwVizHzbk0aDLcmuXjeWQZh9le9Tkw0R3QtvVePjKNkvbGwWsNp/lAKqct1S18RFumFaiC+Dzwe+ogT9uNxHrAjLLfQ+sPA8N2x8BSkVtj+pqLD2xzUNbGwWViinnPRvw1gNEtd13F+CrzuysLpYAPvNycXP7eCvQrR+omaEvw33byYPCOHXeVqvx8BMt5+1U5y14l+EhrKrgtoqcIx8smqtpT3QBfLblb14FH2yNFrwSQS5jxZpLuO++PwPDDoqF91E576XtDbUEFbzlumfZdfcdb1BzFm/pwk1WWoU+eS3hg4snCXmOgZRz130np9KPdN9jwbv/h5M5b+vkvLc2Cqrz1rS54CmVE+ARZl4r0eXAZ15n8eEI/XNteMzNyH13v5qHuO+Cc94PJ3PeqvMWvPUAMR/uu31dnT+45O98SddPAJ9dOdgkbtaOE+Ts0D9dD+p2SMOSInPersbDT2wp5y14l+chrKrgtqqeIwOiDWd+URdSAJ/hQRptDV+BnhHkjCSm++md5b6bxcD70Jz3E9ssbf89tQQVvOW65zOotf7wwZqZP6PzIYDPpPzNj4OPtvHRsYaGY8iuawn3jYHtFAHv/h/OzHl367x/oJy34C2V/v4r6P6ycMm5hXVdTAF8JuUcNeKDxiFdSA7/1rBd1wB/YFiQv/MeOeetOm/Be9rXsargngV4txx4Da1EF8BneLDWiZsbowbaI913B6Y+w30XnvNWnbfgLec/n657mOEIgXjbXvuirq0APoPjNXMFuo02PjLcd3fTln3r52eRjUkS8Nb2qIK34D2nkSxTvrXHhXlxRQCfyRv/Aj7ZxGSEkq7Mn3S92UmfWnmeU867ryUoyZz3pQLhrWlzwVPuu5rw7vxzsGluQfuLCOCzJ2e+gQ9qRw6E9OZrCbhaul3onkF0dFAw8sl5L239onLegnc5rmNVwT2r8Abw4QXMVnShBfDZG7s+aODDIwdCumHJwF87gPWG3x0N3nDCUrFUnTfKeQvecv5z5rqPcX0tPIPzF3SxBfDZGru3ruLi8BEsHmmcDGyZagnIdtz3LhCPFhhGyXn3XL7qvAVvwVs6wfW1YNEZmzpnk5FyFZNjR935ZmNU993dKnUAtu3vx2C7TCbnXci0+YQDv+AtyX0Xf39ZBBZd0gWXA58pOewMPrhwXPfd+0bafRvEynkL3tMO7nqAOPLemxd4Q9tZRI/Y939dbBHAZ2ogn8cHZw8bK5m571T5GAYWGbZbdM57WzlvwVvOfy5d9zjX18CChjkntgjgMzWY14mDxcNd+pB2oea6zrvbsMQf5fjHzXmrzlvwFrznNFiN+evhBXBaiS6Az9KYCLewsDbSkLHBHHh3ej0ybG/4zm3H3qQlae6d4+Erl3hoe6OABWuaNhc85b5nHt4APjjrzK/qJhDAZ2Ms37wKPnwEHx86ZjK3TE1MdZsZ/oEdum36UHgbI2yP2lqw5gqBt5z3bDhvPUAcee/NM7xbZmUR5zZ0Mwjgs3OefdDInPfOyH1nNywxfGjY/gnhzWE5b5eYNg/b8A4Eb8Fbzn8uXHfO19eiGj5UUxMBfFbGtS0SB+vD/t0NHT5tx4y1QPtg+Dg7dNq8s9IchuS8LyXg/YMc4T3LAVTwlmYmQuX8chFGtO1f+w2dWgF8BuQ4jw/ODXPfA+MoAdkOaa1p2MHgsBsl522JWu+sft4PFQJv5bwFT7nvuYN3+zVda8ZR+4wI4DMg79fwwemsoZO18twSvrzTLtTvkLmt6lE57z54Z9Z5b7Rz3j/QtLngPd2HsKqCW/DOcuEXHSzrBhHAZ4HgiSYmQ8bOQO7bemVjTcOax4Q3g/Ams847UM5b8JbznyvXPYHr64OzGOd1kwjglZfzQeYe6MPbhfYbINsZ/IHj5LxJlowVumBtlgOops2lmXnymMBbhEtgWokugFd8qLx8FXy41QfwEXLfXfd90HPfR+a8j5o2x/HwlcuJOm/lvAVvPUDMl/ue0HFbWAOvlegCeOW1SNzcSA+hZMOSzKHVge6D/n877rR596vmuo1JnKbNBe8yPIRVFdyC9whvFYOF23bnS7pnBPAKj3fsND68kB5Dg+1CbdCB7xsW5pDzrrlUqZjgLXjLdc+P657G9fXgwwY+EmME8ErrAj44k3bfA5hPm6DOyvOj4E0/vAdy3rV2S1DVeQve0tzaiOm8bbhpjiWdfwG8wmMn3sC3m5hkrjy3vl3Xuu1CE+47j1Ix5bwFbz1AzKP7nuJxW3gWaud08wjg1Rw6N6/iLNrCh33u25LwJlH33QG5B//gCOd9ZM5bpWKCd8kewqoKbsH7hG8fnHbm13UTCeDVHUBxu4RsIPed+EanYUnHfe8aFo8+bd6X86ZdKvb4VkHwnmXno5y3NAuuuyTX14eAbfl/93HdSwJ4JYdQvdXExFK5bxv8WwfAcavue9TtUfty3u1SsaXHGixd+nsFwVvT5oKnJHiPchgRWLhN/awuiQBeSS3jg4v97ttSu64l3LdvuW/8SXPeLXg//KFGQdPmgvdsBFc9QMyu+y7TcXuwaAu3IM4I4JUMAueJg7M9990P776pbw8WG7Z7wpy3cyx96IMFwntWg6dy3lLq3qskvEt6bX1zA0wr0QXw6smZX8OHy63hlTW4XB+v/A4DO66OmvNe+tAHefixR7Q9quAt1y2VaDxH5zFWdCIE8OrJxw3zQc1l7N7SdeHt6XILwe8NYdkIOe8evH+gnLfgLZX+/puT+8uCM2AXdXMJ4NUaUi9fxXy47SzK2HVtEMp+p5X77oslGTlvPzBtnsx5q85b8J7ydawquDVtXpCJCWsOa+gmE8CrNrRq+KDRnRNP57597/99aH3ue7SWoG14P6act+At5y/XXVZFYNFl+/4XdK8J4FWSX3K+uW5Zw85cD97W3rTF0vHkqJx3UavNZzmACt6SNNnb0IOFDWqndC4E8Eo9IJ/pNjFJlo35/u1RfWDYQYplqWnz7Jx3A1Cdt+AteMt9l/xYfbhpPtZKdAG8OnLYmvnmcjpeWHvLVN+ZRn/Qg/NIdd4fUp234C14j33vKec9wcMO13DujG48AbxCMSLawIeLJDZp6WNXwn2PnvP+oHLegrfgLdddsUMPTgNruvkE8ErIv/wx8PEWPuxNncPArmv24Jg5b9V5C96Ct1Q9B17H/KZORP6q6xQURfFgG+97+W+SJWTgDwx/0A/2pDtnItujTjjwC96Ct9z3/F1fC3H4y7oBBfCq3LF14mDTrLeBi3Xcd7Jd6KilYtoeVfAWvAXuyp5/Dz7Y0o2YvzSFXsy4WzYfXOwbh4kvv29tDgvegrcCvOA969fWwMKGf+3vyzAK4FWIGXaOODjbBTOubzW5vw+Y67+/h9V5o5y34C14SxWXD9Yxv6wTIYBXgVoNfFA3kivMW3+Pdw0LXZ/rtkPrvLU9quAteMt9V/1ahKdxNa1EF8Cr8LQZNfAByR4mZq1OY/ZgEN6maXPBW/DO995TnXfJPlpQx7QnugBecsV/8THw0bb5uB1HetPnfg8s6nfdgy1BGwWUignegrckTdWB4zAtZBPAy/7wbxAfNPog1nbf/kEGuGlPm3+oyJaggrfgPUfuu5oHPuPXxYMF22pqIoCXWs65JfPhRndMdlae77Tcdx+4EznvpceKaAk64cAgeEuCt+6vYZ/RB5fMLYg5Anipg8gKcbCaXH3uY4ffScC7M4XeznkvfaiB097mgncZrqPgLXgX9lGDNYed1s0qgJd4ONo6PljqjU2Hf2CtBWwpeD/0aGvBmtOCNcFbzl/wnvnrFJ01c+d1wwrg5ZX3DeJmzzuF7elz629a8pDqvAVvBXfBe65iY7PuHNoTXQAv800abpuP2rB2xA8s0YnMMAcPPdaaNledt+AtCd7zc73CGhZpJboAXk7Ff/GxGnGz0SG2hUa823Hf1ue8NW0ueJfiIUzwFrwn9bktAou27S8/r/tXAC9jTLE6vtmaIjJHfB/w7ZvXdeD9iOq8BW8Fd8F7vuDd+dM3t8wtaE90Abx8crgVfLgK4IP2xi3WgfcjLH1Idd6Ct4K74D2P8O78b3TR4bQnugBexlvVn8cHKwDxfTBvUHMsPvoID10uos5bOW8FV8Fb8K7Q57bgvDnO6WYWwEt4v/pN4qBuTYj3DKs5Fi83WLrcwKGct+BdgocwwVvwnubn9uGiM1vXDS2Al08+bGBhLXy3vWCtDW8Eb8FbwV3wnnd4A1hYx2KtRBfAS8buP/8Yzofb8V6EP+hMmz+C6rwFb0nwFrw7/xxhxI/E//7jurcF8PIoDHzdwuZm/B6cuvwIi9sfbC9Y+5Fy3oK3ArzgLXi3f8ai5lbUPKOV6DlIJzEnPbgXLtv94OJD5zc5vdXAEUPwI7BmNYOC4K3gLnjr+ub4uc3Dwf2Y5v7Ohne1RSDSjS6AlyTe1M7z/gtno587y/0f7/Dw8pssLgXgBG/BW/AWvOcX3mYQ7Hr23/H4CFgIz9kpOwf8rW52AbwUcqvvf9fV67ex6At+543F3QcBzSXHwys16kuuQmNR8JYE7/+/vfMPrbO+9/jr/T3JyUmaJtGeekVkeIcmNS1Dxhi9IkPGEJEhQ8aS9nq9MkTGxq54R5EySgihSJEiYz+ud5SxK9qmWe8YMoZchoyxO0TGkCEia5RNxFvbqG1ak5PknOdz/3hOTpM2sb+SND/eL+g/h7TNc77PeV58n+d9Pm+fX0tz3DOTweTHGdWpxs9NE9MvS3HOJ/sSeMdvwdJx6qWvNaWZ9+4lqwxK7AQSguImUepMFJq1ui8Klrcv8Ja313YJjrs6FUyezpiZjNkfy4DfAwMQf9jS93bmE94CX5V8OLKjDdEvsRfy9h0laNmcaOkQqaDVd1GwvH1xt7y9vtd43Fk1mDyTMX2uUeKUAW8G7Ad+Ve4brfhkt8BXPR+8sINCM2UlviV4gvr0odQEpc5EsT0hrZILg+Xti7vl7fW9huOOLKiMB5XxjKg1Xn4fOAj8DDi9pW/U57oFvrYYO7oDxG0S35fYDbQBFIr58/HmNlne6/biaoFb3utb3o2A2umMbKbx8jhwKOAgwfvlfovbAl/jnBrekZT4gsSAxH1AE4Lmkih1JZpahG+bW96Wt+W9Jo47YKZycUAtgl8S7I+IN7fu9nNuC3xd7ca3I6mI4gFJg8AOIElQbBelTpGaVmhJLG9f3C1vr+9VHHd1Ohf3BQG1PxLsy7L4gwqqln273AJfr5w8vAMVaEuKRyXtRdwKgRKUOhItHQkt54w8y9sXd8vb63uFx53V8mT59NmYu4R/BQaBYxExXe5/2+e3Bb4x+HBkB0AZxR6Jx4EuyINurV2J5k2XCrpZ3qvr4mqBW97rT975BLXsooBawLOC57b0jfo73Rb4xmVsZDtAbz3o9hBQAmhqyZ+PN5e0NCtlefvibnl7fS97uWKhgNpp4OfAwYD3fKvcAjeNHfn2poC7JYYk7mY26NYmWjsThaKu5dNoefvibnl7fS/rkGcqubirlcbxVyL4NRGDiDfL/Q6oWeDmIk4d3g6JUko8hNgnsQ3yQTB50K1AKljelrfl7fVdemrTweTpGtMT8wNqETEI/K7c/7YLSCxwc8nd+C+2k2V0pcRjEt8DbgZIBWjpTLS0X2bQzfL2Bd7y9tpegsYEtbNBnF+zt4ChgF8KKh7EYoGbK+Tk4e0UmvgMYo/Eo0A7QKFYn+jWlhZfRcvbF3fL2+v7aUeaQeVsxtSZjKzWOO4TwMEIfgZ85EEsFri5RsZGtifgcxKDEg9Qb5Jraq03nrXI8vbF3fL2+l728kx/klE5nVGbaRz3BHAIeIbgvS0WtwVulpZTw9tTKnAfMCTxeeY0nrV2pXwQjOXti7vl7fVdhJnJuCCgFtUIXhIMZBFvbN3l73Jb4GZ5d+TDvSUV9HC98eyzMNt4JkqbhQorsbR+5m0s77VCdTqonM6Y/qRxrBnEHyMYiIzfbd096mS5BW5WTOJHtqMCNyG+C3wLotF41tqZKG5azolu3nkby3stkFWDypmMqfkVn28BB4I4VpuOiX/4F++6LXBzfUQ+sp2I6JbYK9HPnEEwrUs5CMbyNpb32jmyeQG1xssngB9ExE+RPir3Hfe5a4Gb1cCp4d4ksZM86PZl6s/Hm2eDbsUlGedmeRvLe5Uvx/yAGgDnAn4ueCaCd8v9FrcFblanyI/0FpX4qsQ+xF0As41nrZ3pGhrP/MzbWN6rmYsDakwDLwFDEbxR7j/u59wWuFntnHyxFxXoUOKb9UEwtwKokDeelTYLpStZfu+8jeW9WmkE1OZMUIvg1Xz0qV5BVH273AI3a4x3/3M7rZ1xi1J8T9LjzA6CaYZSVz4I5tKNZ5a3sbxXI1ktF/ecgBrAaARDWS2OpQITHsRigZs1zqkjvSixjbwo5UGgCNBUgtauQh50s7x9oljea+NIFg6ojRE8G/Cjcv/xcZ+oFrhZZ5w80ptS4t560G0n9cazYlsedCs0a4PK2wK3vNfG279AQG0ceCGIA0LvbvGtcgvcrF8+HOkly6JNSV8X7EV0A6kxCKYjXXnjmXfelrflvayHkFd8xoUBtd8EDAr+sqXPATUL3GwY/v4f22m7IcpKPA48IXETQGoKSh1X0HhmeVvelveysWhAjRhCeqXcd3zaJ6gFbjYop4Z7kbgN8ZQUjwBtAIWiaO0Sxda0TGeKb5tb3l7bxciqQWU8Y+rsxQE1gmPlXccnfHJa4MbMijyh+LzEgMT91BvPmhdrPLO8LW/Le+l/88UnqP04gp9AuOLTWODmYsZ+cSeRUZTifqF91BvPVG88K3UlCk3Xetr4trnl7fVd6O2emciYPJ1RO39T/BzwQsABwd8cUDMWuLkkH7x4J6lAmxSPIO2V+AzkjWeljkRLh0jpak4fy9vy9vpeyEwlmPx43gS1KvAbYBB43QE1Y4Gbq9uVH91WRnpS4ttAF9Qbz7rqjWeXfRb5trnl7bWdS206H306N6AGvBYwQMQr5f7Rqk9IY4Gba+LkkTuRoltJ+yQeoh50yxvPRFPpUiK3vC1vr+0sCwTUsghGIQ5ExuGtu0crPhmNBW6WejfehHQPsE/iS8wOgmnNn48v3Hjm2+aWt9cXILJg6mwu7+z83vpERPw4gueUNOaZ5cYCN8vKqeFtJSW+Bton0Qv58/GW9vogmEbQzfK2vL2+ETA9UZ+gNiegFnAYOEDwjis+jQVuVnpH3oX0mMSTwC0Aqd541rJZKzAIxgK3vFc3CwTUpoGXgcGA18sOqBkL3FwvTh7ZhpJuldgj8SjQAUGhOQ+6NbddSdDN8ra818fa1qaDyTMZ05/MC6j9iWAg4LcSVX8tzFjgZnXsxke2pQh9Top9El+l3njWXMqfjy/eeGZxW97rZ32zWlA5M3+CWh5Q44DEYYiJLX0exGIscLPK+PtP7qTtxmiS4stIQxJfABL1QTCtnRc2nlnelvf6WN/Igqlz+dzyORPUPoqIH4B+RPBReZd33MYCN2thR350WwmxW2IvcDvUg26bE6UOkQrLcfpZ4Jb3yr+di0xQOxzwtCeoGQvcrEny5+NRlvRtie/AbOMZlDoTLZuWqvHM4ra8V/5XmpnKd9wzk/MDahEMQfy53D/qgJqxwM0a342PbCOCbomnJL4BtAM0teQib269lqCb5W15ryyzAbWZT2L2bc2APwXsD3h5qys+jQVu1hunhrclxE6JfRJfoT4Iprk1fz5+5Y1nlrflvXIsElB7R8TTgYZRnCs7oGYscLOud+RHtxWBB8hFfhezjWftotR5JY1nFrjlvQK/SQZT5zIqZ+ZNUDsZkVd8psSYn3MbC9xspN04Eh0oHpG0B+qNZ/VBMKXNQos2nlnclvfKvH0LBNQmIjhMxIEsY/Smf/aO21jgZsOKvAekWyS+J/EY0AFQaM6fj1/ceGZ5r19xr571rVbyprCZSmMQSxX4LTAQEX9yQM1Y4MbUGTvaQ6De+vPxh6gPgmkqKZ/oVpLl7Z33slObqVd8zp+g9jrBQIiXy33HXfFpLHBjFuKDF3tSoUn3KDEE3M2cxrPWLlEo+rS1vJeePKAWTJ3NGgE1YDQinkF6vtx33BWfxgI35nI4dXRbSYqvg/aK2AakfBDMhY1nZm2L+/rKuzFB7aKAWjxH8GOSTrri01jgxlwh//f8Nppa4kbB48ATEjfDnEEw7Z8WdLO8Le9Pf8tmJjImz2TUphovn4uIEYKnEaPlfgfUjAVuzDUxdrQHgttQPCXpYeqDYArFvPGs2JY29tns2+ZXxCIBtf+JYIjgtfIuV3waC9yYJeWDF7tToaC7EAMS9zPbeFZ/Pt5UShvvTbG8L5vZgNoFE9T+DAxF8HK53xPUjAVuzLJx8nAPShQl7gP2zTaeSdC8KU+sL2/jmcW91uSd1YLKeMbUeMwNqL0T8AxwWBHjW3y73FjgxqyQyF/sIRWiHbQbsVfiNsgHwSxv45nlvVbkvVBALYLTwI8QP4Q46dGnxgI35joyNtxdRjwp6VvAjZAH3Vq7EsX2aylKscDXpLwDpheeoDZCsL+867itbSxwY1bNjvxwD0rRLWlvvfGsDaCpRbTekD8fXxcit7w/9b+oTtWfc8+v+HwlIgazKq/d9LAnqBkL3JjVuhtvQuwEDUjcy2zjWdvVNp5Z3GtB3osF1CJ4Wopfb+kbdUDNWODGrAVOHekuIT0o8X2JHdQHwRTbc5GvqUEwlveiNAJqZ4OoNV7+WwTPoHhBaNxNYcYCN2aN8eFID5HRgXhM4kngVoBUgJbORGlzQmvhm2e+bX7xv7xwxedHEM8F+oHgpMVtLHBj1vpu/HAPpLhV0pMS3wS6oN541rVQ45nlvVrlHQEzkxmTHwe16cb/MRHBMMEBxF/L/Ra3scCNWVeMDXcnpB3k3x9/kLmNZzeI5tU0CMa3zS+iOhVMfjx/gloErxAxiPRaud9NYcYCN2Z978iP9DQh7pUYlNgJJATF1TIIxvKeR20mqNQrPue8NX+JYBD4tcS0b5cbC9yYDbUj7ymh+IbQPsTtAI3Gs850/QbB+LY5AFkNpsYzKuPzKj7fDTgA8fNy3+iEz2JjgRuzcXfjoLhR4tuSvgMXNp6tcNDN8iYymD6XN4XNCaiNBfwU+CFwwhWfxgI3xgDw4dEeAm4H9kjsZrbxrCUvSmluXeagm2+bnw+onZ5X8TkRwTGIpyX9dUufm8KMscCNWYCxIz0JxReR9tULU/JBMK1toUNQAAAFBElEQVT58/FlGQRjec+foDY/oDYU8OrWXaMOqBljgRtzGSIf7imiuF/SAHAX9cazYrsodSUKSzkIZgPfNq/N5GUj0+fmTVB7I4KByOI3W3d7gpoxFrgxV8iJ57spFGmXeAS0Z27jWalDtGxegqDbBpV3VgumxoPK2Wz+BDU4SPA8MO7vcxtjgRtzrbtxIG4mHwTzOPVBMKm53nh2NYNgNuht88hg+pP8OfecgNpp4LmI+CHwftnd3MZY4MYsg8i3IQ1IPMTsIJgWaL0h5YNgLvdTtdF23gHTkxmV0xnV8wG1SgTHEPsFb/m73MZY4MYsKyf+qzs1lbgbNCRxD/WgW7GtPgimKMt7Do2A2kTj71cJfhfBQHU6e/Xmf33byXJjLHBjVo5Tw91FSQ8B35fopd541rJZlDoWaDzbYLfNFwqoRfAXiP1ZNV666eG3HVAzxgI35vowNtINGTciHhN6AnEL5INgWjoSpc1CSRtK3nlALaMyv+Lz3dmAmsRp3y43xgI3ZnWI/GgPRHwGaY/Eo8wOginWG89atXobz5ZI3hFzJqjNNF4+DRwCng143xPUjLHAjVmVfPBiTyoU+BxiQOIBoAhBc6k+CKa0lj52cdk/lk9QC6pTjb9TAY5FsB94y18JM8YCN2Zt7MiHu5uAL0sMIb5AfRBM8ybR2rkKGs+WSN6LTFD7PcQA0qvlPld8GmOBG7PG+HCkm6wWbUrsBu2V+Cycbzxr7UiosBo/hpeWd61ar/g8H1AjgjeIGEJ6qdx/vOIzwBgL3Ji1LfKj3WTBjRJPSPwbs4Ng5jaerZpP46fLO8tgarxG5UzMrfh8P4JnIuLQ1l2j57zixljgxqw7xobv+Gy9KOUbQBvkQbfWrkSxNV3nT+Xi8m4E1C6coBYcCnGw3Hf8hFfXGAvcmPUu8YT0RWBA4ivMbTzrXKbGs6uU92zF54UT1IBfBrFfobe29Lvi0xgL3JgNxMkjdxSTeFDSPsQO6oNgiptEqXOJG8+uQt6LBNT+AAxK/N7d3MZY4MZs3N34SDdEdACPSnoK8kEweeNZorQ5obSy8l4ooAa8GRmDEby0dbcDasZY4MYYAN47dDst7bpZYo+kbzI36NaRaNmkZUisx0XinjqbT1GbE1B7LyIORsbPtu4eHfdKGWOBG2MW2pEfvSOBeoF9El+j3niWCvmt9WJ7/h3ya0+t5/KODKpTGVPngpmJecny8QgOQRwkeL+8yxWfxljgxphLcupId5L4EmJIYifQNPupLTTngbfmkigU81nrlyv0iCBq+cS0mcn8z5xUORFUgF9JDBG8ucUT1IyxwI0xV7Mj726CuA/0XYl7gdK8D7Hy2+yFZpGa8mfnc4UeAVELshpk1aA2Uxf2xY++x4FfZbV49tyJ7PV//Pd3/OYbY4EbY5ZA5AnohegDPSjRfaHML2P7feEr54DXgf8m4lhI77lsxBgL3BizTJwavqMkqRviHtA/Ab0St5I3oBWBC3PrVSKmCcYR70bE64T+F/gjxLvlXaOeV26MBW6MWdGd+cgdZDUVU4H2yChLcaNEe60aRaFqKiiLiHGIMTLGSJoo97tgxBhjjDHGGGOMMcYYY4wxxhhjjDHGGGOMMcYYY4wxxhhjjDHGGGOMMcYYY4wxxhhjjDHGGGOMMcYYY4wxxhhjjDHGGGOMMcYYY4wxxhhjjDHGGGOMMcYYY4wxxhhjNhj/DzERDwJQkRRjAAAAAElFTkSuQmCC;" vertex="1" parent="1">
          <mxGeometry x="-336" y="-794" width="40" height="40" as="geometry" />
        </mxCell>
        <mxCell id="uxV9D01Ll2PjdH4FGNLQ-60" value="" style="shape=image;verticalLabelPosition=bottom;labelBackgroundColor=default;verticalAlign=top;aspect=fixed;imageAspect=0;image=data:image/webp,UklGRvYtAABXRUJQVlA4TOotAAAva8FaEOpg3LaRI6v/ujdp490rIhS5bcKw163AI3J3RuUE2yxb0sdk45I7c5BFu0MJ7JWbZxg8pA7n0BKgNPcYKMhxpcqvwPwxzHpJ5O/l6L3/79h2z5l/aP6o+ROmnWr2fo5jqx3u/RzH/YzZzcTGnn3f5+dz3s+zd2zb/4GeZ1/H8T2u677Oq8pzhBVLn7Ft3FNOFVe2MTpj226z1rALq1l3WNnJGaOzbVtPnFS2bVbGN7buWPWs6biTO6zUWTV7Vuboim07lVmp4h3bqa7YarNS7sxfEDvtrJR2Krs85y+Ie+eZLqzc2bZtdr8uts07trF/z1qxbdt2Kl6xbXZWNWvFtpMzXJ5ra1smybYtjaYAFGnv6zGZi0xh72MxmbE+S3PWmJMmhLt9Y3zmQZOZSYApxZwaTN+SJFmSJNlW//9j/0b/Qb/2j9zvl4wwEWFTIjEPo4Bt+/qkun7//q/YRnczukHS7u5jC9INRzpV2u5jix5bMAi7uwh1dHf3Ntb/CZBT/78sJ+Iza/aEnXcv+77v+75vsnL+d3hpboUFDHCuBnoE4AQZ+En/b1/5a8dB3GAAJyi47b/NoRsDIGKLhLhgLemmz6G+PU7ARir6kYEdrE1LOwrSxQAm8Lj2tFGCic1DRg4OaF8fBxBk2zYdDS22beec2GjbjtqxnQwRccDC2X/eI2g/cGoBQKC8c/dNMxgQwCHBzUzuNKAAIXRzVk/im7vzJyDv9f9e/+/1/xXf91m87AX+GLrPWPmZ9X4S7pIYn0T/Gz+JdkmUIh1FNzTILYw0YLl2ffUGPuPuJ5d9ps/PzPhEurtLpIp8avpWg21FBqK4o3bLnbLUZ367DOUTakBNU/SlBqOLwonYLJfYu6Sq9hNqEKcADW4W0H0Wy01QN1Nwm+vApqa3FsacsldHnaLqJvyNEKfoc0132ys/8fWTkTpY0e8KjNkrP8nwE/k8qKnAahQlM6nyp1vVJc826mANU+RCk+5JlU/m+qR7HuacJks7TkCTqaM//wKfJOyvYypw5ibsyZRLVF3ydCOKAvfumMWTKZ84+2SkjjrsJydO7z0vNIk63Q8G+CTRJ/I4CuaTXz7hTaL8/dB98ryO2/TJjE92TaLcxNNNOiK5fS5z053CmkC5mXg3kceq3aTfTRwmT36a62eK6+h/3U0STvNewMTJz7j6mR6XUNHmfvLOH2/OpOnID/0LuEyEzyjreH4y6CfLJ03b0zSXKasFtvzkyML7Bpkw+bSdn+kVqLf8TLWfMZ8w/RufiP0MJVC7jMRntk6WjppmuExxLesm9/wx5ETJz+3mJ01zGT/p9hP7iZLLhPhEITN3E6mbJE+S3ITlJnfmteyGm3nuMhoTJDc3z016ammfGXaZpRMkNwl2E4nYPpc57O4Ht0Y73ruYn9yfi224hO8SfWv0alzSUMu7idhNtlsjnwS7jHhD7ja7yd0jZ/AJ0cKE4SdF16qWn/uk5ddMiHzG2s80byXgMtQb95PECZHLbHcZWZ3ilp956me0JkJuGnczNzeSqF0y6ZL5EyF/HBM/01In6pMjPjcyCfIzfn5GsJWIT/g+ozsBOo0Pirvk6r46zbmfCPxk9wTI5bZxSU0qE06D1YVRpeyPn2zziWQjETfxXMM91keBpJucn9d73trD1sbGxnw+n+/f2Nio6/nGvvltrre2dnOa/GuwsNz8A7YnilF3SVN9m6/V1tb+DT8j9jMTPtPvMt0+afUzjX7yyyWv/OTho/Izt33mkstc9JmL18dlLvtJ8aPyk1KXvPeTSj9p9Em7S7pdMuiT8Zv3sOqNjf3ODSv6UMdcsj0KdNxEdJt9RuaTbj/55jOP/eSKn+T7mWg/s8lnfFzGzid6/thsl5AuIfwEXzgGX5jB/KlRd2r0Z/0sl0EXjsG+04N/wW5C+rnZ/hRjlzi4ZJ7PrPdJhJ/J9TOXXOaRSz6uavI67DT9rOley7OQP6DBpJ9ccjOJfma9T7z8xGwhzXEfBMmyO979T3j7adguMfITF01GFJlQ9IqGDxSYUyBgd3S8gQVI2h9DOyoD5VRnJQhEVEzDOU2ymgTszgUBX5onH6jcsKn62BpQLAk2VCeoJ/d6vXfs9aLrRXS5mgBzbrQW980885sHTKCKhw9UIo3KLcAQ4kldD4wAZlMvUksp76k/oD8pfwh8agO1ldr2d6Ftf5fY+OUB1ZSvkLfACugNSCE0GroB4A7QI3KJtOLywHYIPARcI6AHdB00nniZ+gnQT52kCoESoIJKQSggRaBmUyg12x1A9Y0SqU4bqAIqgQoBk5Ae4EfiFWgydRPRA0vdYoFOdHbefEAJKNdyIL6AOOB16EdgB1Gsje5OoVSwaalSYifwDfDiKybMXWa59CC4FUxk4AMRVQEOxF2E84RqyABAMpu1mmbbagOREAbPkfIfYCvAFspefPwBk5bly5Ll1h0aR3x0Yf96NtPk11uAnNAJvQONpLqWLDk5WX7ygtKll2pJCaE8uqsQWa9DO6NIqS3Ex5QgiGmBxETkUl8E5UbrvVCLqN0Uyfq00yHuOv38kGboCehyLDSPfVYw6eDNB8bCCBBBfU6ZWG90JELHgE8JoRS9nY+FJhngJoluxFxgHWBm2unIhIgov6lpVDusg9uK4/hBoO6Ak8RuHbVUJaGJmE/Xobx+4UlEuRYv1ZZwFNgCVeoIfpeviVgItcYSmzTsvHkgogMxm9hGUMx0JM+ICmAzMZVgesylwEShVA1iLPEPRQGhdGQ3FCnlC8QPyp0clFs6dMl7oIp7HeVNAxVQy6nzi3XIycBxC0C0pB6hDnY6+gE9kJzSYzgJKPayqH7nCJRPdQXsPj/lE3HdEpKVD2oJvUSd1hWyU+oI5DDEqNoVBgOsgn46QVdQihz4gu6C425fpMJRtCiZkKGZrqzUHmJ8yapWtUu+f4ESXInFb1FX2nWiiHqBe02rWbnEqCv+TdusONpTZdT3AJ/ifCMVrNiSxHBiV9PoCtwTKEAzdVe5F69cy5flULOho42u1NQB4l7cSK9YABPI1XPSlXsGmAYepmhUKoA1seL26krenBOkqNhHtzrtfE4AdYO86XWomz0OkzYQBeAO0aQyEb2J3xsdxtnxNe+EOvWRPtLzO+/m+LohUL290MdUi2p0if70Aqon9bsm302b2b+GigjjlL4Lpt4hnqJmESIB2yCrqEtLXfDRP/pHpyyDrofsfiuUDOI54hPoX8ggZAIi1m4IdPZX6fIqEdWH+nOWXNtSRwl/gGXAQqgfwZdiQGUT6SXipYvg8QvygHz8AgrMJUFk3ppCDCFzIFHQc5SXkLr/mJ42f5VqXoHuKfWrpj1tqPKzBhZDk6hrCDa4eWhZlBs2xBGwEZAHeEMdexXTrktJKUpqSaH6lQdiC3ndJ9U8WUoT5A41kFtrIHv5/APlBBdvboSoya0LJBpadtYUWZ+S/mvoTYhuxYEaUyt6TZZItS1lhPAIEE7hcYMu3gpysosAdl6WxMYbkkl8Q5xOqYfKiBcL5VSach/1HzTVVJvmld9DwiHIfILaZfKvICe+9OwPxKUucRWx6HoR5MloTxFDDiwpWWHow6Qe/vwa14Yopf76saWY7eSgeSipJMATehLSSFB2iSiAukXUyJLFKsvOFZgQTZxsE5kSZYRKQjyVVwjIQ7t4+0EhrpBcSEeXiPbEbuK6S/GDF1SUi/PtbwBZSehtNcmOqqA2ETOARuU6SB7qYh+8AGfABUJ/m4ZCqOdIcK4oROd30WiKXQcZgZyjuuzyhfPQlwuSsBh4HyhsmhS0v95c6lcSqgbxgSbRvRPq6+8ODj2PxIJVBYYQ6jTJ5p8Rjrz6CgIPTtl/3o0mOPvEf6C8rPZF+9/vQR6RALhEO0LR72kS0OarUAN2/f4F1ePOUAYbTfCkNwpdxX3IPELhYRP2EBu6Xk6nVP7zqBx/5stoCi8BeopqnEfrsVtAdb9aVEkvpy3xHpfqFaO4fWjE/7pGxTtqHzGmWLLyyCXqE48Qp3o5JYiJiVw/cLUAbgdOqHxPqaKu5RbJI7jkYRBDiR0JKLQD4lMpqFbEn+tyJ0Kf3rZdCPJI3nV+YOqqt5zAjFrMrXqFwDoE4MhJKn62gBKgRR7VVHAywPd1MYUIgOFLNx+oOkCWAUZUugHICNe40Muje/nyAIAT4DmRElNifal2laEADUC5SvfnRDzPhWYe6X+G+mImRlQSzy5fhqgK1FCAQKohys9r2VXPI/7BQ172UlNCH2FJRaBrAa2cSZ1EvFGCZh75EDvAOylVYjFAtRIULgxMv70qfCLwEcE4r4BEd+KPqRRlmrK1EhRiC2lS4Zb6skTzvCICF0GbpRrC++Uz6hXgmNuDQgr/tVALrAN65pXx4vz9BdTd1FEhJQgIARWA4kppaISIg8St/NEDVohcrIMDUv+bkAJefbKxD/ugf6BTWegMMIn84HnFhHIgF16gEGQGEjD2wcN7Jirb/qDbn1dQCA/wo5PRTwhUHfNO7U8v+LT/RQjwix6bPLIPqgs59O5gETJgNaSvk6EKKBvHPKrRBasscRyw/RS++BuQGB/9G4ADkUXB0rnR/9DUhdCV1JV/j7qI4AVwBI82FccWKX2gK/TcC+IdfLiYpirJdocechUiQrEPAdlHEMu0lHtc0Mc7QjB1BkqJAJXE01zScpzL9UGoakRb6kbAAWIJseoXULuuF3X4TTzs60XpBXQCG6gfoNeoKdQlVDOqCi5AcbZVsUxVtqkS2e5R2xWzrS8yLBO1CM9aESX2ABaOddeWUKqiHeQ71TwnTB4ucCEw869+4vP+6p1OG53NZuuNttqceE7URuptyL8Qt/L2JiIcfLgYpirXdAtsN7VmuiZMVcwhh5BhmbKEMijTAo8V58XHOaIXcawV+Y8U/5wsBCVrTIghvqD2tuuNxuwhckgL4S5wV4GavCwccHAV01TtP7C2tma7KFs9bKsCDqlvJOxjA46dAKUk9EEDzMe44iIMzYMoVXJKKC6VmwoeBqU4UHKIDZ+/nWn0rgPMQL9Cw7k1ubx/f8EgT8hU5R1Y233VVvXaqg2n9NLfgaDMrRX1x0wEKgcGjHHlQpPyqxEBDgEX5DTpCwrWCLKPwu9UHCqlfqaGlBc5x/fWTNWBA2t7Nt2Uraq1Vd5hmRJKmRFRYHmxlja+ETYTJlQUeGJpL54GL7CoW4E/rkqnCa5DBNDH0LlUcg/bqljv0XQL147PVlOm+oXpMgnjBXXoWxlA35Mb2+iHoFxsRX460TUnCeFBLv7HVtPsptBeYFYB6jnnt3ZzD6wNarqUtuu8vSpmUIbu/G8iAMVFjm1k7Ym1vUCrwKNn9ROxFJYfPcizpHy5X5rwN7+OBIcr/P8XHPRMMX/TgbXBTde07Qq2rx4QVKDWN2klptQnpWqMa3fkXapgT+2g654TXAY6JPzKdpr0C6RWX6Jn2Wq78jOie2XDrOiYrlrb7R6UKVtu0VRACQOEOWPa8pakXlDJ7uctP3zQBLiWTcx8Ub2mfsyPGVu4H1FWIhnRMeBN033LdKsElVsu9T2UklBiAh880HgG0aLUivz1u5XlweECDhGFjaZ/9ItQizPISQ8M1kyX0Hb5BV1CBWd37iLA50DWeAZc/LgkptS7P1GOPmzIQYBE0+9Uj09nUQo/YHCHbNe3Q67GJCRjYQbgi0D7C7Qcz4A5/1qCIKLsyeIA8uMRBe0Q7H50MAOAge2W2e7MbYdCQo65aQSQp60AQATYPZYtosoXUsF16k+qiVj5eKGPeCUIlA7r4d7M8ZvB2pqpajRdDiEZOBfYJbH+Mi/dr15oHCN4EFoagT9CPHSJf/dCYtQF1HYd4t3N6jQKDNZM9wFzN3AIRQXyrBHoKJ8p2uMYddc5SRAniLOzNMWC8qEbpsqG6ygoBAamu9l0W4ZkYAJQKtA8nS8dcHof/oaO/EDDp/r+F4wfPgFuBto+o3N/t7//xgc7+ukLQbNnKngLsFWTWr6FoJw4UYc4yMn5LM6CQbNVMtOdHnTjiAMCSpAS/QMW0oSbCXRJiMttu5CDncLd34Jxwt0/wCfMhWOMXbLRJefcTI3LnDnte1/oYNzLod6XaAH5S+ugUsB1wFEVXV9X7WZ9E02CHGxXl0UMnqHp/mh6DEOwZAFLJZo3uOssMlj2kytvwyVNLnngMmEusfNzc3yExwR/ujku8XKZUJ/c8JO291HXfqYgD/4BqbUC7dkAV2RhqP4PmwlMvx+x5qZT771mwh3IPeoL6p/z6JpYIpX1V5GXS0Z0SGsXaqq3h1yhL7+AGCvRfl6ieoDPJPiMdJ9LKJfIXDLoklI/ifeTef4U9VP8+gtWuNNMgM9g2+/fXJfMd8k+l1S4pN1lZPu2fELVLiN0Gf+AjwCd7gSA34DmQhfnaUGQmJenkacdcOqmU1IIy4g2patVbsjjfgggg5/VDklXk2p/npRU4lvIpLZx6nJsPPNC1iI8GZGQbBdlq/83NYyA/ACgowL9S6KaBrjJWjeZqOu6ns99pscnL1yS55P5C6dR3Z6gp/fegBVrR266z1i6zBqfOeaTKpeMuYzczVD7/ISq67p2ydBTCYDsgcg1eqvAInBjQoWYQX5rbMog5X/g0idTbuA84BN+MtQFwFvAgS6KyNnds/UpCkoByXRTtrvnkG5eCNGE+LmP11BEVI+A7cdYuUnfbnXtEmqfT+Q+GXOZSpcc8skKlzHbfr+JFWjH6QJHnW7SJc4+CfPJVZ/8eeD1Rn28LkP5mdYdx2gNBm8YcryP1583NTHLHv1QAPn3i0aCyh4oZfXy7SFzcIF04ErKyy8apS4npvOItmaqJKYqOIRn0Uetguf+SgP83Gw/4e+pruf7tmqfiFzm13Pxk11+Yn7aH7iRheMFVhKXxj78U/GZFJ95fkdv3v6tetC5z7z1GfpgBJRQ3sbrKMPnKbTk0YH80KjrLwqYX6h+YYEc8dhfDoDHAFAIHGsiSJDND5GTCkh3yHQVH/L6oAGZGP3y2nj3C5KzeAEazCc0nzw9vj1v+Mm0n9S7zG0/s8dPLP2EveMDB1oZjrwX1B/Hws9scDOFfuaTn5nyGcW+OnTuMkUugw9Wng/zXaggsYGoIwTxhwi6GJWbT4zitUSOvOtaHBB2YTFEjgxmptNof99W8201L4RrFxAHBXrIfQgymJ8b85P/NgLqup77GZmf9PjJfZeJdmmfhdOwR52/V7Cbm+Emln4mwM1c8zOVfmay3qojzv1MzsIUMliBJsAmCWg5FJcpfZjU6+saEzIECVreD5ajYx2CEEwYnMY4s57lZcCTbPWYrdoQUpwxBLRq/O5zLl0kBtv+/oHdTIqbUGHOue9+Ru4z7T7z1CcZ2yfebsLxaWRkLaQRn+i4ia+fiXWTUjfp9TOiffVWHXXDT4Lz4Fcd0tMJUA5zg8gQXYntfQygAJpQPjxYFiw5GPHfh9CE1c/tnp21atMKKGurtnp/SMEhAR8kIHWF6AyW/cxWP6OM4uqN2icyNxl1mS9+JtsnS9wpRttPNzZ6zvjTgoUBcRkdn6z1M4U+efnoa0mXKFyyPICyiTIuQFVQQy/pb14gAwk8QWMCLixdy8yiRBblElAZJjI122tDnrJpuu6aLnYAAAWcb+M1z5bqFOAn81wincfZ48ajdcknl5zwk81uYrA9IDveBhgh/gO/IJeo/D6fbPXJFZf565PRej4XeYku8QgAxlwVjQ+VQhdlUQgJuaERCRS0CmqfhSk2kF9t2JnNI0sLYJBMd6XpNglY3AMgsa8iXgsdAi4L8BN3Pxl2GUqg3tg39zPjblLrJkV+ssXP8NwxzBFxOqcQfuLjMvE+ueuTzutZ1/trYZ+0uMQuAJo3FbheUDsZ7KMNaY5BFAFDsjg1gjjTB4lsfapB0prtHrfdbgEZsh4ij6eQKciuAD9j+363JHafb1xPP9PmJtevq5tYHJmAEeDm1nczh/xMx8a8TnDuJ1XPMgB6eiYAqYaYyEDmAMZiAL8DNeVKVvPk0wiHujNNs90K270+BOJNlfTxAGJAZIDLmLrMjzrBrdrNzLik0iWx7jSqQ+cnem5S4mbk8zrJLT/zzh9HfzCcDw64ovF74uu3JgOJgogjQOXQWGwhuaWHC73uEyJMzfIYzXYpbVWsrW8QQLQjDgn8EWJqwEXegP0J1HW94RKJz1xzie6Qne4Hv1E/KXATeZ3o3E3K3DEagwGZwNttvBm1hMqVuSlNBEAb0TEnSHUGtEc4tZgFCaOt2e7DtgcJIJoRa9t4U2pBwPaE65KSOtG5myhccnTh/k0Ol5/x8DMtW6l89zM3/bFZg1FUKY81fgu8XJwfusjS4w8KfTALawglBG4K2IcNuRuhsfIAtL9vqu+YajyAqveQm3jr1NMBLmG65MZGIvXWv3lKw+Vmot2Msk7WzZzfPoMNVoIO4UUTTwFHln50IyKFaEHedWEzamZOkrh/PSzddBsYo6yZrpemiwgoRZPyVKCDXFp8ONhgp3O8CT+5sD+Vep/LJA3VUblRlxyukx3wyYkz+cQNDUY0Jn7q47XAA1kUYPGBNbilTlN3pgHYAZgKO7d/tr3UD1D+vun+ZrrJAKga9PEs3pRyrbw95GA73rnQbZwnU7uZ41dmmBaOF+lnzm4l49zM4Tw41AL6q4s3g2bKAB2BtW1QQ+gnLEoDsADQF2HHew2S1kw339wdRgCEc686AeoNbumD5Ve9P5mtj7NwvMiVYeJVB/zvNzyNt/5jZSgelOYuSAGtAOc0CLMI7U3YrloVVUJatd1Nh/StEsAFi3BD47c/q3BZAX6SvTVuNL9VADnmhB9NPIUmy3DrRW2NAGgBOKRBju091OBkd7OmSaaLstVNh9WtElCuh0G8AqEEnh1YdoBP9tdjRtP5JDOAHFPKNwlqogw2Hucc1kHaIC5pQOyfSRe2u1FtGiH9fVvdeHgNM4DIIF5tBYD3wKoE+CRr/PBJWkCJJifv47XEFBmCG6GxCeqJXUTfNCCekE4NPrd/Xr6n2eqGIw7NCMA+LMiNTgB4Bywz4DqMG67pM+kBZI2IH9t469RsGS5tiDV9kD5V4JY0CGvPI8LHQdKq7fplq2gBD+EVCSjxBpEe4JP0scN9sQC6htT36/EawtHldRCRcmlA/BJhCk1MAxp93m1QsuUxPM1UvTRVRABRjVjax+t+EDxEwBcbP3yyP6Bc6BFeNQLnVSIpQlGhPGvCOsjVpQ0tBXjjkHMaVl53HmDqozTV97YdGg8oQZfwronXAv9bun6hAD/J2T9uTPhJbgAXqoRHAlPKjVJYIhlY1IZN7zDFKgWKKeVHo8GnV7OsBNodMlWnt1WhAQBjQJXGJ1DUoznw1m+NGwM+czigPEsj/i/QEyuIGjKEff8lrCFKIdtSgKy7fhp+cj7zw0Yz3UrTlbCtCwoAWP5zAf0CAafy1j8CN3OsHjt85szChwoZLANPt/EUWAU0loFsfuJh2kDKS46KXLGlAe6sR3jbaRaaqVaY6o05EOBCmBKgyqHxAac9hbqZM2PHsMtcdqcmA4C5Gr/7kVRbmX9E7W/D9EUR1sm9OurQLMLer/pEs90C2+UZQlxKlMdr/jwhIGD7/aG5zFU/ocaN7w/dT6sEEBMuQIAqofjIvAzKe43YQZ5yoyNVLtSJDzoNDrL2LMZJY6aLb7rMAy7jl15ADCEq4il0FLouYHuG6zLFY0ftJuVuRiMAGgQVdtH0V0G3yBAQQnYMPSdCFtfBZBYFIcZ8lXUzOb2eyxnh8ZQ1U1ViDqUaAISBhU287ndAZwe4ibabPK9XhqNOwd/RRjJbPvPRZwwDXjt0VOCPAPfh/IFFMnEJYTqGXjngquLZBSLEBbevV+OQHvyfbotlhIepq6Yq/5RfcoGAqwQtFVBoc6EWAT4x9smXjXT8zKkd9wYfpuwnifN0fObv7Qn4EsTOJl5HfEgWkwEaAt+3MRRY/wYu1i8aCBDciZUaM914HXmpgLJquwW2e0cO5IL75TX+DFhd7IcV4DKWLsOv0/EzmXmoXWaJS/qTmbukyyVOAcVaDSC/jadEfrGOmswl/P0LoAcgyigttOY57bxuKBpkFvFzH6WqY6gxyVY32Br7kAJcnpFAR3xGRAPcxPkfz5PxkzE/WTdcR80w3My1a5VK7TNCl/gGFIhBX2r85gYSvGQy1APa1UXpCK0EP2wZcUqXBl0L+dtr1L2fdRuk72WqSw+7c/AQgD9AIKCPlS4c4Gfm+Iy4TnW/T+763Nzhym7Gwc/8qLcScYnSzawPwAIGnJvGU4AQECi06/bBKdf7GKodZZR4vGQteSsIgwCCITH3bQIojdpYVgDTTbfMdCfkUOqRXoAqp8bQBQF+ZpPPKFPxGcolH3zimIf89BPgM7N8UuFnBH6G2jdP0mdiTuf0fzBY+UDwKG6vwPSmXNKfC8lk4HziWBztbu+NpMQRTAslBit8UKABIIj4FSLtNWaQA3/VaRLQTNeQuSrHEKxVA5a3AhQpYWke/MgPfkEuEzdPc8vPDH1Tl7E+nfe/YNjyGec/YGFudZ/x98l1l7x0kzcueZPgbXczAf7eBQ+WAasBUgElfCAYCQGZj6GNo9r/F0Ad9DB1DcWyXJJ7Ki6DFh6jQpdB9wF/AqUa+/RqLrKBrSq2damEEGddIxV8e1DrgIW5YD8T8O2TfBmvzs0sOup0iDwSo1gSEVOOkGrEVGP40vwM+/SOXyAAaE8c6eN1D5uyQChD572KWSQRqX+enwssBZ6hHqAmPApqMvQYpATyHTK03mrs9E6nUTLCw2TTJbPdwdmU4ndSI3DytxZweve+wFd/abcuRTfR2nEsLK/kVO2HLKHURCIktHN9EGL+BcSTrum6k6jSf/ZOTug6FazqOOBJq7a6ylZbhXBDu0mNxu+ePIUeMBYXQNwxlaSWU1lCuVyaPKZZ6VIMIpvvo6AQMHXVVitsdcERL184pHQNqI0q2ALi8xhOCKMoJAiDBGepDFwLHCz3I5H9v9VrN3jSmu3qtlUuOZS6lSoS6CCjkNXjGGQBpLcTeLzXUqxYSxL3vSn3myDHp6NoAJO/l+n6z1x9YyGLa1DANRVc/7nc8sYx7jWkfl8XaIHvgJpSmUv1s9u3eXb3/iT0jyCfVx1GTiZg8qO01Z222zOHEh2Idb1AC3mIh+Lj2NEv/sCfrBVQ4Ah0jVjeWWv3oc6uK9Iv69LYeBNFlYDJm9/rQRx6CB5EjLsAFbwvlLQ8lhMiKRIJhZ4slJA66JmLkRHe8kyXX/d9VyohfkHCtpfqMAjGDExXvbm6nHIoXA3os1aCMEGYPZ6VYEsZEAF0lOAgtK2KZaqyM6J7wyyP3RAJcQtS2f5W98CGtlpiu+NO9TW/oCBsVkIFIpRqivp49nGvlghBScjhAhI5+HAxbu4BBma57Y5IiFddGluf4lfNm5jup/ZqNHLozstDEu+uqyT1xLLi49lxW4i6t5NY/z3/TmLVVO0/sMbscX1XrSoSYiWfb7brBGy4abq7TdfSHAydA+ybSTw84IY8pkN8oQOdQEuVABMFDj5cTFOVd2Btd1/r0MuG6zi5GIn12xUVFJVSY0PbRZluselOOqj/hwYtnx868UKjgj3xV4m8cQ2qDX0+E9D2e2NpFu2tmaoDB9b2DLx/fWQwIiEuYSQCxsHGpvuB6VHPwcS5xN5WhHhu548fbFzLJ/vqIreXmoG9SKRtVaz3eKFrA4IvbX+tU8tJy+H8BUmmNlxFt8U82HTTdFWbq3bOwVzQCUWtSj5V4OY8tpMzi9DTCGgLacHGPs5bu7kH1gYGWtWyJIeRIDE8vZyX3/MyAdjYVnWbqpU5nLjipqhkQ6wsUXN8g4e8EJXsIErIycUHHyzGwVXs33RgLRTcZZaVB3GoM6fXk2gXLYgkt34uymAaYOO/b7onbXXYIXe+kDAsNQnlnciJL6jcC49vGbIFKpbQntjzZmPYqh22e/LvBzFq3GWS5WXsaVb17O4pmZSPj2fHey1Mok0jHmDjv//dbXe66SFz8K5fCxEjgEKVpFDEEYJXHuN/C6RSRKeEinKjGcFWWdnup5u2iwpiBtChEwVsuI5DnfpXSVOTNG1U9//U6uOYG7BXALiEtktsu/IP6WbncLC20L8qOqMW0+WOc4UNQ7Jl9J1QUpYfBA7Ltptnu19s2ioqjNmj9q5DL/PDtuYkdtbqYLuOjubW2d2c2z+TSZIkk5OhenQ4I9vfamUVl6bHh+C5hJumSmC7jtkudg4vhU682InMoEKifx7r7x2kU0YJHeT4RsjmaqxNd7ntUmxGYAYAvnttjt+uLq9gzWlc2XQXo6Oj6y9jzQmWFaHj+Nuuk5xEGMAYl3LTdE+brpxtfXFy+Jn++wXUnU9zKrJO/ca9huPdIpCAG50MhQI8LEArQrZXY2Sqb5oq6WaMPoGM8Ay1CA7uFuTy4kVeLjnJwYehGjyX+u/b7jHbnWKumpUjcuMEqelUFCKDpFzh/79gvMvEhcRRGf1sgJydiEfI2w6tYaqP2e7JzVh9evTp+bzaqlbb5W+vmsgR/wHhbquylGZszPOYT2VS7rUy+m6JW4vfAiJke9Vs0xVpqns3bRclEEfTrTBdP03XosPu/B/JEUsfjJhMEKsslCIWLAM27mXAqosQ6iB8qleMfPDhGzGHXmKqP5pu+ebwfC9bJTDdV2y1dY65/LMXfAjAQCfTUxuornnsL1kusbiXEb0WnyVGzqbGzHafsF3jm8Ox+r1WbXWrrY48tFolR/06UH6roi1QeZV3XkDHv0zc+P16IYACUERXPUo+rJpmuzabrm+mS7o6BM9w01ZPmq5bpsrTHoLkqNjwIG9nKtvcVaJjroAlDxP4YF1Irwr1+LKyo2T7yi9o29VlYLr32e7m9DZtl8x0f7LdfraakeNiq3chjQpTlJT9vBy4CuSnRRzohZrnR00nElFyNj2YrZ5lqs7Z6gHbrVxNafNTma5a25Vgrtr0oDceKMctXXXqFaJMhVvob4BVroTLSFKPUZW9jPbQiRvEvfQ4OW+rIm23p+0+Z6rbTZc8me9lukSmq8p0Z5hqc9vfcI6MrTr0P4JMhfvPSI1d/P0LqkEmOhBrpXT2sCmJ9JCRcj7i5Qcz1d6mep+prjz31b+/Krb6DG33tK1+YarCTV+mh98tkGOXa7nPBypS6Zb4qmR1c0XEzTdE2PvPpHR2iyApxZIRK+dtd27UVBmbqm226ratbrPVwrXV1Xirq3f/Ptquv7bqqK1aYLs1D+2AHJ17NannKBIVp06UujZXxmVWm/iul1IFTn3zJVWJlrPpX+CQaswemmerg2zXJVP95Ret7sHz/77+/tra5m62S2Gre0z1C1N9yHatt92622rgLFiKIfU6RNrJAS8AadUhQzYBhjux+n27Y8Ve7Xi72/o/ZqpNTPUCWx1hq0+brndPzVaNXyfbLbbdclut3NxcW1vbvOa2W2a6Zs7eVo/Y6mZTVWGq8mz3NlPtZQ6jve3OwFny6EffAFsryuPHO1Vx4h+Ac66Q4NABJ4AKMemocsojgv3S9X+ARM750DuBbA1huti2Lz1b5Wq619qucNudZauP2OqLprrIdhddI9NdZKvOX7jpTjVdgaZ7ua22stXqpop18OFCszC5Ych8yKemUfG/DQm+wv99QZXIRAvAr05MVQlfqfOP/SWQzHCCD0HY/TI7lW+Adwtg52oJ+OciAFQCHaQVEoXzwx41VB1qLmW01wQJtUSXXDGxoVEPfpheTnugCHi1VOuRcol+UjDAC1hGlWmK0AnCnkt1/V9QNTJdI+rrJgHVj/rhKRvgoY0OcjiESEBjoyme8LigzFw9gbPvaptCo7eIcobqAG5kNJSKEnwJxb+RSqVJeFeiUa6gu24fmBj6/doEVJWqhPwhRpTrcJeuA4YP1w+gGjwJYmujSdaBrYSFuZIu74dJPAKQpaFKFP526Cq6nGHDRh3iR/x23ppmT5ggBi0JUk1yAdqAklQI1PpHot6mrCxd2jBB2e+JWnb9uiaNnir5GstriVxVofbUL+tpqOo6ZRB442lROVgHDMfRe8E5EDZRyiDjU031q1Nvla5mrq4ne01NKtoBlE8V8vTtwTUtLgunV66DEKyhoY+UIGw12SnwOcUsV9gr/J8XUDcB+pJR1fYzQr9SD0C9sA+TSyilggfmRuUZnz+h5pdqwtOfC3XPlXaJIIAgykhC2s4u4JYAXlPiKG7FRu0SP7rhNIrbRUvRJngDU6mfKMNERaMJ98T6n5wr7gsBxAEnu3RUm657gZB+SCl0/3UjmB9zE0zoCv/+BUvrEAVYEjdTC/4/YbTRtNeJHcTVl/uXL6g6uVjSXjRxqk9ojzOljn95wOMnC90MtOdSmy6bSvDyQGE4P1CBJDgcqA5dB+g/1MIvBKi9et200bR7ai9w2+JPPlCuviUy3u7zS03bmSpUDhUTJ98P9eE5PjDiHuC6H0f0Irp9Dbh2VLMSTenacK8d1OlXExf/Vog/IfWOAcqh9dTJv0JV6BD2xG7i9mP9QXIVLveyngRU0CR2vG2r2rzgD0RsIzZR/94G6nfiV2oN9Te09sO+CarwRFVtWx3G5uZTd+y8fpFcjQuXDk16Jc1Q7LmFUM1s1vb9rFXtOh3WdWjr5yAfJFfl5S2NEvWWuuEZkdCGD3Ipr18oV2dsMKAftHNlo/68lRd/vSBX6aNvf2DgKuCfZuWiKK/FPb1s/hXkan2aXxFAvKFvb+9KBZAQbhDMcuU+vd//AlRz6jWIuFuJGuoIJRsctVzFuY8add/Xn648LbWZGrDrsniu5tySxM2/Z32lAUqpr6g+JaK5qpc/BhCdqPcAohWluynQo4Xq5SpP0QAkEfu6lQOqIP4l7OCGlat9sUTJLqBWQCTNytBciRtPtLk837hBrvyFaEPTgF1dO/Ka/kRC1VXCgpUngRSU6EO8dzO7Ede0X594DAvLnUs4TwjpMoH+hE9nO8pafcE/qsTlyz54nhzufOELIpi+XUgzRNGMqilVCvlJDLiLebJYXoQhdu/1kfyRZhR17+QdU+Ox0V9CKE8cFxGlekOPU/peYDtyTqLwgekU62MvQnkiyS0N4gY5+mSJslHSzv42sYqY+L9vWJ5YAmGutYNmQb9AJd1o6Dr9SNAnwHAuDEoWyhPNYoPcledFLAMOn20zbK3qN6e2US9CV8PVzJPPZR+ISwbQE5r/WW7RbKjaEwDdf4Iazr2mpUvsetggT0aXf/WCF/YsfiW0Big+oWm69Lq2B8jPhviBmPall/Zh5YkqNsQTAy6HHnpMlJ7P32iTVguZgjYBSwF7PylRc+fNInnyWjz4QOV52aX4UmKplwlfX4mqtqptL9Sptmd74YA30JPQnVAezh988VwgT2wLDwkxKdGH6kc8QX37bJ/C3wYqdKqzsKbptNVW3wlkGjL05e8VJA2yBuCChV6xFsuT3vKnP6BkMSqDrA7RF+APPEAsojwBfIb+JrYSB6iCk1R1tkftm/MmCiHDHxZaSXj9W6knqUmQrdi4UrhQsrgc+LL98w8gT44vxnM/gPuwwDGE2hI9CYve6vMiREMSIMn39VVQ8z/aR6PmAdKoMcQAynbiBsjSAryhlgQNPnjQPMm+TH4BXhbB5UF5edCH//C5H4Q/Esp7/b/X/3v9v9f/e/2/1/97PQ8=;" vertex="1" parent="1">
          <mxGeometry x="-712" y="-710" width="44" height="44" as="geometry" />
        </mxCell>
        <mxCell id="uxV9D01Ll2PjdH4FGNLQ-61" value="&lt;br&gt;&lt;b&gt;BACKEND&lt;/b&gt;" style="text;html=1;strokeColor=none;fillColor=none;align=center;verticalAlign=middle;whiteSpace=wrap;rounded=0;" vertex="1" parent="1">
          <mxGeometry x="-480" y="-910" width="260" height="40" as="geometry" />
        </mxCell>
      </root>
    </mxGraphModel>
  </diagram>
</mxfile>
